<svg id="Layer_1" xmlns="http://www.w3.org/2000/svg" viewBox="0 0 142.2 43.3"><style>.st0{fill:none;stroke:#fff;stroke-width:.4}.st1{fill:#fff}</style><path class="st0" d="M59.3 0v43.3"/><path class="st1" d="M0 21.6v-10h1.3v8.9H5v1.1H0zM7.6 21.6H6.4v-10h1.3v10zM10.2 21.6v-10h3.3c1.4 0 1.9.5 2.2 1 .3.5.4 1.1.4 1.3 0 1.3-.4 2.1-1.7 2.4v.1c1.4.2 2.1 1 2.1 2.4 0 2.6-1.9 2.8-3 2.8h-3.3zm1.3-5.8h1.9c1 0 1.5-.6 1.5-1.6 0-.8-.5-1.5-1.5-1.5h-1.8v3.1zm0 4.7h1.8c1.4 0 1.9-1 1.9-1.7 0-1.6-1-1.9-2.3-1.9h-1.4v3.6zM19.8 17v4.6h-1.3v-10H22c1.8 0 2.4 1.3 2.4 2.5s-.7 2.1-1.8 2.3c1.2.2 1.6.6 1.6 2.6 0 .4.2 2 .3 2.6h-1.3c-.4-.7-.3-2-.4-3.3-.1-1.2-1.1-1.3-1.5-1.3h-1.5zm0-1.1h1.9c.9 0 1.4-.8 1.4-1.7 0-.7-.4-1.5-1.4-1.5h-1.9v3.2zM28.6 11.6h1.6l3.3 10.1h-1.4l-.7-2.4h-3.9l-.8 2.4h-1.3l3.2-10.1zm.8 1.2l-1.6 5.4H31l-1.6-5.4zM36.1 17v4.6h-1.3v-10h3.5c1.8 0 2.4 1.3 2.4 2.5s-.7 2.1-1.8 2.3c1.2.2 1.6.6 1.6 2.6 0 .4.2 2 .3 2.6h-1.3c-.4-.7-.3-2-.4-3.3C39 17.1 38 17 37.6 17h-1.5zm0-1.1H38c.9 0 1.4-.8 1.4-1.7 0-.7-.4-1.5-1.4-1.5h-1.9v3.2zM47 11.6h1.3l-2.7 6.2v3.8h-1.3v-3.8l-2.7-6.2H43l2 4.9 2-4.9zM83.9 15.3c-.1-.1-.4-.1-.5-.1h-.1c-.2 0-.5 0-.6-.2-.2-.2-.2-1-.2-1.3V4.9v-.2c0-.4 0-1 .1-1.2.1-.1.4-.1.6-.1h.1c.5 0 .6-.3.6-.5 0-.1 0-.2-.1-.3-.1-.1-.3-.1-.4-.1h-2.2c-.2 0-.5 0-.6.4l-3.7 9.5c-.6-1.7-3.2-9.1-3.2-9.1v-.1c-.1-.3-.2-.6-.6-.6H71h-.1c-.1 0-.3 0-.4.1-.1.1-.1.2-.1.3 0 .1.1.5.6.5.4 0 .7 0 .8.1.1.1.1.4.1.9l-.6 9.2c-.1 1.1-.1 1.5-1 1.5-.5 0-.6.3-.6.4 0 .2.1.4.4.4h3.2c.2 0 .5 0 .5-.4 0-.1 0-.2-.1-.3-.1-.1-.4-.1-.6-.1-.4 0-.6-.1-.8-.3-.3-.4-.3-1.1-.3-2l.5-8.2C73 6.4 76 14.9 76 14.9c0 .2.1.5.4.5.2 0 .3-.2.4-.4v-.1l4-10.5v9.1c0 .4 0 1-.2 1.3-.2.2-.5.3-.8.3h-.1c-.2 0-.4 0-.5.1-.1.1-.1.2-.1.3 0 .2.1.4.5.4h4c.4 0 .5-.2.5-.4-.1-.1-.1-.2-.2-.2z"/><path class="st1" d="M91 8.9c-.3 0-.5-.4-.8-.9-.4-.7-.9-1.5-1.8-1.5-.7 0-1.4.4-1.9.9-.9.8-1.4 2.1-1.4 3.4 0 2.1 1.3 4.3 3.5 4.3.9 0 1.6-.3 2.1-.9.1-.1.2-.3.4-.3.1 0 .3.1.3.3 0 .1-.1.3-.6.9-.8.7-1.8 1.1-2.9 1.1-2.4 0-4.5-2.3-4.5-5 0-2.9 2.4-5.3 5.2-5.3.7 0 1.8.2 2.5.7.3.2.2.6.2.9V7.8c0 .4 0 .8-.1 1 0 .1-.1.1-.2.1zM105.9 15.3c-.1-.1-.4-.1-.5-.1h-.1c-.2 0-.5 0-.6-.2-.2-.2-.2-1-.2-1.3V4.9v-.2c0-.4 0-1 .1-1.2.1-.1.4-.1.6-.1h.1c.5 0 .6-.3.6-.5 0-.1 0-.2-.1-.3-.1-.1-.3-.1-.4-.1h-2.2c-.2 0-.5 0-.6.4l-3.7 9.5c-.6-1.7-3.2-9.1-3.2-9.1v-.1c-.1-.3-.2-.6-.6-.6H93h-.1c-.1 0-.3 0-.4.1-.1.1-.1.2-.1.3 0 .1.1.5.6.5.4 0 .7 0 .8.1.1.1.1.4.1.9l-.6 9.2c-.1 1.1-.1 1.5-1 1.5-.5 0-.6.3-.6.4 0 .2.1.4.4.4h3.2c.2 0 .5 0 .5-.4 0-.1 0-.2-.1-.3-.1-.1-.4-.1-.6-.1-.4 0-.6-.1-.8-.3-.3-.4-.3-1.1-.3-2l.5-8.2c.6 1.7 3.5 10.2 3.5 10.2 0 .2.1.5.4.5.2 0 .3-.2.4-.4v-.1l4-10.5v9.1c0 .4 0 1-.2 1.3-.2.2-.5.3-.8.3h-.1c-.2 0-.4 0-.5.1-.1.1-.1.2-.1.3 0 .2.1.4.5.4h4c.4 0 .5-.2.5-.4 0-.1-.1-.2-.2-.2z"/><path class="st1" d="M110.4 10.4c.7-.3.7-.3.7-1.1v-1c0-1.1-.1-1.8-1.1-1.8s-1.6.5-2.1 1.7v.1c-.1.3-.2.6-.6.7-.2.1-.6.3-.9.3-.3 0-.4-.1-.4-.4 0-.6.5-1.3.9-1.6.9-.9 2.3-1.5 3.6-1.5.8 0 1.5.2 1.9.6.4.4.4.9.4 1.5v5.3c0 .3 0 1.2.3 1.5.1.1.2.1.3.1.2 0 .4-.2.6-.3.1-.1.2-.2.3-.2.1 0 .3.1.3.3 0 .3-.3.6-.5.7-.4.3-.9.7-1.5.7-.7 0-1-.7-1.2-1.2-.1-.1-.1-.3-.2-.3 0 0-.2.1-.3.2-.5.5-1.6 1.4-2.9 1.4-.9 0-2-.6-2-1.8 0-1.6 1.7-2.5 2.8-3.1l.1-.1c0 .1 1.5-.7 1.5-.7zm-1.3 1.4c-.8.4-1.5 1-1.5 1.9 0 .8.7 1.1 1.2 1.1.6 0 1.3-.3 1.7-.8.4-.5.5-.8.5-1.5v-1.3-.1-.4h-.1-.1c.1.1-1.7 1.1-1.7 1.1zM114.7 13.1c0-.2.1-.6.4-.6.3 0 .4.4.5.9.2.9.4 2.1 2 2.1 1.1 0 2.3-.7 2.3-2 0-1.2-.9-1.6-1.8-2l-.2-.1c-1.2-.4-2.9-1-2.9-2.8 0-.8.4-1.6 1.1-2.1.6-.5 1.4-.7 2.4-.7.5 0 1.6.1 2.1.4.3.2.3.6.3.9V7.4c0 .4.1.8-.1 1-.1.1-.1.1-.2.1-.2 0-.3-.3-.5-.6-.2-.6-.6-1.5-1.9-1.5-.7 0-1.7.5-1.7 1.5 0 1.1 1 1.4 2.1 1.8 1.3.5 2.8 1.1 2.8 3.1 0 2.3-2.2 3.3-3.8 3.3-.7 0-1.9-.3-2.6-.7-.3-.2-.3-.5-.3-.8v-.1-1.4zM126.8 14.6c0-.1-.1-.3-.3-.3-.1 0-.2.1-.3.2-.2.2-.6.5-1.1.5-.2 0-.4-.1-.6-.2-.4-.4-.4-1.5-.4-2.1V7.2c0-.2 0-.3.1-.3h1.8c.2 0 .3 0 .4-.1.1-.1.1-.2.1-.4s0-.4-.3-.4h-1.9c-.2 0-.2 0-.2-.3V4.1c0-.3-.2-.4-.3-.4-.2 0-.3.2-.3.3-.4 1-1 1.5-1.8 2.1-.1.1-.2.2-.2.4 0 .1 0 .2.1.2.1.1.4.1.6.1h.4V13c0 .8 0 1.8.5 2.5.3.4.9.7 1.5.7.7 0 1.4-.3 1.9-.8 0-.2.3-.5.3-.8zM135 13.5c-.1 0-.2.1-.4.3-.4.4-1.1 1.1-2.5 1.1-2.4 0-3.7-2.2-3.7-4.4 0-.3 0-.4.1-.5.1-.1.2-.1.5-.1h6c.1 0 .4 0 .4-.5 0-.7-.3-1.7-.7-2.3-.7-.9-1.7-1.4-2.9-1.4-1.4 0-2.6.5-3.6 1.5s-1.4 2.1-1.4 3.7c0 2.9 2 5.1 4.6 5.1 1.3 0 2.3-.4 3.2-1.2.5-.5.8-.8.8-1.1-.1 0-.2-.2-.4-.2zm-5.9-5.6c.6-.9 1.5-1.4 2.4-1.4.5 0 1.2.1 1.6.6.3.3.5.8.5 1.2 0 .4-.2.6-.6.7-.5.1-1.6.2-2.2.2h-1.6-.1c-.1 0-.3 0-.4-.1V9c-.1-.2.2-.9.4-1.1zM141 6c-1 0-1.7 1-2.1 1.5-.1.1-.1.2-.2.2v-.2V6.3c0-.1 0-.2-.1-.3 0 0-.1-.1-.2-.1-.2 0-.3.1-.4.3l-.1.1c-.3.4-1.1.9-1.6 1.1h-.1c-.2.1-.5.1-.5.5 0 .2.1.3.4.3h.3c.2 0 .4 0 .5.1.2.2.2 1 .2 1.2v4.6c0 .8 0 1.2-.8 1.3h-.1c-.2 0-.6 0-.6.4 0 .2.2.3.4.3h3.7c.2 0 .4-.1.4-.4 0-.4-.4-.4-.6-.4h-.1c-.8-.1-.8-.5-.8-1.3v-3.9c0-.8 0-1.3.4-2 .2-.3.5-.7.9-.7.2 0 .3.1.5.3.2.2.4.5.8.5.6 0 .9-.4.9-1 .1-.7-.4-1.2-1.1-1.2zM75.8 20.2c0-.3 0-1-.1-1.2-.1-.2-.3-.2-.6-.2-.1 0-.2 0-.3-.1 0 0-.1-.1-.1-.2s0-.2.1-.2c.1-.1.2-.1.3-.1H77c.3 0 .4.2.4.3 0 .2-.2.3-.5.3-.4 0-.4.2-.5.7v4.1c0 .8 0 1.5-.7 2.1-.5.5-1.2.7-2.2.7-.5 0-1.5-.1-2.2-.6-.7-.5-.7-1.3-.7-2.1V19.5c0-.3 0-.6-.1-.7-.1-.1-.2-.1-.5-.1s-.4-.1-.4-.3c0-.1 0-.2.1-.2.1-.1.1-.1.2-.1h2.5c.2 0 .3.1.3.3 0 .2-.1.3-.4.3-.3 0-.4 0-.5.1-.1.1-.1.3-.1.7V23.4c0 .5 0 1.4.2 1.8.4.7 1.4.8 1.7.8.4 0 1.2-.1 1.7-.6.4-.4.4-.9.4-1.5v-3.7zM83.3 25.8c-.4 0-.5-.2-.4-.7V22.8c0-.6 0-1.2-.4-1.7-.3-.5-.8-.7-1.4-.7-.8 0-1.3.5-1.7.8 0 0-.1 0-.1.1v-.6c0-.1 0-.2-.1-.2 0 0-.1-.1-.2-.1s-.2.1-.3.2c-.2.2-.6.5-.9.6-.1 0-.3.1-.3.3 0 .1.1.2.3.2h.2c.1 0 .2 0 .2.1 0 0 .1.2.1.7v2.6c0 .5 0 .7-.4.7h-.1c-.1 0-.4 0-.4.3 0 .1.1.3.3.3h2.1c.2 0 .3-.1.3-.3 0-.3-.3-.3-.4-.3-.4 0-.4-.2-.4-.7V22.8c0-.5 0-.7.3-1.1.3-.3.6-.5 1-.5s.8.2 1 .5c.2.3.2.8.2 1.2v2.2c0 .5 0 .7-.4.7h-.1c-.1 0-.4 0-.4.3 0 .1.1.3.3.3h2.1c.2 0 .3-.1.3-.3.1-.2-.2-.2-.3-.3zM85 18.8c0-.4.3-.8.6-.8.4 0 .6.4.6.7 0 .5-.3.8-.6.8-.4.1-.6-.2-.6-.7zm1.1 6.1v.2c0 .5 0 .7.4.7.1 0 .4 0 .4.3 0 .2-.1.3-.3.3h-2.1c-.2 0-.3-.1-.3-.3 0-.3.3-.3.4-.3h.1c.4 0 .4-.2.4-.7v-2.6c0-.5 0-.6-.1-.7 0 0-.1-.1-.2-.1h-.1c-.2 0-.3-.1-.3-.2 0-.2.2-.3.3-.3.2-.1.7-.4.9-.6.1-.1.1-.2.3-.2.1 0 .1 0 .2.1s.1.2.1.2v4.2zM93 20.6c-.1-.1-.1-.1-.2 0h-1.7c-.1 0-.3 0-.3.2 0 .3.3.3.4.3.1 0 .3 0 .3.2 0 .1-.1.3-.1.4v.1s-.9 2.1-1.2 2.9c-.3-.8-1-2.9-1-2.9-.1-.1-.2-.4-.2-.5 0-.2.2-.2.3-.2.1 0 .2 0 .3-.1 0 0 .1-.1.1-.2s0-.1-.1-.2-.2-.1-.3-.1h-2c-.1 0-.1 0-.2.1 0 0-.1.1-.1.2 0 .2.1.3.3.3.4 0 .4.2.6.6v.1l1.6 4.4.1.2c0 .1.1.2.2.2.2 0 .2-.2.3-.3l1.6-3.9c0-.1 0-.1.1-.2.2-.4.4-.9.8-1 .1 0 .4 0 .4-.3v-.3zM97.9 24.9c-.1 0-.2.1-.3.2-.2.2-.6.6-1.4.6-1.4 0-2.1-1.3-2.1-2.5V23H98c.1 0 .3 0 .3-.3 0-.4-.2-1-.4-1.3-.4-.5-1-.8-1.7-.8-.8 0-1.5.3-2.1.9-.6.6-.9 1.2-.9 2.2 0 1.7 1.2 3 2.7 3 .8 0 1.3-.2 1.9-.7.4-.4.5-.6.5-.7-.1-.3-.2-.4-.4-.4zm-3.4-3.2c.3-.5.8-.8 1.4-.8.3 0 .6.1.9.3.2.2.3.4.3.7 0 .2-.1.3-.3.4-.3.1-.9.1-1.3.1h-.9-.1-.2c0-.2.1-.6.2-.7zM102 20.5c-.6 0-1 .6-1.3.9v-.6c0-.1 0-.2-.1-.2 0 0-.1-.1-.2-.1s-.2.1-.3.2c-.2.2-.6.5-.9.6-.1 0-.3.1-.3.3 0 .1.1.2.3.2h.1c.1 0 .2 0 .2.1 0 0 .1.2.1.7v2.6c0 .5 0 .7-.4.7h-.1c-.1 0-.4 0-.4.3 0 .1.1.3.3.3h2.1c.2 0 .3-.1.3-.3 0-.3-.3-.3-.4-.3-.4 0-.4-.2-.4-.7V22.9c0-.5 0-.8.2-1.1.1-.2.3-.4.5-.4.1 0 .1.1.2.2s.2.3.5.3c.4 0 .6-.3.6-.6.2-.5-.2-.8-.6-.8zM103.2 24.7c0-.1 0-.4.3-.4.2 0 .3.3.4.6.1.5.2 1.2 1.1 1.2.6 0 1.3-.4 1.3-1.1 0-.6-.4-.9-1-1.1h-.1c-.7-.3-1.7-.6-1.7-1.7 0-.5.2-.9.6-1.3.4-.3.8-.4 1.4-.4.3 0 .9.1 1.2.2.2.1.2.4.2.6v.2c0 .2 0 .5-.1.6 0 0-.1.1-.2.1-.2 0-.3-.2-.3-.4-.1-.3-.3-.8-1.1-.8-.4 0-.9.3-.9.8 0 .6.5.8 1.2 1 .8.3 1.7.6 1.7 1.8 0 1.2-1.2 2-2.3 2-.4 0-1.1-.2-1.5-.4-.2-.1-.2-.3-.2-.5v-.1-.9z"/><g><path class="st1" d="M109.4 19.6c.4 0 .6-.3.6-.8 0-.4-.2-.7-.6-.7-.4 0-.6.3-.6.8 0 .4.2.7.6.7zM110.4 25.8c-.1 0-.1 0 0 0-.4 0-.5-.2-.4-.7v-4.4c0-.1 0-.2-.1-.2 0 0-.1-.1-.2-.1s-.2.1-.3.2c-.2.2-.6.5-.9.6-.1 0-.3.1-.3.3 0 .1.1.2.3.2h.1c.1 0 .2 0 .2.1 0 0 .1.2.1.7v2.6c0 .5 0 .7-.4.7h-.1c-.1 0-.4 0-.4.3 0 .1.1.3.3.3h2.1c.2 0 .3-.1.3-.3 0-.2-.2-.2-.3-.3z"/></g><path class="st1" d="M114.1 25.5c0-.1-.1-.2-.2-.2s-.1.1-.2.1c-.1.1-.3.3-.6.3-.1 0-.2 0-.3-.1-.2-.2-.2-.8-.2-1.2v-3.2-.1h.9c.1 0 .2 0 .3-.1.1-.1.1-.2.1-.3 0-.1 0-.3-.2-.3h-1.1-.1v-1c0-.3-.2-.3-.2-.3-.1 0-.2.1-.2.2-.2.6-.6.9-1 1.2-.1.1-.2.1-.2.3 0 .1 0 .1.1.2s.2.1.4.1h.2v3.6c0 .5 0 1.1.3 1.5.2.3.5.4.9.4s.8-.2 1.1-.5c.1-.2.2-.4.2-.6zM120.1 20.6h-1.8c-.2 0-.3.1-.3.3 0 .2.3.2.4.2.3 0 .5.1.5.3 0 .1-.1.3-.1.5 0 0-.8 2.2-1.1 3-.3-.8-1.1-3.1-1.1-3.1-.1-.1-.1-.3-.1-.4 0-.2.4-.2.4-.2.3 0 .4-.1.4-.2 0-.2-.1-.3-.3-.3h-2.2c-.2 0-.3.1-.3.3 0 .2.3.2.4.2.3 0 .4.3.5.7l.1.1 1.5 3.9s0 .1.1.1c0 .1.1.3.1.4 0 .1 0 .2-.1.3v.1l-.4 1v.1c-.1.2-.1.3-.2.3h-.5c-.5 0-.5.4-.5.6 0 .2 0 .3.1.4.2.2.4.2.6.2.5 0 .6-.1.7-.6l2.3-6c.1-.3.4-1 .6-1.3.1-.1.3-.2.4-.2h.1c.1 0 .3 0 .3-.2-.2-.4-.3-.5-.5-.5z"/><g><path class="st1" d="M141.8 17.8H123v14.3c.3 3.4 3.7 9 9.3 10.8h.6c5.6-1.7 9-7.4 9.3-10.8V17.7h-.4zm-.1.5V31.9c-.3 3.3-3.6 8.7-9 10.4h-.2c-5.4-1.7-8.7-7.1-9-10.4V18.2h18.2v.1z"/><path class="st1" d="M132 24.8c0 .1-.9.1-1.1.3-.2.2-.2.5 0 .7 0 0 .1-.3.4-.3.3 0 .9.4 1 .7-.1 0-1.4.1-1.6 0-.1-.1-.2-.2-.2-.3 0 0-.1.3.1.4.2.1.2.1.3.1h1.5c0 .1 0 .3-.3.4h-1s0 .3.4.1c.1 0 .4-.1.4 0 .1.1.2.4-.4.5 0 0 .9.1 1-.7 0 0 .1.6.2.6.2 0 .2-.6.2-.6.3.8 1.1.9 1.1.9-.6-.4-.6-1.6-.6-1.7 0-.6.6-.5.6-.9.1-.5-.5-.4-.5-.4s.2 0 .3.1c.1.3-.4.3-.4.3-.6.2-.8-.2-1-.2-.3-.2-.4-.1-.4 0zm.5.1l.1.2h-.1v.1c0 .1-.1.2-.2.2s-.2-.1-.2-.2v-.1h-.4l.8-.2zM131.8 36.8c.2-.3.3-.5.3-.5-.4.2-1 0-1 0s0 .2-.5.4c-.8.3-1.7 1.2-.6 2.5 0 0-.5-1.5.3-1.8 0 0 .6.6 1.5-.6zM129.1 27.4s-.5 0-.8.2c0 0 .3.5.5.6 0 0-.6.3-.7.5 0 0 .4.3.9.4 0 0-.5.3-.7.6 0 0 .4.3.9.2 0 0-.6.4-.6.8 0 0 .6.2 1-.3 0 0-.4.6-.1 1 .1.1.2.3.2.3.3-.2.4-.2.4-.6v-.6-.6s-.7-.1-.6-1.4c0 0 1 .7 1.1-.2.1-1.1-1.6-.5-1.5-2.7.1-.2-.7 1.3 0 1.8z"/><path class="st1" d="M129.2 32.5s-.1 1.3-1.4 1.8c2.3-.1 2.8-1.8 2.8-1.8-.2-.3-.3-.5-.3-.5v-.1c-.2.2-.7.4-.7.4l-.4-.4c-.2-.3-.3-.6-.3-.6-.4 0-.8-.3-.8-.3 0-.4.1-.7.1-.7-.3-.1-.6-.4-.6-.4.2-.4.3-.5.3-.5-.5-.3-.5-.6-.5-.6.1-.3.5-.6.5-.6-.2-.2-.3-.7-.3-.7.3-.3.6-.4.6-.4v-.6s-2.7-1.4-3-2.3c0 0-.1.8-.1 1.3s.8 1.2 2.5 2.4c-1.1-.2-2.5-.7-2.8-1.3 0 0 0 .8.2 1.3.1.4.9.7 2.6 1.5-.8.5-2.3-.1-2.7-.5 0 0 .2.7.5 1.2.2.3.9.7 2.5.5-.6.8-1.8 1.3-2.5 1 0 0 .1.7.6.9.4.2 1.1.3 2.3-.7-.7 1.8-2.5 1.2-2.5 1.2s.4.7.9 1c.3.2 1.2 0 2.5-1.5z"/><path class="st1" d="M131.4 34c-.1-.4-.6-1-.6-1.1 0 0 0 .1-.3.5-.6 1-1.2.9-1.2.9.5.3 1.3-.1 1.3-.1l-.1.3c-.2.5.1 1.1.1 1.1-.1-.8.8-1.6.8-1.6zM130.8 32.9z"/><path class="st1" d="M129.9 36c-.1-.3-.3-.2-.4-.1-.1.1-.3 0-.3 0-.1-.1-.1-.2 0-.2.7-.3.9-.7.9-.7-.3 0-.6-.1-.6-.1s-.6.9-1.1.6c-.2-.1-.2-.3-.2-.5 0-.3-.3-.4-.4-.2-.1.2 0 .4.2.4.1 0 .2.2.2.2-.1.1-.1.1-.2.1s-.5-.1-.6.2c-.1.4.3.5.5.3.3-.2.7-.2.8-.1 0 .1.1.2-.3.5-.1.1-.7.5-.3.8.1.1.5.1.6-.5.1-.4.2-.6.3-.7.1 0 .3-.1.4 0l.1.1c.2.3.4.2.4-.1zM127.4 34.8c0-.1.1-.2.1-.2-.5-.2-.6.3-.6.3.3-.3.5-.1.5-.1zM126.9 35.8c-.5.4-.1.8-.1.8-.2-.4.1-.5.1-.5v-.3zM127.8 37.5c-.2-.1-.2-.3-.2-.3-.3.6.3.8.3.8-.4-.3-.1-.5-.1-.5zM130.1 36.1c0-.1 0-.1 0 0 0 0 0 .1-.1.2h.1c.1 0 .2.1.1.3 0 0 .3-.3-.1-.5zM135.1 36c-.4.2-.1.6-.1.6 0-.2 0-.3.1-.3h.1c-.1-.2 0-.3-.1-.3.1 0 .1 0 0 0zM133.8 27.9c-.2 0-.7-.1-.8-.3 0 0-.1.2-.3.2-.2-.1-.3-.2-.3-.2-.2.2-.6.3-.8.3-.5 1.4-1.7 2.3-.6 4.2 1.1 2 1.9 2.2.4 3.6 0 0 1 .3 1.2-.6 0 0 0 .9.2 1.2.2-.3.2-1.2.2-1.2.2.9 1.2.6 1.2.6-1.6-1.4-.7-1.6.4-3.6.9-2-.3-2.8-.8-4.2zm.3 2.9s0 .1-.1.1c-.2.2-.4.3-.6.2-.1 0-.2-.1-.2-.1h-.1v.6l.1-.1.1.1s.1.1.1.2c.1.2 0 .5-.2.6 0 0-.1 0-.1.1s-.1.3-.4.4h-.2c-.3-.1-.3-.3-.4-.4 0 0-.1 0-.1-.1-.2-.2-.3-.4-.2-.6 0-.1.1-.2.1-.2l.1-.1.1.1V31l-.1.1s-.1.1-.2.1c-.2.1-.5 0-.6-.2 0 0 0-.1-.1-.1s-.3-.1-.4-.4v-.2c.1-.3.3-.3.4-.4 0 0 0-.1.1-.1.2-.2.4-.3.6-.2.1 0 .1.1.2.1v-.1s-.1-.1-.1-.2c-.1-.2 0-.5.2-.6 0 0 .1 0 .1-.1s.1-.3.4-.4h.2c.3.1.3.3.4.4 0 0 .1 0 .1.1.2.2.3.4.2.6 0 .1-.1.2-.1.2v.1s.1 0 .1-.1c.2-.1.5 0 .6.2 0 0 0 .1.1.1s.3.1.4.4v.2c-.2.1-.4.2-.5.3zM134.7 36.7c-.6-.2-.5-.4-.5-.4s-.6.2-1 0c0 0 .1.3.3.5.9 1.2 1.6.6 1.6.6.7.3.3 1.8.3 1.8 1-1.3.1-2.2-.7-2.5zM135.8 28.4c.2 1.3-.6 1.4-.6 1.4V31c0 .4.1.4.4.6 0 0 .1-.1.2-.3.2-.4-.1-1-.1-1 .4.5 1 .3 1 .3 0-.4-.6-.8-.6-.8.5.1.9-.2.9-.2-.1-.3-.7-.6-.7-.6.5 0 .9-.4.9-.4-.2-.2-.7-.5-.7-.5.3-.2.5-.6.5-.6-.4-.2-.8-.2-.8-.2.7-.5-.1-2-.1-2 .1 2.2-1.6 1.6-1.5 2.7.2 1.1 1.2.4 1.2.4z"/><path class="st1" d="M137.6 27.4s-.2.5-.3.7c0 0 .4.3.5.6 0 0 0 .2-.5.6 0 0 .1.1.3.5 0 0-.3.3-.6.4 0 0 .1.3.1.7 0 0-.4.3-.8.3 0 0 0 .2-.3.6l-.4.4s-.6-.2-.7-.4v.1s0 .2-.3.5c0 0 .4 1.8 2.8 1.8-1.3-.4-1.4-1.8-1.4-1.8 1.4 1.5 2.2 1.7 2.6 1.4.5-.2.9-1 .9-1s-1.7.5-2.5-1.2c1.2.9 1.9.8 2.3.7.5-.2.6-.9.6-.9-.8.4-1.9-.2-2.5-1 1.6.2 2.3-.2 2.5-.5.3-.4.5-1.2.5-1.2-.4.4-1.9.9-2.7.5 1.7-.8 2.4-1.1 2.6-1.5.2-.5.2-1.3.2-1.3-.3.6-1.8 1.1-2.8 1.3 1.7-1.2 2.4-1.9 2.5-2.4.1-.5-.1-1.3-.1-1.3-.3.9-3 2.3-3 2.3v.6c-.1.1.2.2.5.5z"/><path class="st1" d="M135.9 34.3s-.6.1-1.2-.9c-.2-.4-.3-.5-.3-.5 0 .1-.5.7-.6 1.1 0 0 .9.8.7 1.6 0 0 .3-.6.1-1.1l-.1-.3s.9.4 1.4.1zM134.5 32.9zM137.5 35.6c-.1 0-.2 0-.2-.1-.1-.1.1-.2.2-.2.2-.1.3-.2.2-.4-.2-.2-.4-.1-.4.2 0 .1-.1.4-.2.5-.5.2-1.1-.6-1.1-.6s-.3.1-.6.1c0 0 .1.4.9.7.2.1.1.2 0 .2h-.3c-.2-.1-.4-.1-.4.1-.1.2.2.4.4.3l.1-.1c.1-.1.4 0 .4 0 .1.1.3.3.3.7.1.5.5.6.6.5.4-.4-.2-.8-.3-.8-.4-.3-.3-.4-.3-.5.1-.2.5-.2.8.1.2.2.7 0 .5-.3-.1-.6-.5-.4-.6-.4zM137.7 34.6s.1.1.1.2c0 0 .3-.2.4.1.1 0 .1-.5-.5-.3zM138.4 35.8s.1.1-.1.3c0 0 .3.1.1.5 0 .1.5-.4 0-.8zM137.5 37.5s.3.2-.1.5c0 0 .6-.3.3-.8 0 0 0 .2-.2.3zM134.8 38.1c-1.3.1-1.9-1.3-1.9-1.3-.1.1-.2.1-.2.1-.1 0-.1 0-.2-.1 0 0-.6 1.4-1.9 1.3 0 0 .1.3.6.3 0 0-.9.4-.4.9.3.3.6-.5.6-.5s0 .7.7.7c0 0-.9-.5 0-1.8-.1.9.2 1.7.6 1.7.4 0 .7-.8.6-1.7 1 1.3 0 1.8 0 1.8.6 0 .7-.7.7-.7s.3.8.6.5c.5-.4-.4-.9-.4-.9.5 0 .6-.3.6-.3zM133.8 30.2V30c-.1-.1-.2-.1-.3-.1v.1s0 .1-.1.2h-.7v-.7-.2c.1-.1.1-.1.2-.1h.1c0-.1 0-.2-.1-.3-.1-.1-.2 0-.2 0 0-.2-.1-.3-.1-.3s-.2.1-.1.3h-.2c-.1.1-.1.2-.1.3h.1s.1 0 .2.1V30.2h-.5-.2c-.1-.1-.1-.1-.1-.2v-.1c-.1 0-.2 0-.3.1-.1.1 0 .2 0 .2-.2 0-.3.1-.3.1s.1.2.3.1v.2c.1.1.2.1.3.1v-.1s0-.1.1-.2h.7v1.4c-.1.1-.1.1-.2.1h-.1c0 .1 0 .2.1.3.1.1.2 0 .2 0 0 .2.1.3.1.3s.2-.1.1-.3h.2c.1-.1.1-.2.1-.3h-.1s-.1 0-.2-.1v-.2-1.2h.7c.1.1.1.1.1.2v.1c.1 0 .2 0 .3-.1.1-.1 0-.2 0-.2.2 0 .3-.1.3-.1s-.1-.2-.3-.1zM123.8 23.6h17.4v-5h-17.4v5zm13.1-3.2l.5.1.1-.2.3.4-.1-.9.3.2.3-.6.3.6.3-.2-.1.9.3-.4.1.2.5-.1-.1.5.2.1-.8.7.2.2-.8-.1s-.1.2-.1.6c0 .2.1.3.2.3h-.5c.1 0 .2-.1.2-.3 0-.3-.1-.6-.1-.6l-.8.1.2-.2-.8-.7.2-.1v-.5zm-7.4-.4h.5v-.4h.4s.5 0 .8-.1c.3-.1 1-.4 1.3.1.3-.5 1.1-.2 1.3-.1.3.1.8.1.8.1h.4v.4h.5v2.9H133s-.2-.4-.6-.4c-.4 0-.5.4-.5.4h-2.5V20zm-4.3.4l.5.1.1-.2.3.4-.1-.9.3.2.3-.6.4.6.3-.2-.1.9.3-.4.1.2.5-.1-.1.6.2.1-.8.7.2.2-.8-.1s-.1.2-.1.6c0 .2.1.3.2.3h-.5c.1 0 .2-.1.2-.3 0-.3-.1-.6-.1-.6l-.8.1.2-.2-.8-.7.2-.1-.1-.6z"/><path class="st1" d="M132.4 19.8c-.2-.3-.7-.2-1 0-.3.1-.9.1-.9.1h-.1v.1h2.1l-.1-.2z"/><path class="st1" d="M130.3 22.2h.6c.1 0 .2-.1.4-.1.3-.1.8-.3 1.1-.2V20h-2.1v2.2zM134.8 19.8c-.1 0-.7 0-1-.1-.4-.1-.8-.3-1 0v.2h2.1l-.1-.1zM132.8 21.9c.3-.1.8.1 1.1.2.1 0 .3.1.4.1h.6V20h-2.1v1.9z"/></g></svg>