<svg id="mcmaster-logo" xmlns="http://www.w3.org/2000/svg" viewBox="0 0 527.6 155.4"><g id="letters"><path class="st0" d="M45.2 65.4H45c-.8 0-1.4-.1-1.9-.7-.6-.8-.6-3.3-.5-4.3V31.5c0-1.1-.1-3.1.4-3.8.2-.2 1-.1 1.7-.1h.4c1.9 0 2-1.3 2-1.7 0-.5-.1-.8-.4-1.1-.4-.4-1-.3-1.5-.3h-7c-.7 0-1.7 0-2.2 1.3L24.2 56.2l-9.7-27.3c-.4-1.2-.6-1.7-.7-1.9 0-.1-.1-.3-.1-.4v-.1c-.3-.9-.6-2-2-2H4.4c-.4 0-1.1-.1-1.5.3-.3.3-.4.6-.4 1.1 0 .4.1 1.7 2 1.7 1.3 0 2.1.1 2.4.4.3.4.3 1.3.2 2.9 0 .3-1.9 29.7-1.9 29.8-.2 3.5-.4 4.7-3.1 4.7-1.9 0-2.1 1-2.1 1.5s.2 1.4 1.5 1.4c.9 0 1.8-.1 2.7-.1.9-.1 1.8-.1 2.7-.1s1.8.1 2.7.1c.9.1 1.8.1 2.7.1.5 0 1.9 0 1.9-1.4 0-.4-.1-.7-.4-.9-.5-.5-1.4-.5-1.9-.5h-.1c-1.2 0-2-.3-2.5-.8-1.1-1.1-1-3.4-.9-6.3l1.6-26L20.9 64c.2.6.3.8.4 1v.1c.1.5.4 1.7 1.4 1.7.9 0 1.2-.9 1.4-1.4 0-.1 0-.1.1-.2l12.5-33.5v28.9c0 1.2 0 3.3-.7 4-.5.5-1.7.8-2.4.8h-.2c-.5 0-1.3 0-1.9.5-.3.3-.4.6-.4 1 0 .5.2 1.4 1.7 1.4 1.2 0 2.4-.1 3.5-.1 1.2-.1 2.4-.1 3.6-.1 1 0 1.9.1 2.9.1.9.1 1.9.1 2.9.1 1.5 0 1.7-.9 1.7-1.4 0-.4-.1-.7-.4-1-.4-.5-1.3-.5-1.8-.5z"/><path class="st0" d="M60.2 69.1c3.6 0 6.9-1.2 9.6-3.6 1.8-1.7 2.1-2.5 2.1-2.9 0-.6-.5-1.1-1-1.1s-.9.4-1.3.9c0 .1-.1.1-.1.1-1.8 1.9-4.1 2.9-6.9 2.9-7 0-11.3-7.2-11.3-13.9 0-4.2 1.6-8.3 4.4-10.9 1.4-1.4 3.9-2.7 6-2.7 2.8 0 4.3 2.7 5.6 4.9.9 1.6 1.6 2.8 2.7 2.8.3 0 .6-.1.8-.4.6-.7.6-2.1.5-3.5v-.9c.1-1 .1-2.3-.8-2.9-2.2-1.7-5.7-2.4-8.1-2.4-9.2 0-17 8-17 17.5.2 8.6 6.9 16.1 14.8 16.1z"/><path class="st0" d="M95.5 65.2c0-.1 0-.1 0 0l12.7-33.5v28.9c0 1.2 0 3.3-.7 4-.5.5-1.7.8-2.4.8h-.2c-.5 0-1.3 0-1.9.5-.3.3-.4.6-.4 1 0 .5.2 1.4 1.7 1.4 1.2 0 2.4-.1 3.5-.1 1.2-.1 2.4-.1 3.6-.1 1 0 1.9.1 2.9.1.9.1 1.9.1 2.9.1 1.5 0 1.7-.9 1.7-1.4 0-.4-.1-.7-.4-1-.5-.5-1.3-.5-1.9-.5h-.2c-.8 0-1.4-.1-1.9-.7-.6-.8-.6-3.3-.5-4.3V31.5c0-1.1-.1-3.1.4-3.8.3-.4 1.1-.4 1.7-.3h.4c1.9 0 2-1.3 2-1.7 0-.5-.1-.8-.4-1.1-.4-.4-1.1-.4-1.6-.3h-7c-.7 0-1.7 0-2.2 1.3L95.7 56.2 85.7 28c-.2-.6-.3-.9-.4-1 0-.2-.1-.3-.1-.5-.3-.9-.6-2-2-2h-7.3c-.5 0-1.1-.1-1.6.3-.2.3-.3.6-.3 1.1 0 .4.1 1.7 2 1.7 1.3 0 2.1.1 2.4.4.3.4.3 1.3.2 2.9-1.8 29.6-1.9 29.8-1.9 29.8-.2 3.5-.4 4.7-3.1 4.7-1.9 0-2.1 1-2.1 1.5s.2 1.4 1.5 1.4c.9 0 1.8-.1 2.7-.1.9-.1 1.8-.1 2.7-.1.9 0 1.8.1 2.7.1.9.1 1.8.1 2.7.1.5 0 1.9 0 1.9-1.4 0-.4-.1-.7-.4-.9-.5-.5-1.4-.5-1.9-.5h-.1c-1.2 0-2-.3-2.5-.8-1.1-1.1-1-3.4-.9-6.3l1.6-25.9 10.8 31.4c.2.7.4 1 .4 1.2v.1c.1.5.4 1.7 1.4 1.7.9-.2 1.2-1.1 1.4-1.7z"/><path class="st0" d="M135.3 64.8c.6 1.5 1.6 3.9 4 3.9 1.8 0 3.6-1.2 4.9-2.2l.1-.1c.6-.5 1.6-1.5 1.6-2.5 0-.6-.5-1.1-1-1.1s-.8.4-1.1.7c-.4.5-1 1-1.7 1-.3 0-.5-.1-.7-.3-.9-.9-.9-3.5-.9-4.6V42.2c0-1.7.1-3.4-1.4-4.8-1.3-1.3-3.4-2-6.2-2-4.1 0-8.7 1.9-11.8 5-1.3 1.2-2.8 3.4-2.8 5.4 0 .9.5 1.4 1.4 1.4s2.3-.6 2.9-1c1.1-.5 1.5-1.5 1.9-2.5l.1-.3c1.6-3.9 3.6-5.5 6.8-5.5s3.5 1.8 3.5 5.7v3.1c0 2.4 0 2.4-2.1 3.4 0 0-1.7.9-3 1.6-1 .5-1.9 1-1.9 1l-.4.2c-3.7 2-9.2 5-9.2 10.1 0 4 3.3 6.1 6.5 6.1 4.4 0 7.9-3.2 9.6-4.7.2-.2.4-.4.6-.5.1.2.2.6.3.9zm-6.5-9.7c.1-.1.4-.2.9-.5l4.9-2.7c.1 0 .2-.1.3-.1h.1c0 .2.1.5 0 1.1v4.4c0 2.2-.1 3.3-1.4 4.9-1.5 1.6-3.5 2.6-5.5 2.6-1.8 0-3.8-.9-3.8-3.6-.2-3.1 2-4.8 4.5-6.1zm30.6-6.9c-3.5-1.3-6.6-2.5-6.6-5.9 0-3 3.1-4.6 5.3-4.6 4.2 0 5.3 2.7 6 4.6.4 1.1.8 2 1.7 2 .3 0 .6-.1.8-.3.6-.7.5-2.1.4-3.4v-.9c.1-1 .2-2.4-1.1-3-1.6-.7-5.1-1.2-6.8-1.2-3.2 0-5.8.8-7.8 2.4-2.3 1.9-3.6 4.3-3.6 7 0 5.8 5.5 7.8 9.5 9.2.3.1.5.2.6.2 2.8 1 5.7 2.4 5.7 6.2 0 4.1-3.7 6.3-7.2 6.3-5.2 0-6-3.8-6.5-6.6-.3-1.6-.6-3-1.8-3s-1.3 1.4-1.4 2v.1s0 .6-.2 3.8v1.3c0 1 0 2.1 1.2 2.7 2.3 1.3 6.2 2.2 8.3 2.2 5.2 0 12.6-3.4 12.6-10.8.2-6.8-4.7-8.7-9.1-10.3zm26 14.6c-.4 0-.7.3-1.2.7-.8.7-2 1.7-3.4 1.7-.7 0-1.3-.2-1.8-.7-1.4-1.4-1.4-4.7-1.4-6.8v-18c0-.7.1-.9.2-.9.1-.1.5-.1.9-.1h4.9c.6 0 1.1.1 1.4-.3.4-.3.4-.9.4-1.4s0-1.5-1.1-1.5H178c-.4 0-.5 0-.5-.8v-5c0-1.2-.7-1.4-1.1-1.4-.7 0-1 .7-1.2 1-1.4 3.2-3.1 4.9-5.9 6.9l-.1.1c-.3.3-.8.7-.8 1.3 0 .3.1.6.3.8.5.4 1.3.4 2 .4h1.1c0 .1.1.2.1.7v19.1c0 2.7-.1 5.9 1.5 8.1 1.1 1.5 3 2.4 5 2.4 2.3 0 4.5-1 6.3-2.8.4-.3 1.5-1.4 1.5-2.4.2-.5-.2-1.1-.8-1.1z"/><path class="st0" d="M193.3 49.1h19.5c.3 0 1.3-.1 1.3-1.8 0-2.4-1-5.5-2.3-7.4-2.1-2.9-5.6-4.6-9.6-4.6-4.4 0-8.5 1.7-11.8 4.8-3.2 3.1-4.7 6.9-4.7 12.1 0 9.4 6.6 16.7 14.9 16.7 4.2 0 7.4-1.3 10.4-4.1 1.8-1.7 2.6-2.8 2.6-3.5 0-.6-.5-1.1-1.1-1.1-.5 0-.8.3-1.4 1-1.3 1.3-3.6 3.6-7.9 3.6-7.7 0-11.7-7.1-11.7-14.1 0-.8.1-1.3.2-1.4.4-.2.9-.2 1.6-.2zm.3-6.9c1.8-2.8 4.7-4.4 7.7-4.4 1.5 0 3.7.3 5.1 2 .9 1.1 1.5 2.6 1.5 3.8 0 1.2-.6 1.9-1.9 2.2-1.8.5-5.3.5-7.2.5h-5.5c-.4 0-1 0-1.2-.1 0 0-.1-.1-.1-.2.1-1 1.1-3 1.6-3.8zm38.4-6.5c-3.4 0-5.7 3.1-7 4.8-.1.1-.2.2-.2.3V37c0-.3 0-.9-.3-1.2-.1-.1-.4-.3-.8-.3-.7 0-1.1.5-1.4.9l.1.1-.1-.1-.2.2c-1 1.3-3.6 3-5 3.5-.1 0-.2.1-.2.1-.6.2-1.6.5-1.6 1.6 0 .7.5 1.1 1.3 1.1h.8c.7 0 1.2.1 1.4.4.3.4.5 1.7.5 3.9v14.6c.1 2.6 0 3.8-2.4 4h-.3c-.6 0-2 .1-2 1.5 0 .8.6 1.3 1.5 1.3 1 0 2-.1 3-.1 1-.1 2-.1 3-.1.9 0 1.9 0 2.8.1 1 .1 2 .1 3.1.1.8 0 1.3-.5 1.3-1.3 0-1.3-1.4-1.4-2-1.5h-.3c-2.3-.2-2.4-1.4-2.4-4V49.1c0-2.6 0-4.3 1.3-6.4.7-.9 1.6-2.3 2.8-2.3.5 0 .8.4 1.4 1 .6.7 1.3 1.7 2.7 1.7 1.9 0 3.2-1.4 3.2-3.4.2-2.3-1.6-4-4-4zM24.6 75.5c-.5 0-1 0-1.5.1-.5 0-.9.1-1.4.1s-1.1 0-1.6-.1c-.6 0-1.1-.1-1.7-.1-.4 0-.8.1-1 .4-.2.2-.3.5-.3.8 0 .4.2.6.3.7.4.4.9.4 1.2.4h.1c.8 0 1.4 0 1.7.6.3.6.3 2.8.3 3.6v11.6c0 1.9 0 3.6-1.2 4.9-1.6 1.8-4.1 2-5.5 2-1 0-4.3-.2-5.4-2.4-.7-1.3-.7-3.9-.7-5.6V80.1c0-1 0-1.7.2-2 .2-.2.7-.3 1.6-.3 1.3 0 1.5-.6 1.5-1.1 0-.7-.5-1.1-1.2-1.1s-1.4 0-2.1.1c-.7 0-1.4.1-2.1.1s-1.3 0-2-.1c-.6 0-1.4-.1-2.1-.1-.4 0-.7.1-.9.3s-.3.5-.3.8c0 .5.3 1.1 1.5 1.1.9 0 1.4.1 1.6.3.3.3.3 1 .2 2v13.6c0 2.7 0 5.2 2.4 7 2.1 1.7 5.4 2 7.2 2 3.3 0 5.7-.8 7.3-2.3 2.2-2.1 2.2-4.3 2.2-6.9V79.9c0-1.7.1-2.2 1.3-2.2 1.4 0 1.7-.6 1.7-1.1 0-.2-.1-1.1-1.3-1.1zm20.5 24.7h-.2c-1.1-.1-1.2-.5-1.2-2.1v-7.5c0-1.9 0-3.9-1.2-5.6-1.1-1.6-2.7-2.4-4.8-2.4-2.6 0-4.4 1.7-5.5 2.7v-1.6c0-.3 0-.6-.3-.9-.1-.1-.3-.2-.6-.2-.5 0-.8.4-1 .6 0 0-.1.1-.1.2-.5.7-2 1.7-2.8 1.9h-.1c-.4.1-1.1.4-1.1 1.2 0 .5.4.9 1 .9h.5c.4 0 .6.1.6.1.1.1.2.4.2 2.1v8.5c0 1.6-.1 2-1.2 2.1h-.2c-.3 0-1.4.1-1.4 1.1 0 .5.3 1 1.1 1 .6 0 1.2 0 1.8-.1.6 0 1.1-.1 1.7-.1.5 0 1.1 0 1.6.1.6 0 1.2.1 1.8.1s1-.4 1-1c0-1-1-1.1-1.4-1.1h-.1c-1.1-.1-1.2-.5-1.2-2.1v-7.6c0-1.6.1-2.3 1-3.4.9-1 2-1.6 3.2-1.6 1.3 0 2.4.6 3 1.6s.6 2.5.6 3.8v7.2c0 1.6-.1 2-1.2 2.1h-.2c-.3 0-1.4.1-1.4 1.1 0 .5.3 1 1.1 1 .6 0 1.2 0 1.7-.1.6 0 1.1-.1 1.7-.1.5 0 1.1 0 1.6.1.6 0 1.2.1 1.8.1s1-.4 1-1c.6-1-.5-1.1-.8-1.1zm10.5 0h-.2c-1.1-.1-1.2-.5-1.2-2.1V83.7c0-.2 0-.6-.3-.9-.1-.1-.3-.2-.6-.2-.5 0-.8.4-1 .6l-.1.1c-.5.7-2 1.7-2.8 1.9h-.1c-.4.1-1.1.4-1.1 1.2 0 .5.4.9 1 .9h.5c.4 0 .6.1.6.1.1.1.2.4.2 2.1V98c0 1.6-.1 2-1.2 2.1h-.2c-.3 0-1.4.1-1.4 1.1 0 .5.3 1 1.1 1 .6 0 1.2 0 1.8-.1.6 0 1.1-.1 1.7-.1.5 0 1.1 0 1.6.1.6 0 1.2.1 1.8.1s1-.4 1-1c.3-.9-.7-1-1.1-1zm-5.3-22.6c0 1.5.9 2.5 2.1 2.5 1.3 0 2.2-1 2.2-2.6 0-1.2-.8-2.5-2.1-2.5-1.2 0-2.2 1.1-2.2 2.6zm26.2 5.6c-.2-.2-.5-.2-.7-.2h-5.5c-.9 0-1.1.5-1.1.9 0 .7.5 1 1.6 1 .3 0 .9.1.9.5 0 .3-.2.9-.4 1.3 0 .1-.1.2-.1.3-.1.1-.2.5-.5 1.1l-3.3 8.1c-3.2-8.7-3.3-8.9-3.3-8.9l-.1-.1c-.1-.4-.5-1.3-.5-1.7 0-.6.7-.6.8-.6h.1c.3 0 .9 0 1.2-.3.2-.2.3-.4.3-.6 0-.3-.1-.6-.3-.7-.3-.3-.7-.3-.9-.3h-6.8c-.2 0-.5 0-.8.2 0 .3-.1.5-.1.8s.1.6.3.8c.2.2.5.2.9.2 1.1.1 1.2.4 1.7 1.7l.1.3c2 5.4 5.3 14.3 5.3 14.4l.2.5c.1.5.5.8.9.8.6 0 .9-.7 1.1-1.1v-.1l-.1-.1h.1s5.2-12.6 5.3-12.7c.1-.2.2-.4.2-.6.5-1.4 1.1-2.9 2.3-3.1h.1c.3 0 1.3-.1 1.3-1.1.1-.1.1-.4-.2-.7zm4.8 7.8h11.3c.2 0 1-.1 1-1.3 0-1.5-.6-3.3-1.4-4.4-1.3-1.8-3.4-2.8-5.7-2.8-2.6 0-5.1 1-7 2.9-1.9 1.9-2.8 4.1-2.8 7.2 0 5.6 3.9 10 8.9 10 2.5 0 4.4-.8 6.2-2.5 1.4-1.3 1.6-1.9 1.6-2.2 0-.5-.4-.9-.9-.9-.4 0-.6.3-1 .6-.7.7-2 2-4.4 2-4.3 0-6.6-4-6.6-8 0-.5.1-.7.1-.7.1.1.5.1.7.1zm4.7-6.6c.8 0 2 .2 2.8 1.1.5.6.8 1.4.8 2s-.3.9-.9 1.1c-1 .3-3 .3-4.1.3h-3.7c0-.5.5-1.6.8-2 1-1.6 2.6-2.5 4.3-2.5zm19.7-1.6c-1.9 0-3.2 1.5-3.9 2.5v-1.6c0-.2 0-.6-.3-.9-.1-.1-.3-.2-.6-.2-.5 0-.8.4-1 .6 0 0-.1.1-.1.2-.5.7-2 1.7-2.8 1.9h-.1c-.4.1-1.1.4-1.1 1.2 0 .5.4.9 1 .9h.5c.4 0 .6.1.6.1.1.1.2.4.2 2.1v8.5c0 1.6-.1 2-1.2 2.1h-.2c-.3 0-1.4.1-1.4 1.1 0 .5.3 1 1.1 1 .6 0 1.2 0 1.8-.1.6 0 1.1-.1 1.7-.1.5 0 1.1 0 1.6.1.6 0 1.2.1 1.8.1.6 0 1-.4 1-1 0-1-1-1.1-1.4-1.1h-.1c-1.1-.1-1.2-.5-1.2-2.1v-7.3c0-1.5 0-2.4.7-3.6.4-.5.9-1.2 1.4-1.2.2 0 .3.1.6.5s.8 1.1 1.8 1.1c1.2 0 2.1-.9 2.1-2.2.1-1.5-1-2.6-2.5-2.6zm11.5 7.2c-2-.7-3.7-1.4-3.7-3.2 0-1.6 1.7-2.5 2.8-2.5 2.3 0 2.9 1.4 3.3 2.5.3.6.5 1.3 1.2 1.3.2 0 .5-.1.6-.3.4-.5.4-1.3.3-2.2v-.5c0-.6.1-1.6-.8-2-1-.5-3-.7-4-.7-1.9 0-3.5.5-4.7 1.5-1.4 1.1-2.2 2.6-2.2 4.2 0 3.6 3.3 4.7 5.7 5.6l.3.1c2 .7 3.2 1.5 3.2 3.4 0 2.2-2 3.4-3.9 3.4-2.8 0-3.2-1.9-3.5-3.6-.2-1-.4-2-1.3-2s-1 1-1 1.3v.1l-.1 2.8v.2c0 .6 0 1.4.8 1.8 1.4.8 3.7 1.3 5 1.3 3.7 0 7.6-2.4 7.6-6.5 0-3.9-3-5-5.6-6zm14.6-12.5c0-1.2-.8-2.5-2.1-2.5-1.2 0-2.2 1.1-2.2 2.6s.9 2.5 2.1 2.5c1.4 0 2.2-1 2.2-2.6zm1 22.7h-.2c-1.1-.1-1.2-.5-1.2-2.1V83.7c0-.3 0-.6-.3-.9-.1-.1-.3-.2-.6-.2-.5 0-.8.4-1 .6 0 0-.1.1-.1.2-.5.7-2 1.7-2.8 1.9h-.1c-.4.1-1.1.4-1.1 1.2 0 .5.4.9 1 .9h.5c.4 0 .6.1.6.1.1.1.2.4.2 2.1v8.5c0 1.6-.1 2-1.2 2.1h-.2c-.3 0-1.4.1-1.4 1.1 0 .5.3 1 1.1 1 .6 0 1.2 0 1.8-.1.6 0 1.1-.1 1.7-.1.5 0 1.1 0 1.6.1.6 0 1.2.1 1.8.1s1-.4 1-1c.3-1-.7-1.1-1.1-1.1zm11.6-1.7c-.3 0-.5.2-.9.5-.4.4-1.1 1-1.8 1-.4 0-.6-.1-.9-.3-.7-.7-.7-2.6-.7-3.8v-11h3.3c.4 0 .7 0 1-.2.3-.3.3-.6.3-1 0-.8-.3-1.1-.9-1.1h-3.7v-3.1c0-1-.7-1.1-.9-1.1-.4 0-.7.2-.9.7-.8 1.8-1.8 2.8-3.3 3.9l-.1.1c-.2.2-.6.5-.6 1 0 .2.1.5.3.6.4.3.9.3 1.4.3h.4v11.4c0 1.6 0 3.5.9 4.8.7.9 1.8 1.5 3.1 1.5 1.4 0 2.7-.6 3.8-1.7.3-.3.9-.9.9-1.6.1-.4-.2-.9-.7-.9zM164.5 83h-5.8c-.6 0-1.1.5-1.1 1.1 0 .9 1 .9 1.4.9 1.4 0 1.4.7 1.4.9 0 .4-.3 1-.4 1.4v.1c0 .1-2.4 6.3-3.6 9.3l-3.6-9.6V87c-.2-.4-.4-1-.4-1.4 0-.7 1.2-.7 1.3-.7 1.2 0 1.5-.5 1.5-.9 0-.7-.5-1.1-1.1-1.1H147c-.7 0-1.3.4-1.3 1.1 0 .9 1.1.9 1.5.9.8 0 1.2.8 1.6 2.1 0 0 .1.3.2.4l4.8 12.7c0 .1.1.3.2.4.1.4.3.8.3 1.1 0 .3-.1.5-.2.8 0 .1-.1.2-.1.2-1 2.5-1.2 3.1-1.2 3.2s-.1.2-.1.2v.1c-.2.4-.3.8-.5.8-.3.1-.8.1-1.2.1h-.3c-1.7 0-1.7 1.6-1.7 2.2s.2 1 .5 1.3c.5.5 1.3.6 2 .6h.2c1.7 0 1.9-.6 2.3-1.9v-.1l6.2-16.4c.8-2.1 1.1-2.8 1.1-3.1.3-.8 1.3-3.3 1.9-4.2.3-.4.9-.7 1.2-.7h.2c.4 0 1.1-.1 1.1-.8-.1-.4-.6-.9-1.2-.9z"/></g><path id="shieldoutline" class="st1" d="M234.8 74.1H174v46.1c1 11 12 29.3 30.2 34.9l.3.1.3.1.3.1.3-.1.3-.1.3-.1c18.2-5.6 29.2-24 30.2-35.2V74.3h-1.4v-.2zm-.5 1.9v44c-.9 10.7-11.6 28.3-29.2 33.8l-.3.1h-.2l-.3-.1c-17.6-5.4-28.3-23.1-29.2-33.7V75.5H234v.5h.3z"/><path id="shield" class="st2" d="M232.9 75.6h-57.6v44.6c.9 10.6 11.6 28.2 29.2 33.7l.3.1h.2l.3-.1c17.6-5.4 28.2-23.1 29.2-33.8V75.7l-1.6-.1zm0 44.5c-.8 9.3-10.5 27-28.2 32.5-17.7-5.5-27.4-23.2-28.2-32.5v-27h56.3l.1 27zm0-27h-56.4V77h56.4v16.1z"/><g id="shieldbg"><path class="st3" d="M204.8 93.1h-28.2v27c.8 9.3 10.5 27 28.2 32.5 17.7-5.5 27.4-23.2 28.2-32.5v-27h-28.2zm11.5 5.9s2.6 4.7.2 6.5c0 0 1.5-.2 2.8.5 0 0-.9 1.6-1.8 2.1 0 0 1.9.9 2.4 1.6 0 0-1.2 1-2.8 1.2 0 0 1.7 1.1 2.2 2 0 0-1.3.9-2.9.6 0 0 1.8 1.2 1.9 2.5 0 0-1.8.5-3.1-1 0 0 1.2 2 .5 3.3-.2.4-.7.8-.7.8-1.1-.6-1.3-.6-1.4-1.8 0-.6.1-.7.1-2 0-1.1-.2-2.1-.2-2.1s2.4-.4 1.8-4.6c0 0-3.2 2.2-3.6-.8-.5-3.6 5-1.7 4.6-8.8zm-2.9 35s-.1 0-.2.1c-.3.1-.5.4-.4 1.1 0 0-1-1.1.4-1.9l.1-.1c0 .1-.2.5.1.8zm-2-6.5s.3.8.4 1c.7 1.5-.3 3.6-.3 3.6.5-2.8-2.4-5.3-2.4-5.3.4-1.3 1.8-3.3 1.9-3.4 0 .1.1.4.8 1.5 2 3.2 3.8 3 3.8 3-1.7.8-4.2-.4-4.2-.4zm-.6-7.1c-3.6 6.4-6.2 7.3-1.2 11.7 0 0-3.2.9-4-1.9 0 0 .2 3.1-.6 3.9-.8-.8-.6-3.8-.6-3.8-.7 2.8-4 1.9-4 1.9 5-4.4 2.4-5.3-1.2-11.7-3.5-6.2.3-8.9 2-13.5.8-.1 2.1-.4 2.7-1.1 0 0 .3.5 1 .7.7-.2 1.1-.7 1.1-.7.5.6 2 1 2.7 1 1.8 4.6 5.6 7.4 2.1 13.5zm-12.1 11.7s-1-2-.3-3.6c.1-.1.4-1 .4-1s-2.5 1.2-4.2.3c0 0 1.8.2 3.8-3 .7-1.2.8-1.5.8-1.5.1.2 1.5 2.1 1.9 3.4 0 0-3 2.6-2.4 5.4zm-1.9 2.1c-.1 0-.2-.1-.2-.1.2-.3.1-.7.1-.7.1 0 .1.1.1.1 1.4.8.4 1.9.4 1.9.1-.9-.2-1.1-.4-1.2zm1.2-34.3c0 .3.4.9.7 1.1.5.4 4.7.1 5.2.1-.4-.8-2.3-2.3-3.3-2.2-1.1 0-1.4 1.1-1.4 1.1-.5-.5-.6-1.4.1-2.1.6-.6 3.5-.8 3.7-1 .1-.2.3-.6 1-.5s1.3 1.2 3.2.8c0 0 1.5-.1 1.2-1-.1-.4-1-.4-1-.4s1.9-.3 1.7 1.2c-.1 1.1-1.8 1-1.9 2.9 0 .3-.1 4.1 1.9 5.6 0 0-2.5-.2-3.5-2.8 0 0 0 1.9-.6 1.9s-.8-1.9-.8-1.9c-.2 2.5-3.1 2.3-3.1 2.3 2-.3 1.4-1.3 1.2-1.6-.3-.5-1.1-.2-1.4-.2-1.3.4-1.2-.5-1.2-.5h3.3c.9-.1.8-.9.9-1.2-.4 0-4.5.1-4.8.1s-.5 0-1-.3c-.4-.3-.1-1.4-.1-1.4zm-4.2-.9c-.4 7.1 5.1 5.3 4.7 8.9-.4 3-3.6.8-3.6.8-.6 4.2 1.8 4.6 1.8 4.6s-.1 1-.2 2.1c0 1.3.1 1.4.1 2-.1 1.2-.3 1.3-1.4 1.8 0 0-.4-.4-.7-.8-.7-1.3.5-3.3.5-3.3-1.3 1.6-3.1 1-3.1 1 .1-1.3 1.9-2.5 1.9-2.5-1.6.3-2.9-.6-2.9-.6.5-.9 2.2-2 2.2-2-1.7-.1-2.8-1.2-2.8-1.2.5-.7 2.4-1.6 2.4-1.6-.9-.5-1.8-2.1-1.8-2.1 1.3-.7 2.8-.5 2.8-.5-2.5-1.9.1-6.6.1-6.6zm-11.1 24.5s5.7 1.8 8-4c-3.8 3-6.3 2.7-7.4 2.2-1.5-.7-1.8-3-1.8-3 2.5 1.2 6.3-.7 8.3-3.1-5.3.8-7.5-.7-8.1-1.6-.9-1.4-1.7-3.8-1.7-3.8 1.4 1.4 6.2 3 8.9 1.5-5.5-2.7-7.9-3.6-8.4-4.9-.6-1.6-.6-4.2-.6-4.2 1 1.8 5.7 3.7 9.2 4.2-5.6-3.7-7.9-6.2-8-7.7-.2-1.7.2-4.3.2-4.3 1 2.9 9.6 7.5 9.6 7.5 0 .6-.1 1.2.1 1.8 0 0-1 .3-2.1 1.4 0 0 .5 1.5 1.1 2.3 0 0-1.3 1-1.7 1.9 0 0 .1.7 1.5 1.8 0 0-.4.4-1 1.7 0 0 .9.9 1.9 1.4 0 0-.5 1-.4 2.2 0 0 1.2 1.1 2.5 1.1 0 0 .1.8.9 1.8.3.4 1.4 1.3 1.4 1.3s1.9-.7 2.4-1.3l.1.3s.1.6.8 1.6c0 0-1.4 5.7-8.9 5.9 4.3-1.4 4.6-5.7 4.6-5.7-4.4 4.8-7.1 5.4-8.5 4.7-1.6-.7-2.9-3-2.9-3zm3.7 11.9s-1.5-1.4.2-2.8c0 0-.2.4.2 1-.1.1-1.1.5-.4 1.8zm.3-5.7s.2-1.5 1.9-.9c0 0-.4.2-.5.6 0 0-.9-.6-1.4.3zm2 7.6s0 .5.5.9c0 0-.8.7.3 1.7 0 0-2-.8-.8-2.6zm5.6-3.4c-.4-.3-1.2-.1-1.4 0-.5.2-.9.9-1.1 2.2-.3 1.7-1.6 1.9-2 1.5-1.3-1.3.6-2.5.9-2.7 1.1-.9 1-1.4.8-1.6-.3-.5-1.6-.5-2.5.2-.8.7-2.1.2-1.7-1 .3-1 1.7-.5 2-.5.2 0 .5.1.7-.2s-.3-.7-.6-.8c-.5-.2-1-.8-.6-1.3.5-.6 1.4-.2 1.4.7 0 .4.2 1.2.7 1.5 1.6.7 3.7-2 3.7-2s.9.3 2 .2c0 0-.5 1.3-2.8 2.4-.5.3-.4.6-.1.8 0 0 .5.1.8 0 .5-.2 1.2-.4 1.4.4s-.7 1.3-1.4.8c.2-.3-.1-.5-.2-.6zm2.3 9.6c-3.7-4.2-.9-7 1.8-8.1 1.8-.8 1.7-1.3 1.7-1.3s2 .6 3.2-.1c0 0-.3.9-.9 1.8-3 4-5 2-5 2-2.4 1-.8 5.7-.8 5.7zm14.8.3c-1.1.9-2-1.6-2-1.6s-.1 2.3-2.1 2.4c0 0 3-1.8-.1-5.9.3 2.9-.7 5.6-2.1 5.6-1.4 0-2.4-2.7-2.1-5.6-3.1 4.1-.1 5.9-.1 5.9-2 0-2.1-2.4-2.1-2.4s-.9 2.5-2 1.6c-1.7-1.4 1.3-2.8 1.3-2.8-1.7-.1-2-1.1-2-1.1 4.4.5 6.3-4.1 6.3-4.1.3.3.5.3.7.4.2-.1.5-.2.7-.4 0 0 1.9 4.6 6.3 4.1 0 0-.3 1-2 1.1 0 .1 3 1.4 1.3 2.8zm2.1-.3s1.5-4.7-.8-5.8c0 0-2.1 2-5-2-.6-.8-.9-1.8-.9-1.8 1.2.8 3.2.1 3.2.1s-.1.6 1.7 1.3c2.7 1.2 5.5 4.1 1.8 8.2zm7.1-3.6c1.1-1 .3-1.7.3-1.7.6-.5.5-.9.5-.9 1.1 1.8-.8 2.6-.8 2.6zm.4-6.5c-.8-.7-2.1-.7-2.5-.2-.1.2-.3.8.8 1.6.4.3 2.3 1.5.9 2.7-.5.4-1.7.3-2-1.5-.2-1.3-.6-1.9-1.1-2.2-.2-.1-1-.3-1.4 0-.1.1-.4.3-.4.3-.7.5-1.6-.1-1.4-.8.2-.9.9-.7 1.4-.4.4.2.8 0 .8 0 .3-.2.4-.5-.1-.8-2.3-1.1-2.8-2.4-2.8-2.4 1.1.1 2-.2 2-.2s2.1 2.8 3.7 2c.5-.2.7-1.1.7-1.5 0-.8.9-1.3 1.4-.7.5.6-.1 1.1-.6 1.3-.3.1-.7.5-.6.8.2.3.4.2.7.2s1.7-.5 2 .5c.7 1.4-.7 2-1.5 1.3zm1-4c-.1-.4-.5-.6-.5-.6 1.7-.6 1.9.9 1.9.9-.6-.9-1.4-.3-1.4-.3zm1.7 6c.7-1.3-.3-1.7-.3-1.7.4-.6.2-1 .2-1 1.6 1.3.1 2.7.1 2.7zm6.4-25.2s-.8 2.3-1.7 3.8c-.6.9-2.8 2.4-8.1 1.6 2 2.4 5.7 4.3 8.3 3.1 0 0-.3 2.3-1.8 3-1.1.5-3.6.8-7.4-2.2 2.3 5.7 8 4 8 4s-1.3 2.3-2.8 3.1c-1.3.7-4 .1-8.5-4.7 0 0 .3 4.3 4.6 5.7-7.6-.2-8.9-5.9-8.9-5.9.7-1.1.8-1.6.8-1.6l.1-.3c.5.5 2.4 1.3 2.4 1.3s1.1-1 1.4-1.3c.7-1.1.9-1.8.9-1.8 1.3 0 2.5-1.1 2.5-1.1.1-1.2-.4-2.2-.4-2.2.9-.4 1.9-1.4 1.9-1.4-.6-1.3-1-1.7-1-1.7 1.5-1.1 1.5-1.8 1.5-1.8-.4-1-1.7-1.9-1.7-1.9.6-.8 1.1-2.3 1.1-2.3-1.1-1.1-2.1-1.4-2.1-1.4.2-.6.1-1.2.1-1.8 0 0 8.7-4.5 9.6-7.5 0 0 .4 2.6.2 4.3-.1 1.5-2.5 3.9-8 7.7 3.4-.5 8.1-2.4 9.2-4.2 0 0 0 2.7-.6 4.2-.5 1.3-2.9 2.2-8.4 4.9 2.7 1.4 7.4-.2 8.8-1.6z"/><path class="st3" d="M211.1 114.6c-.4-.8-.9-1.1-1.3-1.2-.1-.1-.1-.2-.2-.4-.5-.8-1.4-.9-2.1-.6-.2.1-.4.2-.5.2l.1-.2c.1-.1.2-.3.3-.6.2-.6.1-1.5-.6-2.1-.1-.1-.2-.1-.4-.2-.1-.4-.4-.9-1.2-1.3l-.2-.1-.2.1c-.8.4-1.1.9-1.2 1.3-.1 0-.2.1-.4.2-.8.5-.9 1.4-.6 2.1.1.4.2.5.3.6l.2.2c-.1-.1-.3-.1-.5-.2-.6-.2-1.5-.1-2.1.6-.1.1-.1.2-.2.4-.4.1-.9.4-1.3 1.2l-.1.2.1.2c.4.8.9 1.1 1.3 1.2 0 .1.1.2.2.4.5.8 1.4.9 2.1.6.4-.1.5-.2.6-.3l.2-.2v2.1l-.2-.2-.3.4c-.1.1-.2.3-.3.6-.2.6-.1 1.5.6 2.1.1.1.2.1.4.2.1.4.4.9 1.2 1.3l.2.1.2-.1c.8-.4 1.1-.9 1.2-1.3.1 0 .2-.1.4-.2.8-.5.9-1.4.6-2.1-.1-.4-.2-.5-.3-.6l-.3-.4-.2.2v-2.1l.2.2c.1.1.3.2.6.3.6.2 1.5.1 2.1-.6.1-.1.1-.2.2-.4.4-.1.9-.4 1.3-1.2l.1-.2v-.2zm-1.2.3s-.1 0 0 0c0 .1-.5.7-1.1.5.1.2.1.4-.1.7-.3.4-.7.3-.8.3h-.1l.1-.1s.1-.1.1-.2 0-.3-.3-.5c-.1-.1-.4-.1-.6-.1h-1.5v4c0 .1 0 .5.1.6.2.2.4.3.5.3s.2-.1.2-.1l.1-.1v.1c.1.2.1.6-.3.8-.3.2-.5.1-.7.1.2.6-.5 1.1-.5 1.1s-.6-.5-.5-1.1c-.2.1-.4.1-.7-.1-.4-.3-.3-.7-.3-.8v-.1l.1.1s.1.1.2.1.3 0 .5-.3c.1-.1.1-.4.1-.6v-4h-1.6c-.1 0-.4 0-.6.1-.2.2-.3.4-.2.5 0 .1.1.2.1.2l.1.1h-.1c-.2.1-.6.1-.8-.3-.2-.3-.1-.5-.1-.7-.6.2-1.1-.5-1.1-.5s.5-.6 1.1-.5c-.1-.2-.1-.4.1-.7.3-.4.7-.3.8-.3h.1l-.1.1s-.1.1-.1.2 0 .3.2.5c.1.1.5.1.6.1h1.6v-2.2c0-.1 0-.4-.1-.6-.2-.2-.4-.3-.5-.3s-.2.1-.2.1l-.1.1v-.1c-.1-.2-.1-.6.3-.8.3-.2.5-.1.7-.1-.2-.6.5-1.1.5-1.1s.6.5.5 1.1c.2-.1.4-.1.7.1.4.3.3.7.3.8v.1l-.1-.1s-.1-.1-.2-.1-.3 0-.5.3c-.1.1-.1.5-.1.6v2.2h1.5c.1 0 .5 0 .6-.1.2-.2.3-.4.3-.5s-.1-.2-.1-.2l-.1-.1h.1c.2-.1.6-.1.8.3.2.3.1.5.1.7.6-.2 1 .4 1.1.5zm-5.7-16.4c0-.1 0-.2-.1-.3h.5v-.1l-.1-.5v-.1h-.1l-2.3.9 1.3-.1c0 .1-.1.2-.1.2 0 .3.2.5.5.5.2.1.4-.2.4-.5z"/></g><g id="eagle"><path class="st4" d="M202.4 135.7c.6-.8.9-1.8.9-1.8-1.2.8-3.2.1-3.2.1s.1.6-1.7 1.3c-2.7 1.1-5.5 4-1.8 8.1 0 0-1.5-4.7.8-5.8 0 .1 2.1 2.1 5-1.9zm-8.8-30.3s-1.5-.2-2.8.5c0 0 .9 1.6 1.8 2.1 0 0-1.9.9-2.4 1.6 0 0 1.2 1 2.8 1.2 0 0-1.7 1.1-2.2 2 0 0 1.3.9 2.9.6 0 0-1.8 1.2-1.9 2.5 0 0 1.8.5 3.1-1 0 0-1.2 2-.5 3.3.2.4.7.8.7.8 1.1-.6 1.3-.6 1.4-1.8 0-.6-.1-.7-.1-2 0-1.1.2-2.1.2-2.1s-2.4-.4-1.8-4.6c0 0 3.2 2.2 3.6-.8.4-3.6-5.1-1.8-4.7-8.9.1.2-2.5 4.9-.1 6.6z"/><path class="st4" d="M194 121.9s-.3 4.3-4.6 5.7c7.6-.2 8.9-5.9 8.9-5.9-.7-1.1-.8-1.6-.8-1.6l-.1-.3c-.5.5-2.4 1.3-2.4 1.3s-1.1-1-1.4-1.3c-.7-1.1-.9-1.8-.9-1.8-1.3 0-2.5-1.1-2.5-1.1-.1-1.2.4-2.2.4-2.2-.9-.4-1.9-1.4-1.9-1.4.6-1.3 1-1.7 1-1.7-1.5-1.1-1.5-1.8-1.5-1.8.4-1 1.7-1.9 1.7-1.9-.6-.8-1.1-2.3-1.1-2.3 1.1-1.1 2.1-1.4 2.1-1.4-.2-.6-.1-1.2-.1-1.8 0 0-8.7-4.5-9.6-7.5 0 0-.4 2.6-.2 4.3.1 1.5 2.5 3.9 8 7.7-3.4-.5-8.1-2.4-9.2-4.2 0 0 0 2.7.6 4.2.5 1.3 2.9 2.2 8.4 4.9-2.7 1.5-7.5-.2-8.9-1.5 0 0 .8 2.3 1.7 3.8.6.9 2.8 2.4 8.1 1.6-2 2.4-5.7 4.3-8.3 3.1 0 0 .3 2.3 1.8 3 1.1.5 3.6.8 7.4-2.2-2.3 5.7-8 4-8 4s1.3 2.3 2.8 3.1c1.5.6 4.2 0 8.6-4.8zm7.1 4.8c-.4-1.3-1.8-3.3-1.9-3.4 0 .1-.1.4-.8 1.5-2 3.2-3.8 3-3.8 3 1.7.9 4.2-.3 4.2-.3s-.3.8-.4 1c-.7 1.5.3 3.6.3 3.6-.6-2.8 2.4-5.4 2.4-5.4zm-2-3.4s.1 0 0 0c.1 0 0 0 0 0z"/><path class="st4" d="M196.1 133.4c-.2-.9-.9-.7-1.4-.4-.4.2-.8 0-.8 0-.3-.2-.4-.5.1-.8 2.3-1.1 2.8-2.4 2.8-2.4-1.1.1-2-.2-2-.2s-2.1 2.8-3.7 2c-.5-.2-.7-1.1-.7-1.5 0-.8-.9-1.3-1.4-.7s.1 1.1.6 1.3c.3.1.7.5.6.8-.2.3-.4.2-.7.2s-1.7-.5-2 .5c-.4 1.2 1 1.7 1.7 1 .8-.7 2.1-.7 2.5-.2.1.2.3.8-.8 1.6-.4.3-2.3 1.5-.9 2.7.5.4 1.7.3 2-1.5.2-1.3.6-1.9 1.1-2.2.2-.1 1-.3 1.4 0 .1.1.4.3.4.3.5.8 1.4.2 1.2-.5zm-8-4c.1-.4.5-.6.5-.6-1.7-.6-1.9.9-1.9.9.5-.9 1.4-.3 1.4-.3zm-1.6 3.3c-1.7 1.3-.2 2.8-.2 2.8-.7-1.3.3-1.7.3-1.7-.2-.7-.1-1.1-.1-1.1zm2.7 5.5c-.6-.5-.5-.9-.5-.9-1.1 1.8.8 2.6.8 2.6-1.1-1-.3-1.7-.3-1.7zm7.6-4.8l-.1-.1s.2.4-.1.7c0 0 .1 0 .2.1.3.1.5.4.4 1.1 0 .1 1-1-.4-1.8zm16.4 0c-1.4.8-.4 1.9-.4 1.9-.1-.7.1-1 .4-1.1.1 0 .2-.1.2-.1-.2-.3-.1-.7-.2-.7.1-.1 0-.1 0 0zm-1.5 2c-1.8-.8-1.7-1.3-1.7-1.3s-2 .6-3.2-.1c0 0 .3.9.9 1.8 3 4 5 2 5 2 2.4 1.1.8 5.8.8 5.8 3.7-4.2.9-7.1-1.8-8.2zm3.5-26.7c.6 4.2-1.8 4.6-1.8 4.6s.1 1 .2 2.1c0 1.3-.1 1.4-.1 2 .1 1.2.3 1.3 1.4 1.8 0 0 .4-.4.7-.8.7-1.3-.5-3.3-.5-3.3 1.3 1.6 3.1 1 3.1 1-.1-1.3-1.9-2.5-1.9-2.5 1.6.3 2.9-.6 2.9-.6-.5-.9-2.2-2-2.2-2 1.7-.1 2.8-1.2 2.8-1.2-.5-.7-2.4-1.6-2.4-1.6.9-.5 1.8-2.1 1.8-2.1-1.3-.7-2.8-.5-2.8-.5 2.4-1.7-.2-6.5-.2-6.5.4 7.1-5.1 5.3-4.7 8.9.4 2.9 3.7.7 3.7.7z"/><path class="st4" d="M228.5 114c.9-1.4 1.7-3.8 1.7-3.8-1.4 1.4-6.2 3-8.9 1.5 5.5-2.7 7.9-3.6 8.4-4.9.6-1.6.6-4.2.6-4.2-1 1.8-5.7 3.7-9.2 4.2 5.6-3.7 7.9-6.2 8-7.7.2-1.7-.2-4.3-.2-4.3-1 2.9-9.6 7.5-9.6 7.5 0 .6.1 1.2-.1 1.8 0 0 1 .3 2.1 1.4 0 0-.5 1.5-1.1 2.3 0 0 1.3 1 1.7 1.9 0 0-.1.7-1.5 1.8 0 0 .4.4 1 1.7 0 0-.9.9-1.9 1.4 0 0 .5 1 .4 2.2 0 0-1.2 1.1-2.5 1.1 0 0-.1.8-.9 1.8-.3.4-1.4 1.3-1.4 1.3s-1.9-.7-2.4-1.3l-.1.3s-.1.6-.8 1.6c0 0 1.4 5.7 8.9 5.9-4.3-1.4-4.6-5.7-4.6-5.7 4.4 4.8 7.1 5.4 8.5 4.7 1.5-.8 2.8-3.1 2.8-3.1s-5.7 1.8-8-4c3.8 3 6.3 2.7 7.4 2.2 1.5-.7 1.8-3 1.8-3-2.5 1.2-6.3-.7-8.3-3.1 5.3.9 7.6-.6 8.2-1.5zm-17.6 9.3s.1 0 0 0c.1 0 0 0 0 0zm4.7 4.5s-1.8.2-3.8-3c-.7-1.2-.8-1.5-.8-1.5-.1.2-1.5 2.1-1.9 3.4 0 0 2.9 2.5 2.4 5.3 0 0 1-2 .3-3.6-.1-.1-.4-1-.4-1s2.5 1.3 4.2.4z"/><path class="st4" d="M220.7 131.8c-.2 0-.5.1-.7-.2-.2-.3.3-.7.6-.8.5-.2 1-.8.6-1.3-.5-.6-1.4-.2-1.4.7 0 .4-.2 1.2-.7 1.5-1.6.7-3.7-2-3.7-2s-.9.3-2 .2c0 0 .5 1.3 2.8 2.4.5.3.4.6.1.8 0 0-.5.1-.8 0-.5-.2-1.2-.4-1.4.4s.7 1.3 1.4.8c0 0 .3-.2.4-.3.4-.3 1.2-.1 1.4 0 .5.2.9.9 1.1 2.2.3 1.7 1.6 1.9 2 1.5 1.3-1.3-.6-2.5-.9-2.7-1.1-.9-1-1.4-.8-1.6.3-.5 1.6-.5 2.5.2.8.7 2.1.2 1.7-1-.5-1.2-1.8-.7-2.2-.8zm.8-3s.4.2.5.6c0 0 .8-.6 1.4.3 0 0-.1-1.5-1.9-.9zm2 3.9s.2.4-.2 1c0 0 1 .4.3 1.7.1 0 1.6-1.4-.1-2.7zm-2.6 5.5s.8.7-.3 1.7c0 0 1.9-.8.8-2.6 0 0 .1.4-.5.9zm-8.8 1.8c-4.4.5-6.3-4.1-6.3-4.1-.3.3-.5.3-.7.4-.2-.1-.5-.2-.7-.4 0 0-1.9 4.6-6.3 4.1 0 0 .3 1 2 1.1 0 0-3 1.4-1.3 2.8 1.1.9 2-1.6 2-1.6s.1 2.3 2.1 2.4c0 0-3-1.8.1-5.9-.3 2.9.7 5.6 2.1 5.6 1.4 0 2.4-2.7 2.1-5.6 3.1 4.1.1 5.9.1 5.9 2 0 2.1-2.4 2.1-2.4s.9 2.5 2 1.6c1.7-1.4-1.3-2.8-1.3-2.8 1.7-.2 2-1.1 2-1.1zm-12.9-38.4c.3 0 4.3-.1 4.8-.1-.1.3 0 1.1-.9 1.2h-3.3s-.1.8 1.2.5c.3-.1 1.1-.3 1.4.2.2.3.8 1.4-1.2 1.6 0 0 2.9.2 3.1-2.3 0 0 .2 1.8.8 1.9.6 0 .6-1.9.6-1.9 1 2.6 3.5 2.8 3.5 2.8-2.1-1.4-2-5.3-1.9-5.6.1-1.9 1.8-1.7 1.9-2.9.2-1.6-1.7-1.2-1.7-1.2s.8 0 1 .4c.3.9-1.2 1-1.2 1-1.9.5-2.5-.6-3.2-.8-.7-.1-.8.3-1 .5-.1.2-3.1.3-3.7 1-.7.7-.6 1.6-.1 2.1 0 0 .3-1 1.4-1.1 1.1 0 2.9 1.4 3.3 2.2-.5 0-4.6.3-5.2-.1-.3-.3-.7-.8-.7-1.1 0 0-.2 1.1.3 1.4.4.4.5.3.8.3zm4.5-2.5c-.3 0-.5-.2-.5-.5 0-.1 0-.2.1-.2l-1.3.1 2.3-.9h.1v.1l.1.5v.1h-.5c.1.1.1.2.1.3.1.2-.1.5-.4.5zm5.1 7.9c-.7-.1-2.2-.4-2.7-1 0 0-.3.5-1.1.7-.7-.2-1-.7-1-.7-.6.6-1.9 1-2.7 1.1-1.7 4.5-5.5 7.3-2 13.5 3.6 6.4 6.2 7.3 1.2 11.7 0 0 3.2.9 4-1.9 0 0-.1 3 .6 3.8.8-.8.6-3.9.6-3.9.7 2.8 4 1.9 4 1.9-5-4.4-2.4-5.3 1.2-11.7 3.4-6.2-.4-9-2.1-13.5zm1 9.3c0 .1-.1.2-.2.4-.5.8-1.4.9-2.1.6-.4-.1-.5-.2-.6-.3l-.2-.2v2.1l.2-.2.3.4c.1.1.2.3.3.6.2.6.1 1.5-.6 2.1-.1.1-.2.1-.4.2-.1.4-.4.9-1.2 1.3l-.2.1-.2-.1c-.8-.4-1.1-.9-1.2-1.3-.1 0-.2-.1-.4-.2-.8-.5-.9-1.4-.6-2.1.1-.4.2-.5.3-.6l.3-.4.2.2v-2.1l-.2.2c-.1.1-.3.2-.6.3-.6.2-1.5.1-2.1-.6-.1-.1-.1-.2-.2-.4-.4-.1-.9-.4-1.3-1.2l-.1-.2.1-.2c.4-.8.9-1.1 1.3-1.2 0-.1.1-.2.2-.4.5-.8 1.4-.9 2.1-.6.2.1.4.2.5.2l-.2-.2c-.1-.1-.2-.3-.3-.6-.2-.6-.1-1.5.6-2.1.1-.1.2-.1.4-.2.1-.4.4-.9 1.2-1.3l.2-.1.2.1c.8.4 1.1.9 1.2 1.3.1 0 .2.1.4.2.8.5.9 1.4.6 2.1-.1.4-.2.5-.3.6l-.1.2c.1-.1.2-.1.5-.2.6-.2 1.5-.1 2.1.6.1.1.1.2.2.4.4.1.9.4 1.3 1.2l.1.2-.1.2c-.5.8-1 1.1-1.4 1.2z"/><path class="st4" d="M208.7 114.3c.1-.2.1-.4-.1-.7-.3-.4-.7-.3-.8-.3h-.1l.1.1s.1.1.1.2 0 .3-.3.5c-.1.1-.5.1-.6.1h-1.5V112c0-.1 0-.5.1-.6.2-.2.4-.3.5-.3s.2.1.2.1l.1.1v-.1c.1-.2.1-.6-.3-.8-.3-.2-.5-.1-.7-.1.2-.6-.5-1.1-.5-1.1s-.6.5-.5 1.1c-.2-.1-.4-.1-.7.1-.4.3-.3.7-.3.8v.1l.1-.1s.1-.1.2-.1.3 0 .5.3c.1.1.1.4.1.6v2.2h-1.6c-.1 0-.5 0-.6-.1-.2-.2-.3-.4-.2-.5 0-.1.1-.2.1-.2l.1-.1h-.1c-.2-.1-.6-.1-.8.3-.2.3-.1.5-.1.7-.6-.2-1.1.5-1.1.5s.5.6 1.1.5c-.1.2-.1.4.1.7.3.4.7.3.8.3h.1l-.1-.1s-.1-.1-.1-.2 0-.3.2-.5c.1-.1.4-.1.6-.1h1.6v4c0 .1 0 .4-.1.6-.2.2-.4.3-.5.3s-.2-.1-.2-.1l-.1-.1v.1c-.1.2-.1.6.3.8.3.2.5.1.7.1-.2.6.5 1.1.5 1.1s.6-.5.5-1.1c.2.1.4.1.7-.1.4-.3.3-.7.3-.8v-.1l-.1.1s-.1.1-.2.1-.3 0-.5-.3c-.1-.1-.1-.5-.1-.6v-4h1.5c.1 0 .4 0 .6.1.2.2.3.4.3.5s-.1.2-.1.2l-.1.1h.1c.2.1.6.1.8-.3.2-.3.1-.5.1-.7.6.2 1.1-.5 1.1-.5s-.4-.6-1.1-.5z"/></g><path id="bookspine" class="st5" d="M176.5 77v16.1h56.4V77h-56.4zm12.1 10.9l-2.5-.2s-.2.8-.2 1.8c0 .7.4.9.6 1h-1.7c.2-.1.6-.3.6-1 .1-1-.2-1.8-.2-1.8l-2.5.2.5-.8-2.6-2.4.7-.2-.4-1.7 1.6.3.3-.8 1.1 1.3-.3-3 .9.8 1.1-2.1 1.1 2.1.9-.8-.3 3 1.1-1.3.3.8 1.6-.3-.4 1.7.7.2-2.6 2.4.6.8zm26.1 2.9h-8.1s-.6-1.3-1.8-1.3-1.8 1.3-1.8 1.3h-8v-9.3h1.6v-1.4h1.2s1.8.1 2.7-.3c.9-.4 3.3-1.2 4.4.4 1.1-1.6 3.4-.8 4.4-.4.9.4 2.7.3 2.7.3h1.2v1.4h1.6l-.1 9.3zm11.8-2.9l-2.5-.2s-.3.8-.2 1.8c0 .7.4.9.6 1h-1.7c.2-.1.6-.3.6-1 0-1-.2-1.8-.2-1.8l-2.5.2.5-.8-2.6-2.4.7-.2-.4-1.7 1.6.3.3-.8 1.1 1.3-.3-3 .9.8 1.1-2.1 1.1 2.1.9-.8-.3 3 1.1-1.3.3.8 1.6-.3-.4 1.7.7.2-2.6 2.4.6.8z"/><path id="bookbg" class="st6" d="M213.8 81.5h-.7v7.9h-3c-1-.1-4.1-2-5.2-.8-1.1-1.2-4.2.7-5.2.8-.5.1-3 0-3 0v-7.9H195v9.3h8.1s.6-1.3 1.8-1.3 1.8 1.3 1.8 1.3h8.1v-9.3h-1z"/><g id="bookoutline"><path class="st7" d="M200.8 80.5c-1.1.4-2.9.4-3 .3h-.4v7.8h2.1c.2 0 .7-.2 1.1-.4 1.1-.4 2.5-.9 3.6-.8v-6.6c0-.1-.1-.1-.1-.1-.6-1-2.1-.6-3.3-.2zm4.6 6.9c1.1-.2 2.5.3 3.6.8h.1c.4.2.9.4 1.1.4h2.1v-7.7h-.4c-.2 0-2 .1-3-.3-1.2-.5-2.7-.8-3.4.1l-.1.1v6.6z"/><path class="st8" d="M211.9 80.1s-1.8.1-2.7-.3c-.8-.3-2.6-.9-3.8-.2v1.2l.1-.1c.7-1 2.2-.6 3.4-.1 1 .4 2.8.4 3 .3h.4v7.7h-2.1c-.2 0-.7-.2-1.1-.4h-.1c-1.1-.4-2.4-.9-3.6-.8v.9c1.4-.4 3.8 1 4.7 1.1.5.1 3 0 3 0v-9.3h-1.2zm-11.3 8.1c-.4.2-.9.4-1.1.4h-2.1v-7.7h.4c.1 0 1.9.1 3-.3 1.2-.5 2.7-.8 3.4.1 0 0 0 .1.1.1v-1.2c-1.2-.8-3-.2-3.8.2-.9.4-2.7.3-2.7.3h-1.2v9.3h3c.9-.1 3.3-1.5 4.6-1.1v-.8c-1.1-.3-2.5.3-3.6.7z"/></g><path id="bookspine_1_" class="st9" d="M205.4 81.5v-1.9c-.2.1-.4.3-.6.6-.2-.3-.4-.4-.6-.6v8.6l.6.3c.2-.2.4-.3.6-.3v-6.7z"/><path class="st10" d="M200.8 80.5c-1.1.4-2.9.4-3 .3h-.4v7.8h2.1c.2 0 .7-.2 1.1-.4 1.1-.4 2.5-.9 3.6-.8v-6.6c0-.1-.1-.1-.1-.1-.6-1-2.1-.6-3.3-.2zm11.1.4c-.2 0-2 .1-3-.3-1.2-.5-2.7-.8-3.4.1l-.1.1v6.6c1.1-.2 2.5.3 3.6.8h.1c.4.2.9.4 1.1.4h2.1v-7.7h-.4z" id="books"/><g id="leaves"><path class="st11" d="M189.9 84.5l.4-1.7-1.6.3-.3-.8-1.1 1.3.3-3-.9.8-1.1-2.1-1.1 2.1-.9-.8.3 3-1.1-1.3-.3.8-1.6-.3.4 1.7-.7.2 2.6 2.4-.5.8 2.5-.2s.3.8.2 1.8c0 .7-.4.9-.6 1h1.7c-.2-.1-.6-.3-.6-1 0-1 .2-1.8.2-1.8l2.5.2-.5-.8 2.6-2.4-.8-.2zm36.6 3.4l-.5-.8 2.6-2.4-.7-.2.4-1.7-1.6.3-.3-.8-1.1 1.3.3-3-.9.8-1.1-2.1-1.1 2.1-.9-.8.3 3-1.1-1.3-.3.8-1.6-.3.4 1.7-.7.2 2.6 2.4-.5.8 2.5-.2s.2.8.2 1.8c0 .7-.4.9-.6 1h1.7c-.2-.1-.6-.3-.6-1-.1-1 .2-1.8.2-1.8l2.4.2z" id="leafs"/></g><path id="divider" class="st12" d="M278 0v149"/><path class="st0" d="M321 58.5V24h12.8c5.5 0 10 1.6 10 8.9 0 4-2 6.8-5.9 7.6v.1c5.1.7 6.5 4 6.5 8.8 0 8.8-7.6 9.1-10.7 9.1H321zm7.2-20.4h4.8c1.6 0 3.8-1.1 3.8-4.4 0-2.5-1.7-4.4-4.2-4.4h-4.5v8.8zm0 15.1h4c1.5 0 5 0 5-4.9 0-3.1-1.1-4.9-4.8-4.9h-4.2v9.8zm30 5.3H351V24h13.4c4.9 0 8.1 3.2 8.1 9 0 4.4-1.7 7.7-6.4 8.5v.1c1.6.2 6.3.6 6.3 6.8 0 2.2.1 8.7.8 10.1H366c-1-2.1-.8-4.5-.8-6.7 0-4.1.4-7.6-5.2-7.6h-1.9v14.3zm0-19.6h3.2c2.9 0 3.7-2.9 3.7-5.1 0-3.3-1.4-4.5-3.7-4.5h-3.2v9.6zM379 58.5V24h7.2v34.5H379zm30.1-23.9c0-3.2-.5-6-4.3-6-4.5 0-4.5 6.1-4.5 12.8 0 10.8 1.1 12.7 5.2 12.7 1.2 0 2.5-.3 3.6-.7v-7.7h-3.9v-5.3h11.1v17.5c-2 .4-6.9 1.1-9.8 1.1-12.2 0-13.5-5-13.5-18.1 0-8.7.4-17.6 12.2-17.6 7.1 0 11.5 4 11.1 11.2h-7.2zm29.9 3.2V24h7.2v34.5H439V43.1h-8.3v15.4h-7.2V24h7.2v13.8h8.3zM475 24v5.7h-8v28.8h-7.2V29.7h-8V24H475zm5.3 34.5V24h18.9v5.3h-11.6v8.5h10.7v5.3h-10.7v10.1h12v5.3h-19.3zm32.4 0h-7.2V24h13.4c4.9 0 8.1 3.2 8.1 9 0 4.4-1.7 7.7-6.4 8.5v.1c1.6.2 6.3.6 6.3 6.8 0 2.2.1 8.7.8 10.1h-7.1c-1-2.1-.8-4.5-.8-6.7 0-4.1.4-7.6-5.2-7.6h-1.9v14.3zm0-19.6h3.2c2.9 0 3.7-2.9 3.7-5.1 0-3.3-1.4-4.5-3.7-4.5h-3.2v9.6zM317.9 67.4h7.4l4.5 24.3h.1l5.5-24.3h8.5l5.2 24.3h.1l4.3-24.3h7.1l-7.7 34.5h-8l-5.4-25.3h-.1l-6 25.3h-7.8l-7.7-34.5zm46.6 17.2c0-9.1 0-17.8 11.9-17.8s11.9 8.7 11.9 17.8c0 9 0 17.8-11.9 17.8s-11.9-8.7-11.9-17.8zm16.5 0c0-8.9-.5-12.7-4.6-12.7s-4.6 3.8-4.6 12.7.5 12.7 4.6 12.7 4.6-3.8 4.6-12.7zm21.2 17.3H395V67.4h13.4c4.9 0 8.1 3.2 8.1 9 0 4.4-1.7 7.7-6.4 8.5v.1c1.6.2 6.3.6 6.3 6.8 0 2.2.1 8.7.8 10.1H410c-1-2.1-.8-4.5-.8-6.7 0-4.1.4-7.6-5.2-7.6h-1.9v14.3zm0-19.6h3.2c2.9 0 3.7-2.9 3.7-5.1 0-3.3-1.4-4.5-3.7-4.5h-3.2v9.6zm20.9 19.6V67.4h7.2v28.8h10.8v5.7h-18zm23.4-34.5h12.1c9.5 0 11.2 6.3 11.2 17.1 0 5.3.8 17.5-11.5 17.5h-11.8V67.4zm7.2 29.2h3.5c4.4 0 5.3-3.3 5.3-12 0-6.4 0-12-5-12h-3.7v24z" id="brighterworld"/></svg>