<svg id="20e46167-fc63-4f5f-ad10-117945b67cb2" data-name="Layer 1" xmlns="http://www.w3.org/2000/svg" width="352.83" height="95.24" viewBox="0 0 352.83 95.24"><defs><style>.\38 aa9c947-d085-43ef-8ca2-dc9b1f968772{fill:none}.\30 7073583-4dec-411a-9572-c999f2aa49af{fill:#fff}.\39 c31fe84-a451-4185-8632-4829914a13c3{clip-path:url(#652c5753-4555-443a-b1d3-aeeb2b6dcc51)}.\37 1e61d2d-afd4-4158-bb4a-2e328a96922f{fill:#485865}</style><clipPath id="652c5753-4555-443a-b1d3-aeeb2b6dcc51"><path class="8aa9c947-d085-43ef-8ca2-dc9b1f968772" d="M186.16 2.78h166.67v92.46H186.16z"/></clipPath></defs><title>mcmaster-logo-dept-hslibrary</title><path class="07073583-4dec-411a-9572-c999f2aa49af" d="M170.07 0h1.08v92.44h-1.08z"/><g class="9c31fe84-a451-4185-8632-4829914a13c3"><path class="07073583-4dec-411a-9572-c999f2aa49af" d="M219.24 32a1.72 1.72 0 0 0-1.24-.3h-.13a1.56 1.56 0 0 1-1.41-.51c-.42-.57-.42-2.33-.41-3.09V8.33v-.57a6 6 0 0 1 .28-2.76c.23-.32.83-.29 1.31-.28h.36c1.19 0 1.32-.76 1.32-1.09A.89.89 0 0 0 219 3a1.31 1.31 0 0 0-1-.19h-5a1.28 1.28 0 0 0-1.43.83l-8.44 21.76c-1.35-3.83-7.44-20.95-7.44-20.94s-.07-.24-.1-.35c-.18-.64-.37-1.3-1.28-1.3h-5.17a1.31 1.31 0 0 0-1 .19.85.85 0 0 0-.25.67c0 .33.13 1.09 1.31 1.09 1 0 1.56.06 1.81.32s.27.92.18 2.16l-1.3 21.06c-.13 2.52-.28 3.39-2.33 3.39-1.22 0-1.4.58-1.4.92s.17.88 1 .88c.62 0 1.25 0 1.87-.08s1.27-.08 1.9-.08 1.27 0 1.89.08 1.28.08 1.92.08c.37 0 1.23 0 1.23-.88a.79.79 0 0 0-.24-.59 1.84 1.84 0 0 0-1.29-.33h-.08a2.38 2.38 0 0 1-1.85-.63c-.79-.84-.77-2.48-.65-4.54L193 7.73c1.35 3.9 8.11 23.52 8.11 23.5.09.39.27 1.11.91 1.11s.74-.56.87-.93v-.14l9.2-24.07v21c0 .83 0 2.37-.54 2.91a2.94 2.94 0 0 1-1.79.6h-.13a1.72 1.72 0 0 0-1.24.3.84.84 0 0 0-.24.62c0 .4.19.88 1.1.88s1.68 0 2.5-.08 1.7-.08 2.55-.08c.68 0 1.36 0 2 .08s1.36.08 2 .08c.91 0 1.1-.48 1.1-.88a.84.84 0 0 0-.24-.62"/><path class="07073583-4dec-411a-9572-c999f2aa49af" d="M235.55 17.41c-.72 0-1.21-.86-1.83-2-.88-1.55-2-3.48-4-3.48a7 7 0 0 0-4.31 1.95 10.94 10.94 0 0 0-3.13 7.8c0 4.76 3.08 9.9 8.06 9.9a6.59 6.59 0 0 0 4.93-2.08.48.48 0 0 1 .08-.1c.26-.32.51-.59.8-.59a.65.65 0 0 1 .61.69c0 .27-.15.78-1.43 2a9.84 9.84 0 0 1-6.68 2.52c-5.57 0-10.28-5.2-10.28-11.35a12.22 12.22 0 0 1 11.88-12.23 10.3 10.3 0 0 1 5.68 1.7c.59.45.54 1.3.49 2V14.82c0 .9.08 1.9-.34 2.34a.7.7 0 0 1-.51.22M269.77 32a1.68 1.68 0 0 0-1.23-.3h-.13a1.57 1.57 0 0 1-1.42-.51c-.42-.57-.41-2.33-.41-3.09V8.33v-.57a6.13 6.13 0 0 1 .3-2.74c.22-.32.82-.29 1.3-.28h.32c1.18 0 1.31-.76 1.31-1.09a.85.85 0 0 0-.25-.67 1.31 1.31 0 0 0-1-.19h-4.97a1.27 1.27 0 0 0-1.42.83l-8.47 21.79-7.44-20.94c0-.12-.07-.24-.1-.35-.19-.64-.38-1.3-1.29-1.3h-5.13a1.29 1.29 0 0 0-1 .19.86.86 0 0 0-.26.67c0 .33.13 1.09 1.32 1.09.95 0 1.56.06 1.8.32s.27.92.19 2.16l-1.36 21.05c-.14 2.52-.29 3.39-2.33 3.39-1.22 0-1.4.58-1.4.92s.17.88 1 .88c.62 0 1.26 0 1.87-.08s1.27-.08 1.9-.08 1.27 0 1.89.08 1.28.08 1.93.08c.36 0 1.22 0 1.22-.88a.82.82 0 0 0-.23-.59 1.87 1.87 0 0 0-1.3-.33h-.08a2.4 2.4 0 0 1-1.85-.63c-.79-.84-.76-2.48-.65-4.54l1.19-18.79c1.34 3.9 8.11 23.52 8.1 23.5.1.39.28 1.11.92 1.11s.73-.56.86-.93c0-.05 0-.1.05-.14l9.11-24.07v21c0 .83 0 2.37-.55 2.91a2.94 2.94 0 0 1-1.78.6h-.14a1.69 1.69 0 0 0-1.23.3.84.84 0 0 0-.24.62c0 .4.19.88 1.1.88s1.68 0 2.5-.08 1.7-.08 2.55-.08c.67 0 1.36 0 2 .08s1.37.08 2.05.08c.91 0 1.1-.48 1.1-.88a.84.84 0 0 0-.24-.62"/><path class="07073583-4dec-411a-9572-c999f2aa49af" d="M279.94 20.89c1.51-.78 1.51-.78 1.51-2.51V16.2c0-2.59-.18-4.16-2.59-4.16s-3.74 1.15-4.9 4l-.1.23a2.87 2.87 0 0 1-1.29 1.7 5.3 5.3 0 0 1-2 .68.78.78 0 0 1-.88-.89 5.84 5.84 0 0 1 2-3.74 12.16 12.16 0 0 1 8.23-3.51 5.81 5.81 0 0 1 4.29 1.39 4 4 0 0 1 1 3.33v12.25c0 .8 0 2.66.67 3.34a.81.81 0 0 0 .59.24 1.84 1.84 0 0 0 1.28-.75c.24-.26.46-.49.73-.49a.65.65 0 0 1 .61.69c0 .65-.73 1.34-1.12 1.71a5.89 5.89 0 0 1-3.38 1.51c-1.62 0-2.27-1.61-2.7-2.67a2.94 2.94 0 0 0-.39-.8.08.08 0 0 0 .06 0 .09.09 0 0 0 .06 0 6.86 6.86 0 0 0-.59.5c-1.18 1.06-3.64 3.27-6.72 3.27a4.26 4.26 0 0 1-4.47-4.2c0-3.56 3.89-5.65 6.47-7l.29-.15 3.47-1.79m-3 3.3c-1.74 1-3.36 2.19-3.36 4.39a2.57 2.57 0 0 0 2.81 2.63 5.54 5.54 0 0 0 4-1.89c1-1.15 1.05-1.91 1.05-3.51v-3.12c0-.75 0-.92-.07-1h.05a.88.88 0 0 0-.21.09l-.19.09-4.15 2.32M289.88 27.14v-.07c.05-.42.14-1.28.87-1.28s1 .95 1.19 2.06c.38 2 .91 4.73 4.69 4.73 2.5 0 5.17-1.6 5.17-4.56 0-2.74-2.12-3.76-4.11-4.49l-.41-.14c-2.8-1-6.65-2.35-6.65-6.39a6.12 6.12 0 0 1 2.49-4.85 8.62 8.62 0 0 1 5.48-1.67 15.31 15.31 0 0 1 4.73.84c.79.41.73 1.32.68 2V14.01a3.51 3.51 0 0 1-.28 2.29.64.64 0 0 1-.48.21c-.56 0-.79-.59-1.09-1.34-.55-1.4-1.3-3.32-4.37-3.32-1.56 0-3.83 1.2-3.83 3.37 0 2.46 2.19 3.28 4.71 4.24 3 1.14 6.47 2.44 6.47 7 0 5.2-5.13 7.54-8.78 7.54a14.07 14.07 0 0 1-5.84-1.53c-.8-.38-.79-1.11-.78-1.81v-.16s.13-3.34.14-3.36M317.64 30.52a.65.65 0 0 0-.61-.65c-.22 0-.42.17-.77.49a4 4 0 0 1-2.44 1.25 1.73 1.73 0 0 1-1.32-.51c-1-1-1-3.36-1-4.91v-12.7c0-.48.08-.67.15-.73s.39-.1.73-.08h3.48c.4 0 .71 0 .94-.18a1.2 1.2 0 0 0 .26-.91c0-.36 0-1-.7-1h-4.4c-.36 0-.44-.06-.44-.7V6.42c0-.73-.36-.89-.66-.89s-.64.45-.71.63a10.76 10.76 0 0 1-4.17 4.9l-.1.08a1.16 1.16 0 0 0-.53.87.59.59 0 0 0 .2.47 1.83 1.83 0 0 0 1.34.22h.42a1.35 1.35 0 0 1 .46 0s.08.11.08.57v13.5c0 1.93 0 4.11 1.05 5.64a4.26 4.26 0 0 0 3.45 1.64 6.18 6.18 0 0 0 4.35-1.94 2.65 2.65 0 0 0 1-1.61"/><path class="07073583-4dec-411a-9572-c999f2aa49af" d="M336.34 28.06c-.28 0-.51.24-.93.66a7.6 7.6 0 0 1-5.68 2.57c-5.5 0-8.38-5.07-8.38-10.07 0-.61.07-1 .21-1.09s.53-.16 1.1-.16h13.77c.25 0 .83-.11.83-1.14a9.81 9.81 0 0 0-1.62-5.17 8.13 8.13 0 0 0-6.64-3.18 11.66 11.66 0 0 0-8.25 3.39c-2.27 2.2-3.28 4.81-3.28 8.49 0 6.56 4.59 11.71 10.45 11.71a9.89 9.89 0 0 0 7.27-2.86c1.25-1.19 1.8-1.93 1.8-2.42a.67.67 0 0 0-.65-.7m-13.56-12.95a6.67 6.67 0 0 1 5.56-3.14 4.73 4.73 0 0 1 3.66 1.39 4.51 4.51 0 0 1 1.09 2.72 1.6 1.6 0 0 1-1.43 1.69 26 26 0 0 1-5.11.38h-3.84c-.3 0-.76 0-.93-.14a.26.26 0 0 1-.07-.21 6.55 6.55 0 0 1 1.07-2.7M350 10.73c-2.39 0-4 2.18-4.85 3.35l-.36.48a3.57 3.57 0 0 1 0-.47v-2.64a1.08 1.08 0 0 0-.21-.78.66.66 0 0 0-.49-.19 1.21 1.21 0 0 0-.9.59 1 1 0 0 1-.14.17 9.57 9.57 0 0 1-3.57 2.48l-.18.06c-.39.12-1 .34-1 1.06 0 .42.32.69.83.69h.58a1.48 1.48 0 0 1 1.08.3c.38.42.37 2.21.37 2.8V28.91c.05 1.87 0 2.78-1.76 3h-.23c-.45 0-1.29.07-1.29 1 0 .5.35.8.93.8s1.41 0 2.1-.08 1.43-.07 2.14-.07 1.31 0 2 .07 1.45.08 2.18.08a.79.79 0 0 0 .84-.85c0-.83-.86-.89-1.32-.93h-.2c-1.75-.18-1.8-1.09-1.76-3v-8.81c0-1.84 0-3.05 1-4.58.47-.67 1.2-1.67 2-1.67.42 0 .67.29 1 .76a2.23 2.23 0 0 0 1.82 1.13 2.13 2.13 0 0 0 2.17-2.28 2.7 2.7 0 0 0-2.78-2.75M200.78 43.43v-.15a8.48 8.48 0 0 0-.25-2.57c-.23-.47-.71-.51-1.3-.51a1 1 0 0 1-.78-.21.63.63 0 0 1-.18-.45.65.65 0 0 1 .19-.47.91.91 0 0 1 .66-.23c.4 0 .8 0 1.19.06s.76.06 1.14.06.65 0 1-.06.68-.06 1-.06c.75 0 .84.47.84.67 0 .46-.38.69-1.13.69-1 0-1 .49-1 1.67v9.48c0 1.79 0 3.33-1.52 4.8a7 7 0 0 1-5.08 1.62 8.33 8.33 0 0 1-5-1.4c-1.65-1.26-1.64-3-1.64-4.85v-9.59c0-.77 0-1.27-.21-1.49s-.53-.24-1.18-.24-.95-.22-.95-.66a.69.69 0 0 1 .19-.51.76.76 0 0 1 .55-.19c.5 0 1 0 1.47.06s.95.06 1.44.06 1 0 1.46-.06 1-.06 1.5-.06a.67.67 0 0 1 .74.7c0 .44-.33.66-1 .66a1.84 1.84 0 0 0-1.19.24c-.21.22-.21.72-.2 1.49v8.78a10 10 0 0 0 .5 4c.88 1.6 3.24 1.72 3.95 1.72a5.42 5.42 0 0 0 4-1.46c.86-1 .86-2.16.86-3.53v-8zM217.89 56.26h-.11c-.9-.09-.94-.48-.91-1.6V49.38a6.51 6.51 0 0 0-.83-3.92 3.82 3.82 0 0 0-3.3-1.67A5.61 5.61 0 0 0 209 45.7l-.18.16v-1.37a.74.74 0 0 0-.16-.57.51.51 0 0 0-.37-.14.79.79 0 0 0-.61.39l-.09.1a5.42 5.42 0 0 1-2 1.4h-.1c-.24.08-.69.23-.69.74a.53.53 0 0 0 .6.52h.34c.32 0 .48.07.53.14s.19.44.19 1.55v6c0 1.12 0 1.51-.91 1.6h-.13c-.26 0-.87 0-.87.69a.58.58 0 0 0 .66.58c.41 0 .83 0 1.24-.06s.82-.06 1.22-.06.75 0 1.16.06.85.06 1.28.06a.57.57 0 0 0 .61-.61c0-.6-.62-.64-.88-.66h-.12c-.9-.09-.93-.48-.91-1.6v-5.3a3.26 3.26 0 0 1 3.11-3.61 2.48 2.48 0 0 1 2.19 1.16 5.74 5.74 0 0 1 .42 2.71v5.07c0 1.12 0 1.51-.91 1.6h-.13c-.26 0-.86 0-.86.69a.58.58 0 0 0 .66.58c.41 0 .83 0 1.23-.06s.82-.06 1.23-.06.75 0 1.15.06.85.06 1.28.06a.57.57 0 0 0 .61-.61c0-.6-.61-.64-.88-.66M221.7 40.18a1.6 1.6 0 0 1 1.46-1.74 1.55 1.55 0 0 1 1.39 1.68c0 1-.58 1.74-1.44 1.74a1.51 1.51 0 0 1-1.41-1.68m2.61 14v.47c0 1.12 0 1.51.91 1.6h.12c.26 0 .88.06.88.66a.57.57 0 0 1-.61.61c-.43 0-.87 0-1.28-.06s-.79-.06-1.16-.06-.82 0-1.22.06-.83.06-1.24.06A.58.58 0 0 1 220 57c0-.65.61-.68.87-.69h.13c.9-.09.93-.48.91-1.6v-6.06c0-1.11-.1-1.46-.18-1.55s-.22-.14-.54-.14h-.33a.54.54 0 0 1-.61-.52c0-.51.45-.66.69-.74h.1a5.42 5.42 0 0 0 2-1.4l.09-.1a.79.79 0 0 1 .61-.39.51.51 0 0 1 .37.14.74.74 0 0 1 .16.57v9.69zM240.06 44.26a.52.52 0 0 0-.41-.12h-3.9c-.17 0-.69 0-.69.55s.75.61 1 .61.72 0 .72.48a3.7 3.7 0 0 1-.25.93c0 .08-.05.16-.08.23s-2 4.89-2.77 6.75l-2.39-6.53v-.1a5.65 5.65 0 0 1-.36-1.25c0-.41.42-.51.67-.51h.08a1 1 0 0 0 .79-.18.5.5 0 0 0 .15-.38.6.6 0 0 0-.16-.44.73.73 0 0 0-.58-.16h-4.79a.6.6 0 0 0-.49.14.54.54 0 0 0-.15.41c0 .4.27.61.78.6.82.05.94.37 1.27 1.3l.07.19 3.77 10.14.15.36a.58.58 0 0 0 .51.48c.36 0 .55-.44.67-.72a.45.45 0 0 1 0-.08l3.72-9a3.89 3.89 0 0 0 .16-.41c.39-1 .83-2.12 1.74-2.25h.07c.23 0 .83-.08.83-.65a.51.51 0 0 0-.14-.38M251.44 54c-.21 0-.37.16-.63.42a4.3 4.3 0 0 1-3.21 1.46c-3.11 0-4.74-2.9-4.74-5.76 0-.42.06-.53.08-.55a1.26 1.26 0 0 1 .56-.06h8c.15 0 .61-.06.61-.79a5.86 5.86 0 0 0-1-3.08 4.85 4.85 0 0 0-4-1.91 6.87 6.87 0 0 0-4.88 2 6.44 6.44 0 0 0-1.95 5c0 3.89 2.72 6.94 6.21 6.94a5.89 5.89 0 0 0 4.32-1.7c1-.91 1.09-1.27 1.09-1.5a.52.52 0 0 0-.51-.53m-7.77-7.35a3.75 3.75 0 0 1 3.13-1.79 2.63 2.63 0 0 1 2 .78 2.58 2.58 0 0 1 .6 1.51c0 .48-.21.73-.74.86a14 14 0 0 1-2.93.22h-2.24c-.09 0-.39 0-.45-.05a3.83 3.83 0 0 1 .6-1.51M260.72 44c-1.43 0-2.38 1.27-2.9 2v-1.51a.75.75 0 0 0-.16-.56.51.51 0 0 0-.37-.15.8.8 0 0 0-.62.39l-.09.1a5.42 5.42 0 0 1-2 1.4h-.1c-.24.08-.69.23-.69.74a.54.54 0 0 0 .61.52h.34c.31 0 .48.07.53.14s.19.44.18 1.55v6c0 1.12 0 1.51-.91 1.6h-.13c-.26 0-.86 0-.86.69a.58.58 0 0 0 .66.58c.41 0 .83 0 1.23-.06s.82-.06 1.23-.06.75 0 1.15.06.85.06 1.28.06a.57.57 0 0 0 .61-.61c0-.6-.62-.64-.88-.66h-.11c-.9-.09-.94-.48-.91-1.6v-5.14a4.09 4.09 0 0 1 .55-2.58c.26-.36.66-.92 1.08-.92.19 0 .31.15.51.4a1.41 1.41 0 0 0 1.15.7 1.36 1.36 0 0 0 1.39-1.45 1.7 1.7 0 0 0-1.77-1.63M263.58 53.6c0-.26.1-.86.63-.86s.68.63.81 1.3c.22 1.18.5 2.66 2.59 2.66a2.69 2.69 0 0 0 2.89-2.54c0-1.36-.89-2-2.31-2.49l-.23-.08C266.3 51 264 50.15 264 47.71a3.68 3.68 0 0 1 1.48-2.92 5.06 5.06 0 0 1 3.26-1 9 9 0 0 1 2.81.51c.54.28.5.88.47 1.31a2.54 2.54 0 0 0 0 .26.57.57 0 0 0 0 .12 2.13 2.13 0 0 1-.2 1.43.49.49 0 0 1-.37.16c-.41 0-.58-.41-.75-.86a2.36 2.36 0 0 0-2.43-1.85 2 2 0 0 0-2.1 1.84c0 1.35 1.23 1.81 2.66 2.35 1.81.68 3.85 1.45 3.85 4.21s-2.66 4.51-5.24 4.51a8.33 8.33 0 0 1-3.45-.91c-.52-.25-.52-.73-.51-1.16v-.13l.08-2M277.67 41.86c.86 0 1.44-.7 1.44-1.74a1.55 1.55 0 0 0-1.39-1.68 1.6 1.6 0 0 0-1.46 1.74 1.51 1.51 0 0 0 1.41 1.68M279.89 56.26h-.12c-.9-.09-.93-.48-.91-1.6V44.49a.74.74 0 0 0-.16-.57.51.51 0 0 0-.37-.14.79.79 0 0 0-.61.39l-.09.1a5.42 5.42 0 0 1-2 1.4h-.1c-.24.08-.69.23-.69.74a.53.53 0 0 0 .6.52h.34c.32 0 .48.07.53.14s.19.44.19 1.55v6c0 1.12 0 1.51-.91 1.6h-.13c-.26 0-.87 0-.87.69a.58.58 0 0 0 .66.58c.41 0 .83 0 1.24-.06s.82-.06 1.22-.06.75 0 1.16.06.85.06 1.28.06a.57.57 0 0 0 .61-.61c0-.6-.62-.64-.88-.66M288.56 55.57a.5.5 0 0 0-.48-.5c-.18 0-.31.12-.54.32a2.19 2.19 0 0 1-1.33.7.94.94 0 0 1-.68-.26c-.56-.56-.56-1.9-.56-2.78v-7.4c0-.28 0-.34.06-.34a.82.82 0 0 1 .33 0h2a.75.75 0 0 0 .64-.14.82.82 0 0 0 .18-.62c0-.18 0-.69-.53-.69h-2.54a.35.35 0 0 1-.12 0 .61.61 0 0 1 0-.26v-2c0-.58-.35-.64-.5-.64-.33 0-.48.33-.53.44a6.16 6.16 0 0 1-2.38 2.8h-.06a.78.78 0 0 0-.35.6.51.51 0 0 0 .15.37 1.14 1.14 0 0 0 .88.16h.41v8.07a5.79 5.79 0 0 0 .62 3.36 2.61 2.61 0 0 0 2.11 1 3.68 3.68 0 0 0 2.61-1.17 1.6 1.6 0 0 0 .62-1M302.26 44.15h-4.12a.65.65 0 0 0-.66.66c0 .49.62.49.89.49.72 0 1.08.26 1.08.75a3.64 3.64 0 0 1-.32 1v.06L296.48 54c-.72-1.93-2.63-7-2.63-7v-.06a3.36 3.36 0 0 1-.27-1c0-.56.92-.58 1-.58.61 0 .92-.16.92-.49a.63.63 0 0 0-.66-.66h-5c-.47 0-.79.27-.79.66s.64.49.92.49c.64 0 .9.62 1.24 1.55l.11.32s3.43 9 3.42 9l.12.31a2.59 2.59 0 0 1 .23.84 1.66 1.66 0 0 1-.15.59l-.06.17-.88 2.22a2 2 0 0 0-.08.22c-.12.35-.22.59-.42.64a3.47 3.47 0 0 1-.86.05h-.21c-1.13 0-1.13 1-1.13 1.43a1.17 1.17 0 0 0 .31.86 1.91 1.91 0 0 0 1.39.36h.05c1.13 0 1.27-.31 1.54-1.3 0 0 0-.08 0 0l5.21-13.7a19.47 19.47 0 0 1 1.4-3 1.61 1.61 0 0 1 .91-.54h.13c.26 0 .7-.07.7-.45a.65.65 0 0 0-.69-.69M352 37.75h-43.21V70.4c.68 7.79 8.47 20.69 21.33 24.67l.19.06.2.06.2.06.19-.06.2-.06.19-.06c12.85-4 20.64-17 21.32-24.84V37.75zm-.35 1.33v31.14c-.65 7.55-8.18 20-20.6 23.87l-.19.06h-.18l-.2-.06c-12.43-3.85-20-16.29-20.62-23.79V38.77h41.74z"/><path class="07073583-4dec-411a-9572-c999f2aa49af" d="M329.45 53.8c-.1.11-2.16.23-2.59.68a1.09 1.09 0 0 0-.1 1.52 1 1 0 0 1 1-.75 3.64 3.64 0 0 1 2.37 1.57c-.33 0-3.28.21-3.66-.07a1.22 1.22 0 0 1-.51-.79s-.16.76.2 1a.94.94 0 0 0 .68.21c.2 0 3.05-.07 3.36-.07-.07.21 0 .76-.63.81h-2.35s-.07.59.85.34c.19-.06.81-.22 1 .11s.54 1-.84 1.16c0 0 2 .13 2.18-1.6 0 0 .17 1.3.56 1.31s.46-1.36.46-1.36a3 3 0 0 0 2.45 2c-1.48-1-1.39-3.73-1.38-3.93.08-1.36 1.26-1.24 1.35-2 .12-1.12-1.22-.88-1.22-.88s.57 0 .67.28c.24.64-.85.72-.85.72-1.34.34-1.8-.45-2.28-.54s-.57.23-.68.35m1.05.39v.09l.1.37v.09h-.37a.37.37 0 0 1 .06.21.36.36 0 0 1-.37.37.37.37 0 0 1-.37-.37.48.48 0 0 1 .05-.17h-.88l1.65-.65zM329.09 81.24a4.38 4.38 0 0 0 .62-1.25 3.12 3.12 0 0 1-2.25.09s0 .39-1.24.93c-1.9.8-3.9 2.82-1.29 5.75 0 0-1.08-3.34.6-4.12 0 0 1.46 1.42 3.56-1.4M322.85 59.85a3.78 3.78 0 0 0-1.94.37 5 5 0 0 0 1.25 1.49 6.45 6.45 0 0 0-1.68 1.16 3.68 3.68 0 0 0 2 .82 5.79 5.79 0 0 0-1.55 1.38 3 3 0 0 0 2.08.43s-1.26.85-1.35 1.8a2.17 2.17 0 0 0 2.19-.74s-.82 1.4-.33 2.34a2.45 2.45 0 0 0 .46.6c.8-.39.93-.43 1-1.3 0-.42-.07-.48 0-1.39 0-.74.11-1.45.11-1.45s-1.68-.28-1.28-3.22c0 0 2.29 1.55 2.54-.56.31-2.57-3.58-1.26-3.32-6.3 0 0-1.81 3.34-.14 4.57"/><path class="07073583-4dec-411a-9572-c999f2aa49af" d="M323.13 71.52a4.74 4.74 0 0 1-3.26 4c5.34-.13 6.3-4.18 6.3-4.18a4.07 4.07 0 0 1-.6-1.15l-.08-.22a6.67 6.67 0 0 1-1.71.89 9.88 9.88 0 0 1-1-1 3.42 3.42 0 0 1-.6-1.3 2.83 2.83 0 0 1-1.73-.76 3.27 3.27 0 0 1 .29-1.53 5.57 5.57 0 0 1-1.31-1 5.25 5.25 0 0 1 .71-1.21c-1-.8-1.07-1.29-1.07-1.29a4 4 0 0 1 1.2-1.37 8.22 8.22 0 0 1-.79-1.6 4.15 4.15 0 0 1 1.46-1 3.55 3.55 0 0 1-.05-1.26s-6.14-3.2-6.82-5.27a15.82 15.82 0 0 0-.17 3c.1 1 1.74 2.78 5.69 5.42-2.43-.37-5.74-1.67-6.47-3a10.65 10.65 0 0 0 .41 3c.34.9 2.05 1.55 5.92 3.45-1.91 1.05-5.29-.12-6.26-1.09a15.1 15.1 0 0 0 1.17 2.65c.4.64 2 1.7 5.73 1.15-1.38 1.72-4 3-5.84 2.2 0 0 .19 1.64 1.28 2.12.81.35 2.51.57 5.23-1.53a4.59 4.59 0 0 1-5.64 2.82 6.88 6.88 0 0 0 2 2.17c.94.5 2.86.1 6-3.29M328.14 74.9a12.37 12.37 0 0 0-1.37-2.42 3.91 3.91 0 0 1-.59 1.09c-1.42 2.24-2.7 2.09-2.7 2.09 1.19.65 3-.21 3-.21l-.26.7a3.46 3.46 0 0 0 .22 2.51c-.38-2 1.71-3.76 1.71-3.76M326.76 72.45"/><path class="07073583-4dec-411a-9572-c999f2aa49af" d="M324.59 79.59c-.14-.61-.62-.46-1-.3a.85.85 0 0 1-.58 0c-.23-.11-.31-.37.07-.56a3.58 3.58 0 0 0 1.95-1.67 3.43 3.43 0 0 1-1.43-.15s-1.47 2-2.58 1.45a1.24 1.24 0 0 1-.51-1 .59.59 0 0 0-1-.47c-.33.39.05.81.4.95s.53.35.4.55-.31.13-.48.14-1.18-.33-1.43.38.69 1.2 1.24.72 1.52-.51 1.73-.14c.1.17.22.53-.58 1.14-.25.19-1.61 1-.67 1.93.33.3 1.21.18 1.43-1.05.17-.91.45-1.37.79-1.53a1.15 1.15 0 0 1 1 0l.26.21a.61.61 0 0 0 1-.59M318.94 76.77a.63.63 0 0 1 .33-.41c-1.2-.42-1.31.65-1.31.65a.65.65 0 0 1 1-.24M317.86 79.1a1.22 1.22 0 0 0-.11 1.94c-.49-.93.24-1.21.24-1.21a.84.84 0 0 1-.13-.73M319.73 83a.85.85 0 0 1-.38-.65 1.23 1.23 0 0 0 .57 1.86c-.78-.7-.19-1.21-.19-1.21M325.11 79.64l-.11-.06a.64.64 0 0 1-.05.53h.14c.19.08.36.28.29.8a.79.79 0 0 0-.27-1.31M336.66 79.59a.79.79 0 0 0-.26 1.31c-.08-.52.09-.71.28-.8h.14a.64.64 0 0 1-.05-.53l-.11.06M333.58 61a3.2 3.2 0 0 1-1.89-.74 1.42 1.42 0 0 1-.75.52 1.19 1.19 0 0 1-.72-.51 3.41 3.41 0 0 1-1.92.74c-1.22 3.21-3.88 5.17-1.43 9.51 2.55 4.54 4.4 5.16.83 8.26 0 0 2.28.64 2.81-1.33 0 0-.11 2.14.42 2.71.53-.57.42-2.74.42-2.74.53 2 2.81 1.33 2.81 1.33-3.57-3.1-1.72-3.72.84-8.26 2.45-4.34-.2-6.29-1.42-9.49m.7 6.56a1.26 1.26 0 0 1-.13.26 1.23 1.23 0 0 1-1.46.45 1.33 1.33 0 0 1-.45-.24l-.16-.11v1.48l.18-.14.22.3a1.44 1.44 0 0 1 .24.45 1.23 1.23 0 0 1-.45 1.46 1.3 1.3 0 0 1-.26.14 1.52 1.52 0 0 1-.85.91l-.17.08-.16-.08a1.46 1.46 0 0 1-.85-.91 1.3 1.3 0 0 1-.26-.14 1.23 1.23 0 0 1-.45-1.46 1.48 1.48 0 0 1 .23-.45l.23-.31.18.15v-1.54l-.17.12a1.58 1.58 0 0 1-.45.24 1.23 1.23 0 0 1-1.46-.45 1.3 1.3 0 0 1-.14-.26 1.49 1.49 0 0 1-.91-.85l-.08-.17.08-.16a1.46 1.46 0 0 1 .91-.85 1.3 1.3 0 0 1 .14-.26 1.23 1.23 0 0 1 1.46-.45 1.41 1.41 0 0 1 .35.17l-.11-.16a1.62 1.62 0 0 1-.23-.45 1.23 1.23 0 0 1 .45-1.46 1.3 1.3 0 0 1 .26-.14 1.44 1.44 0 0 1 .85-.91l.16-.08.17.08a1.46 1.46 0 0 1 .85.91 1.3 1.3 0 0 1 .26.14 1.23 1.23 0 0 1 .45 1.46 1.58 1.58 0 0 1-.24.45l-.09.14a2.22 2.22 0 0 1 .33-.15 1.23 1.23 0 0 1 1.46.45 2.15 2.15 0 0 1 .14.26 1.46 1.46 0 0 1 .91.85l.08.16-.08.17a1.45 1.45 0 0 1-.92.85M335.64 81c-1.27-.54-1.23-.93-1.23-.93a3.12 3.12 0 0 1-2.25-.09 4.38 4.38 0 0 0 .62 1.25c2.1 2.82 3.56 1.4 3.56 1.4 1.68.78.6 4.12.6 4.12 2.61-2.93.61-5-1.3-5.75M338.1 62.14c.4 2.94-1.28 3.22-1.28 3.22s.08.71.11 1.45c0 .91-.07 1 0 1.39.06.87.19.91 1 1.3a2.75 2.75 0 0 0 .46-.6c.49-.94-.33-2.33-.33-2.33a2.17 2.17 0 0 0 2.19.73c-.09-.94-1.35-1.8-1.35-1.8a3 3 0 0 0 2.07-.43 5.65 5.65 0 0 0-1.54-1.38 3.68 3.68 0 0 0 2-.82 6.46 6.46 0 0 0-1.69-1.16 4.89 4.89 0 0 0 1.26-1.48 3.73 3.73 0 0 0-1.94-.38c1.67-1.23-.14-4.57-.14-4.57.26 5-3.63 3.73-3.32 6.3.25 2.11 2.54.56 2.54.56"/><path class="07073583-4dec-411a-9572-c999f2aa49af" d="M342.35 59.9a8 8 0 0 1-.78 1.6 3.89 3.89 0 0 1 1.19 1.37s0 .49-1.06 1.29a5.25 5.25 0 0 1 .71 1.21 5.28 5.28 0 0 1-1.31 1 3.42 3.42 0 0 1 .29 1.53 2.88 2.88 0 0 1-1.73.77 3.36 3.36 0 0 1-.61 1.29 8.86 8.86 0 0 1-1 1 6.65 6.65 0 0 1-1.7-.89l-.08.22a3.92 3.92 0 0 1-.6 1.15s1 4.05 6.3 4.18a4.76 4.76 0 0 1-3.27-4c3.13 3.39 5 3.79 6 3.29a6.8 6.8 0 0 0 2-2.17 4.58 4.58 0 0 1-5.63-2.82c2.71 2.1 4.42 1.88 5.23 1.53 1.09-.48 1.27-2.12 1.27-2.12-1.8.82-4.45-.48-5.83-2.2 3.72.55 5.33-.51 5.73-1.15a15.1 15.1 0 0 0 1.17-2.65c-1 1-4.36 2.14-6.26 1.09 3.86-1.9 5.58-2.55 5.92-3.45a10.65 10.65 0 0 0 .41-3c-.73 1.3-4.05 2.6-6.47 3 3.95-2.64 5.58-4.37 5.69-5.42a15.82 15.82 0 0 0-.17-3c-.68 2.07-6.82 5.27-6.82 5.27a3.79 3.79 0 0 1-.05 1.26 4.07 4.07 0 0 1 1.45 1M338.38 75.66s-1.28.15-2.69-2.09c-.52-.82-.6-1-.59-1.09a12.37 12.37 0 0 0-1.37 2.42s2.08 1.8 1.71 3.76a3.46 3.46 0 0 0 .22-2.51l-.27-.7s1.81.86 3 .21"/><path class="07073583-4dec-411a-9572-c999f2aa49af" d="M342 78.51c-.17 0-.35.07-.48-.14s.19-.48.39-.55c.35-.14.74-.56.41-.95a.59.59 0 0 0-1 .47 1.24 1.24 0 0 1-.51 1c-1.12.52-2.58-1.45-2.58-1.45a3.43 3.43 0 0 1-1.43.15 3.58 3.58 0 0 0 1.94 1.67c.39.19.31.45.08.56a.88.88 0 0 1-.59 0c-.34-.16-.82-.31-1 .3a.61.61 0 0 0 1 .59l.26-.21c.29-.24.84-.08 1 0 .34.16.62.62.79 1.53.22 1.23 1.1 1.35 1.42 1.05.95-.9-.41-1.74-.66-1.93-.8-.61-.68-1-.58-1.14.21-.37 1.13-.38 1.73.14s1.51.11 1.23-.72-1.18-.36-1.42-.38M342.59 76.36a.63.63 0 0 1 .34.41.65.65 0 0 1 1 .24s-.11-1.07-1.32-.65M344 79.1a.81.81 0 0 1-.12.73s.73.28.24 1.21a1.23 1.23 0 0 0-.12-1.94M342.14 83s.59.51-.2 1.21a1.23 1.23 0 0 0 .58-1.86.85.85 0 0 1-.38.65M335.92 84.26c-3.09.34-4.46-2.9-4.46-2.9a1.5 1.5 0 0 1-.53.31 1.47 1.47 0 0 1-.52-.31S329 84.6 326 84.26c0 0 .18.69 1.41.77 0 0-2.1 1-.9 2 .79.64 1.41-1.16 1.41-1.16s.1 1.65 1.52 1.66c0 0-2.11-1.23.09-4.13-.21 2 .5 3.92 1.45 3.92s1.67-1.89 1.46-3.92c2.2 2.9.09 4.13.09 4.13 1.42 0 1.52-1.66 1.52-1.66s.62 1.8 1.41 1.16c1.2-1-.9-2-.9-2 1.23-.08 1.41-.77 1.41-.77"/><path class="71e61d2d-afd4-4158-bb4a-2e328a96922f" d="M334.34 66.52a.83.83 0 0 1-.78.34.52.52 0 0 1-.05.49.49.49 0 0 1-.58.19h-.07v-.07a.39.39 0 0 0-.12-.54.76.76 0 0 0-.39-.08h-1.06v2.85a.87.87 0 0 0 .07.41.4.4 0 0 0 .37.17.47.47 0 0 0 .18-.06h.06v.07a.49.49 0 0 1-.19.58.47.47 0 0 1-.49 0 .85.85 0 0 1-.33.78h.04a.83.83 0 0 1-.34-.78.47.47 0 0 1-.49 0 .49.49 0 0 1-.19-.58v-.07h.07a.39.39 0 0 0 .17.06.39.39 0 0 0 .37-.17.71.71 0 0 0 .07-.4v-2.85h-1.11a.76.76 0 0 0-.39.08.39.39 0 0 0-.12.54l.05.07h-.07a.5.5 0 0 1-.62-.68.8.8 0 0 1-.78-.34.82.82 0 0 1 .78-.33.5.5 0 0 1 .62-.68h.07l-.05.06a.39.39 0 0 0-.06.17.4.4 0 0 0 .18.38.94.94 0 0 0 .4.07h1.1v-1.6a.67.67 0 0 0-.07-.39.38.38 0 0 0-.37-.18.26.26 0 0 0-.17.07h-.07v-.07a.5.5 0 0 1 .68-.62.8.8 0 0 1 .34-.78.82.82 0 0 1 .33.78.5.5 0 0 1 .68.62v.08h-.06a.31.31 0 0 0-.18-.07.39.39 0 0 0-.37.18.85.85 0 0 0-.07.41v1.57h1.05a.94.94 0 0 0 .4-.07.4.4 0 0 0 .18-.38.39.39 0 0 0-.06-.17v-.06h.07a.49.49 0 0 1 .58.19.52.52 0 0 1 .05.49.85.85 0 0 1 .78.33z"/><path class="07073583-4dec-411a-9572-c999f2aa49af" d="M333.55 66.15a.51.51 0 0 0-.63-.68h-.07v.06a.39.39 0 0 1 .06.17.4.4 0 0 1-.18.38.94.94 0 0 1-.4.07h-1.05v-1.54a.85.85 0 0 1 .07-.41.39.39 0 0 1 .37-.18.27.27 0 0 1 .18.07h.06v-.08a.5.5 0 0 0-.68-.62.82.82 0 0 0-.33-.78h.05a.8.8 0 0 0-.34.78.5.5 0 0 0-.68.62v.07h.07a.26.26 0 0 1 .17-.07.38.38 0 0 1 .37.18.67.67 0 0 1 .07.39v1.58h-1.1a.94.94 0 0 1-.4-.07.4.4 0 0 1-.18-.38.39.39 0 0 1 .06-.17l.05-.06h-.07a.5.5 0 0 0-.62.68.82.82 0 0 0-.78.33.8.8 0 0 0 .78.34.5.5 0 0 0 .62.68h.07l-.05-.07a.39.39 0 0 1 .12-.54.76.76 0 0 1 .39-.08h1.11v2.85a.71.71 0 0 1-.07.4.39.39 0 0 1-.37.17.39.39 0 0 1-.17-.06h-.07v.07a.49.49 0 0 0 .19.58.47.47 0 0 0 .49 0 .83.83 0 0 0 .34.78.85.85 0 0 0 .33-.78.47.47 0 0 0 .49 0 .49.49 0 0 0 .19-.58v-.07h-.06a.41.41 0 0 1-.55-.11.87.87 0 0 1-.07-.41v-2.8h1.06a.76.76 0 0 1 .39.08.39.39 0 0 1 .12.54v.07h.07a.51.51 0 0 0 .63-.68.83.83 0 0 0 .78-.34v-.06a.85.85 0 0 0-.78-.33M310.76 51.12h39.89V39.74h-39.89zm30-7.25l1.13.24.2-.56.79.89-.21-2.1.64.53.76-1.48.75 1.48.65-.53-.21 2.1.79-.89.2.56 1.12-.24-.37 1.22.49.16-1.8 1.7.34.55-1.73-.14a3.58 3.58 0 0 0-.14 1.27.8.8 0 0 0 .44.72h-1.18a.78.78 0 0 0 .44-.72 4.23 4.23 0 0 0-.14-1.27l-1.72.14.35-.55-1.81-1.7.5-.16zm-16.92-.93H325v-1h.85a5.85 5.85 0 0 0 1.88-.2c.64-.26 2.3-.85 3.08.31.77-1.16 2.43-.57 3.07-.31a5.91 5.91 0 0 0 1.89.2h.85v1h1.17v6.6h-5.72a1.6 1.6 0 0 0-1.27-.93c-.82 0-1.25.93-1.25.93h-5.72zm-9.84.93l1.12.24.2-.56.79.89-.21-2.1.64.53.76-1.48.76 1.48.64-.53-.21 2.1.79-.89.2.56 1.12-.24-.31 1.22.49.16L319 47l.35.55-1.74-.14a4.23 4.23 0 0 0-.14 1.27.78.78 0 0 0 .44.72h-1.18a.8.8 0 0 0 .44-.72 3.58 3.58 0 0 0-.14-1.27l-1.74.14.35-.55-1.8-1.7.49-.16z"/><path class="07073583-4dec-411a-9572-c999f2aa49af" d="M330.31 42.36c-.46-.69-1.55-.43-2.38-.09a6.25 6.25 0 0 1-2.1.25h-.27v.42h4.8v-.49l-.05-.09M325.56 48h1.46a6.23 6.23 0 0 0 .8-.27 5.39 5.39 0 0 1 2.54-.54v-4.25h-4.8zM335.91 42.52h-.13a6.06 6.06 0 0 1-2.13-.24c-.83-.34-1.92-.6-2.38.1l-.06.08v.49H336v-.42z"/><path class="07073583-4dec-411a-9572-c999f2aa49af" d="M331.2 47.11a5.3 5.3 0 0 1 2.52.53 6.23 6.23 0 0 0 .8.27h1.46v-5h-4.81z"/></g><path class="07073583-4dec-411a-9572-c999f2aa49af" d="M12.1 20.28H9.76v-8.54H2.32v8.54H0V1.79h2.32v8h7.44v-8h2.34zM20.09 20.53A5 5 0 0 1 16.16 19a6.63 6.63 0 0 1-1.4-4.48v-1.67A7.78 7.78 0 0 1 16.1 8a4.46 4.46 0 0 1 3.74-1.74 4.28 4.28 0 0 1 3.61 1.54 7.92 7.92 0 0 1 1.22 4.78v1.47H17v.32a5 5 0 0 0 .83 3.21 2.92 2.92 0 0 0 2.39 1 3.92 3.92 0 0 0 1.78-.34 4.27 4.27 0 0 0 1.41-1.19l1.17 1.43a5.1 5.1 0 0 1-4.49 2.05zm-.25-12.31a2.36 2.36 0 0 0-2.07 1 5.67 5.67 0 0 0-.76 3h5.41v-.3a5.26 5.26 0 0 0-.71-2.79 2.16 2.16 0 0 0-1.87-.91zM33.62 20.28a5.22 5.22 0 0 1-.29-1.5 3.57 3.57 0 0 1-3 1.75 4 4 0 0 1-2.91-1 4 4 0 0 1-1.05-3 4.19 4.19 0 0 1 1.42-3.32A5.89 5.89 0 0 1 31.64 12h1.65v-1.51a2.37 2.37 0 0 0-.54-1.75 2.74 2.74 0 0 0-3.32.08 2 2 0 0 0-.63 1.53h-2.25a3.68 3.68 0 0 1 .62-2 4.46 4.46 0 0 1 1.68-1.51 5.05 5.05 0 0 1 2.35-.54 4.46 4.46 0 0 1 3.2 1 4.1 4.1 0 0 1 1.13 3.05v6.93a8.42 8.42 0 0 0 .47 2.8v.2zm-3-1.79A2.92 2.92 0 0 0 32.2 18a2.77 2.77 0 0 0 1.09-1.14v-3.25H32a4.26 4.26 0 0 0-2.52.72 2.28 2.28 0 0 0-.93 1.94A2.51 2.51 0 0 0 29 18a2 2 0 0 0 1.63.49zM40.68 20.28h-2.25V.78h2.25zM46.66 3.22v3.32h2.07v1.82h-2.07v8.53a2.4 2.4 0 0 0 .26 1.23 1 1 0 0 0 .92.42 2.93 2.93 0 0 0 .9-.15v1.89a4.85 4.85 0 0 1-1.56.25 2.35 2.35 0 0 1-2-1 4.44 4.44 0 0 1-.7-2.69V8.36h-2.15V6.54h2.09V3.22zM52.88 8a4 4 0 0 1 3.28-1.66q3.65 0 3.69 4.86v9.13h-2.23v-9A3.74 3.74 0 0 0 57.08 9a2 2 0 0 0-1.62-.68 2.27 2.27 0 0 0-1.5.56 4.07 4.07 0 0 0-1.08 1.46v10h-2.24V.78h2.24zM76.5 15.61a2.84 2.84 0 0 0-.75-2.12 7.77 7.77 0 0 0-2.7-1.44 11.53 11.53 0 0 1-3-1.46 5.22 5.22 0 0 1-1.55-1.76 4.67 4.67 0 0 1-.5-2.25A4.83 4.83 0 0 1 69.46 3a5.32 5.32 0 0 1 3.84-1.46 5.64 5.64 0 0 1 2.89.73 4.89 4.89 0 0 1 2 2 5.9 5.9 0 0 1 .68 2.84H76.5a3.91 3.91 0 0 0-.83-2.66 3 3 0 0 0-2.37-.94 2.93 2.93 0 0 0-2.18.79 3 3 0 0 0-.78 2.22 2.55 2.55 0 0 0 .84 2 7.43 7.43 0 0 0 2.59 1.42 8.86 8.86 0 0 1 3.9 2.22 5 5 0 0 1 1.18 3.45 4.68 4.68 0 0 1-1.46 3.6 5.65 5.65 0 0 1-4 1.35 6.37 6.37 0 0 1-3-.7 5.34 5.34 0 0 1-2.15-2 5.51 5.51 0 0 1-.78-2.93h2.34a3.64 3.64 0 0 0 1 2.67 3.56 3.56 0 0 0 2.61.95 3.07 3.07 0 0 0 2.31-.79 2.9 2.9 0 0 0 .78-2.15zM86 18.62a2.37 2.37 0 0 0 1.79-.7 2.94 2.94 0 0 0 .73-2h2.12a4.68 4.68 0 0 1-1.4 3.28A4.44 4.44 0 0 1 86 20.53a4.77 4.77 0 0 1-3.89-1.6 7.29 7.29 0 0 1-1.34-4.78v-1.51a7.27 7.27 0 0 1 1.33-4.73A4.73 4.73 0 0 1 86 6.29a4.35 4.35 0 0 1 3.35 1.33 5.46 5.46 0 0 1 1.31 3.65h-2.15A3.71 3.71 0 0 0 87.78 9 2.24 2.24 0 0 0 86 8.22a2.58 2.58 0 0 0-2.22 1 5.74 5.74 0 0 0-.78 3.21v1.76a6.08 6.08 0 0 0 .72 3.42A2.6 2.6 0 0 0 86 18.62zM95.17 2.9a1.43 1.43 0 0 1-.31 1 1.18 1.18 0 0 1-1 .38 1.15 1.15 0 0 1-1-.38 1.44 1.44 0 0 1-.32-1 1.53 1.53 0 0 1 .32-1 1.35 1.35 0 0 1 1.91 0 1.46 1.46 0 0 1 .4 1zM95 20.28h-2.25V6.54H95zM102.69 20.53A5 5 0 0 1 98.75 19a6.63 6.63 0 0 1-1.4-4.48v-1.67A7.78 7.78 0 0 1 98.69 8a4.46 4.46 0 0 1 3.74-1.74A4.28 4.28 0 0 1 106 7.83a7.92 7.92 0 0 1 1.22 4.78v1.47h-7.63v.32a5 5 0 0 0 .83 3.21 2.92 2.92 0 0 0 2.39 1 3.92 3.92 0 0 0 1.75-.38 4.27 4.27 0 0 0 1.44-1.18l1.17 1.43a5.09 5.09 0 0 1-4.48 2.05zm-.26-12.31a2.36 2.36 0 0 0-2.07 1 5.67 5.67 0 0 0-.76 3h5.4v-.3a5.26 5.26 0 0 0-.71-2.79 2.16 2.16 0 0 0-1.86-.91zM111.55 6.54l.06 1.46A4 4 0 0 1 115 6.29q3.64 0 3.69 4.86v9.13h-2.23v-9a3.74 3.74 0 0 0-.59-2.28 2 2 0 0 0-1.62-.68 2.27 2.27 0 0 0-1.5.56 4.07 4.07 0 0 0-1.08 1.46v10h-2.24V6.54zM126.16 18.62a2.37 2.37 0 0 0 1.79-.7 2.89 2.89 0 0 0 .73-2h2.12a4.64 4.64 0 0 1-1.4 3.28 4.43 4.43 0 0 1-3.24 1.3 4.77 4.77 0 0 1-3.89-1.6 7.29 7.29 0 0 1-1.34-4.78v-1.48a7.27 7.27 0 0 1 1.33-4.73 4.74 4.74 0 0 1 3.89-1.62 4.32 4.32 0 0 1 3.34 1.33 5.41 5.41 0 0 1 1.31 3.65h-2.12A3.78 3.78 0 0 0 128 9a2.26 2.26 0 0 0-1.81-.76 2.61 2.61 0 0 0-2.23 1 5.74 5.74 0 0 0-.75 3.23v1.76a6.08 6.08 0 0 0 .72 3.42 2.61 2.61 0 0 0 2.23.97zM137.76 20.53a5 5 0 0 1-3.93-1.53 6.58 6.58 0 0 1-1.4-4.48v-1.67A7.78 7.78 0 0 1 133.77 8a4.45 4.45 0 0 1 3.74-1.74 4.25 4.25 0 0 1 3.6 1.54 7.78 7.78 0 0 1 1.22 4.78v1.47h-7.67v.32a5 5 0 0 0 .84 3.21 2.92 2.92 0 0 0 2.39 1 3.84 3.84 0 0 0 1.74-.38 4.2 4.2 0 0 0 1.42-1.19l1.17 1.43a5.11 5.11 0 0 1-4.46 2.09zm-.25-12.31a2.36 2.36 0 0 0-2.07 1 5.67 5.67 0 0 0-.76 3h5.4v-.3a5.18 5.18 0 0 0-.7-2.79 2.16 2.16 0 0 0-1.87-.91zM150.92 16.76a1.67 1.67 0 0 0-.54-1.24 8.27 8.27 0 0 0-2.11-1.22 14.07 14.07 0 0 1-2.56-1.3 3.6 3.6 0 0 1-1.11-1.21 3.34 3.34 0 0 1-.37-1.62 3.6 3.6 0 0 1 1.23-2.79 5 5 0 0 1 6.35.06 4 4 0 0 1 1.22 3h-2.24a2.2 2.2 0 0 0-.62-1.58 2.1 2.1 0 0 0-1.59-.65 2.23 2.23 0 0 0-1.55.51 1.75 1.75 0 0 0-.57 1.37 1.5 1.5 0 0 0 .42 1.11 7.56 7.56 0 0 0 2 1.1 10 10 0 0 1 3.41 1.91 3.27 3.27 0 0 1 .9 2.37 3.62 3.62 0 0 1-1.23 2.87 4.82 4.82 0 0 1-3.3 1.07 4.93 4.93 0 0 1-3.48-1.23 4.06 4.06 0 0 1-1.34-3.12h2.26a2.69 2.69 0 0 0 4.26 1.93 1.67 1.67 0 0 0 .56-1.34zM91.93 49.28h7.25v2H89.6V32.79h2.33zM103.69 33.89a1.44 1.44 0 0 1-.32 1 1.16 1.16 0 0 1-1 .38 1.17 1.17 0 0 1-1-.38 1.43 1.43 0 0 1-.31-1 1.48 1.48 0 0 1 .31-1 1.34 1.34 0 0 1 1.91 0 1.47 1.47 0 0 1 .41 1zm-.18 17.38h-2.25V37.53h2.25zM116.29 45.06a8.27 8.27 0 0 1-1.16 4.84 3.85 3.85 0 0 1-3.35 1.62 3.55 3.55 0 0 1-3.27-1.87l-.12 1.62h-2v-19.5h2.23v7.28a3.54 3.54 0 0 1 3.18-1.77 3.88 3.88 0 0 1 3.39 1.6 8.48 8.48 0 0 1 1.14 4.82zm-2.23-1.28a6.61 6.61 0 0 0-.68-3.47 2.46 2.46 0 0 0-2.21-1 2.76 2.76 0 0 0-2.59 1.88v6.53a2.75 2.75 0 0 0 2.62 1.85 2.37 2.37 0 0 0 2.18-1.06 6.55 6.55 0 0 0 .68-3.31zM124.29 39.64a5.45 5.45 0 0 0-1-.09 2.47 2.47 0 0 0-2.41 1.89v9.83h-2.25V37.53h2.19v1.4a2.82 2.82 0 0 1 2.56-1.65 2 2 0 0 1 .89.18zM132.94 51.27a5.14 5.14 0 0 1-.29-1.5 3.55 3.55 0 0 1-3.05 1.75 3.93 3.93 0 0 1-2.91-1 4 4 0 0 1-1-2.95 4.18 4.18 0 0 1 1.43-3.33 5.84 5.84 0 0 1 3.88-1.3h1.65v-1.46a2.37 2.37 0 0 0-.54-1.75 2.74 2.74 0 0 0-3.32.08 2.05 2.05 0 0 0-.63 1.53h-2.25a3.68 3.68 0 0 1 .62-2 4.35 4.35 0 0 1 1.68-1.5 5 5 0 0 1 2.35-.55 4.46 4.46 0 0 1 3.2 1 4.07 4.07 0 0 1 1.13 3.05v6.93a8.42 8.42 0 0 0 .43 2.76v.2zm-3-1.79a2.92 2.92 0 0 0 1.57-.46 2.77 2.77 0 0 0 1.09-1.14v-3.27h-1.27a4.21 4.21 0 0 0-2.52.71 2.28 2.28 0 0 0-.93 1.94 2.51 2.51 0 0 0 .47 1.69 2 2 0 0 0 1.65.53zM143.3 39.64a5.38 5.38 0 0 0-1-.09 2.47 2.47 0 0 0-2.41 1.89v9.83h-2.25V37.53h2.19v1.4a2.79 2.79 0 0 1 2.55-1.65 2 2 0 0 1 .89.18zM149.34 47.54l2.5-10h2.39l-4.49 15.68a6.12 6.12 0 0 1-1.44 2.69 2.93 2.93 0 0 1-2.1.92 4.6 4.6 0 0 1-1.17-.2v-1.92h.49a2.31 2.31 0 0 0 1.53-.46 3.33 3.33 0 0 0 .9-1.61l.44-1.53-4-13.63h2.45z"/></svg>