<svg id="White" xmlns="http://www.w3.org/2000/svg" viewBox="0 0 173.41 43.28"><title>Artboard 1</title><g opacity=".99" fill="#fff"><path d="M31.16 20.11h2a1.74 1.74 0 0 1 1.75 1 6.7 6.7 0 0 1 .29 2.05 5.42 5.42 0 0 1-.4 2.62c-.35.56-1 .84-2.14.84h-1.5zm.84 5.78h.78c1.15 0 1.58-.43 1.58-1.94v-1.32c0-1.31-.41-1.8-1.27-1.8H32zM37.1 24.58c0 1.27.34 1.52.92 1.52a.82.82 0 0 0 .79-.86h.81A1.38 1.38 0 0 1 38 26.7c-1 0-1.73-.29-1.73-2.3 0-1.33.15-2.43 1.73-2.43 1.3 0 1.62.71 1.62 2.21v.39zm1.77-.58c0-1.32-.37-1.49-.91-1.49s-.85.22-.86 1.49zM41.5 22.61a1.13 1.13 0 0 1 1-.63c.73 0 1.47.29 1.47 2.29 0 1.13 0 2.44-1.5 2.44a1.15 1.15 0 0 1-1-.55v2.18h-.74v-6.27h.74zm1.76 1.66c0-.68 0-1.68-.93-1.68s-.83 1.26-.83 2 0 1.57.86 1.57.89-.68.89-1.9zM47.36 26a1.11 1.11 0 0 1-1.14.75c-1 0-1.24-.62-1.24-1.49 0-1.38 1.35-1.44 2.39-1.41 0-.6 0-1.26-.77-1.26a.67.67 0 0 0-.71.81h-.8c0-1 .58-1.37 1.54-1.37 1.17 0 1.48.6 1.48 1.37v2.19a7.18 7.18 0 0 0 .09 1.08h-.81zm-1.67-.69c0 .44.22.84.71.84s1-.28.94-1.75c-.7-.04-1.65-.1-1.65.86zM50.1 22.75c.31-.69.68-.77 1.4-.77v.77h-.4c-.82 0-1 .62-1 1.23v2.68h-.74v-4.59h.74zM52.23 22.07v-.87l.74-.33v1.21h1v.56H53v2.78c0 .29 0 .66.68.66L54 26v.57c-.24 0-.49.07-.73.07-.7 0-1-.29-1-.81v-3.2h-.75v-.56zM56.71 26.61v-3.15c0-.46-.13-.88-.72-.88a.85.85 0 0 0-.64.31 1.35 1.35 0 0 0-.17.67v3.06h-.74V23v-.95h.78v.57a1.1 1.1 0 0 1 1.11-.62 1.11 1.11 0 0 1 1.06.58 1.09 1.09 0 0 1 1.08-.58 1.08 1.08 0 0 1 1.24 1.18v3.46H59v-3.18c0-.46-.13-.88-.72-.88a.67.67 0 0 0-.56.17 1.19 1.19 0 0 0-.25.8v3.06zM61.51 24.58c0 1.27.34 1.52.92 1.52a.82.82 0 0 0 .79-.86H64a1.38 1.38 0 0 1-1.58 1.47c-1 0-1.73-.29-1.73-2.3 0-1.33.15-2.43 1.73-2.43 1.3 0 1.62.71 1.62 2.21v.39zm1.78-.58c0-1.32-.37-1.49-.91-1.49s-.85.22-.86 1.49zM67.58 26.61v-3.15c0-.49-.17-.88-.8-.88-.81 0-.93.72-.93 1.34v2.69h-.74V23v-.95h.78v.58A1.2 1.2 0 0 1 67.1 22c1 0 1.22.58 1.22 1.49v3.15zM69.51 22.07v-.87l.74-.33v1.21h1v.56h-1v2.78c0 .29 0 .66.68.66h.33v.57c-.24 0-.49.07-.73.07-.7 0-1-.29-1-.81v-3.28h-.75v-.56zM73.45 24.41c0-1.33.15-2.43 1.73-2.43s1.73 1.1 1.73 2.43c0 2-.77 2.3-1.73 2.3s-1.73-.29-1.73-2.3zm2.68-.32c0-1.24-.39-1.51-1-1.51s-1 .27-1 1.51c0 1.48.19 2 1 2s1-.52 1-2zM78 22.07v-.88c0-.92.65-1.1 1.31-1.1a1.92 1.92 0 0 1 .35 0v.53c-.78-.05-.92.28-.92.65v.77h.92v.56h-.92v4H78v-4h-.7v-.56zM10.73 36.91v-6.5h3.35v.72h-2.52v2.09h2.34v.72h-2.34v2.25h2.57v.72zM17.44 36.91v-3.15c0-.49-.17-.88-.8-.88-.81 0-.93.72-.93 1.34v2.69H15v-3.6-.95h.78V33a1.2 1.2 0 0 1 1.22-.72c1 0 1.22.58 1.22 1.49v3.15zM21.7 32.37h.74v5c0 1-.68 1.26-1.67 1.26-.76 0-1.44-.38-1.38-1.22h.83a.63.63 0 0 0 .69.66.73.73 0 0 0 .79-.78v-.95a1.14 1.14 0 0 1-1 .57c-1.23 0-1.48-1.06-1.48-2.41 0-2.09 1.05-2.22 1.42-2.22a1.09 1.09 0 0 1 1.06.65zm-.86.52c-.84 0-.86 1-.86 1.61 0 1.46.33 1.8.88 1.8.89 0 .86-1.05.86-1.68s.04-1.73-.89-1.73zM23.55 30.41h.83v.79h-.83zm.78 6.5h-.73v-4.54h.74zM27.9 36.91v-3.15c0-.49-.17-.88-.8-.88-.81 0-.93.72-.93 1.34v2.69h-.74v-3.6-.95h.78V33a1.2 1.2 0 0 1 1.22-.67c1 0 1.22.58 1.22 1.49v3.15zM30.47 34.88c0 1.27.34 1.52.92 1.52a.82.82 0 0 0 .79-.86H33A1.38 1.38 0 0 1 31.41 37c-1 0-1.73-.29-1.73-2.3 0-1.33.15-2.43 1.73-2.43 1.3 0 1.62.71 1.62 2.21v.39zm1.77-.56c0-1.32-.37-1.49-.91-1.49s-.86.22-.86 1.49zM34.79 34.88c0 1.27.34 1.52.92 1.52a.82.82 0 0 0 .79-.86h.81A1.38 1.38 0 0 1 35.73 37c-1 0-1.73-.29-1.73-2.3 0-1.33.15-2.43 1.73-2.43 1.3 0 1.62.71 1.62 2.21v.39zm1.77-.56c0-1.32-.37-1.49-.91-1.49s-.86.22-.86 1.49zM39.16 33.05c.31-.69.68-.77 1.4-.77V33h-.4c-.82 0-1 .62-1 1.23v2.68h-.74v-4.54h.74zM41.15 30.41H42v.79h-.83zm.78 6.5h-.74v-4.54h.74zM45.49 36.91v-3.15c0-.49-.17-.88-.8-.88-.81 0-.93.72-.93 1.34v2.69H43v-3.6-.95h.78V33a1.2 1.2 0 0 1 1.22-.72c1 0 1.22.58 1.22 1.49v3.15zM49.75 32.37h.74v5c0 1-.68 1.26-1.67 1.26-.76 0-1.44-.38-1.38-1.22h.83a.63.63 0 0 0 .69.66.73.73 0 0 0 .79-.78v-.95a1.14 1.14 0 0 1-1 .57c-1.23 0-1.48-1.06-1.48-2.41 0-2.09 1.05-2.22 1.42-2.22a1.09 1.09 0 0 1 1.06.65zm-.86.52c-.84 0-.86 1-.86 1.61 0 1.46.33 1.8.88 1.8.89 0 .86-1.05.86-1.68s.04-1.73-.88-1.73zM53.67 36.91v-6.5h1.93a1.62 1.62 0 0 1 1.81 1.85A1.68 1.68 0 0 1 55.59 34H54.5v2.86zm.83-3.58h.91a1 1 0 0 0 1.15-1.11c0-1-.74-1.09-.92-1.09H54.5zM60.77 36.91v-3.08c0-.56-.18-1-.81-1s-.93.59-.93 1.36v2.67h-.73v-6.5h.7V33a1.2 1.2 0 0 1 1.23-.67c.77 0 1.21.39 1.21 1.41v3.22zM64 36.07l1.09-3.7h.8l-2.06 6.27h-.77l.51-1.72-1.54-4.55h.86zM67.79 37c-1 0-1.59-.43-1.57-1.48h.84c0 .26 0 .87.76.87.44 0 .78-.22.78-.69 0-.81-2.27-.83-2.27-2.19 0-.48.29-1.24 1.57-1.24.81 0 1.5.39 1.44 1.29h-.82a.64.64 0 0 0-.71-.73.62.62 0 0 0-.7.61c0 .8 2.27.78 2.27 2.17-.01 1.01-.69 1.39-1.59 1.39zM70.2 30.41h.8v.79h-.8zm.78 6.5h-.74v-4.54H71zM74.46 33.83c0-.75-.35-.95-.63-.95-.57 0-1 .27-1 1.51 0 1.48.19 2 1 2 .17 0 .68-.18.66-1h.77A1.43 1.43 0 0 1 73.82 37c-1 0-1.73-.29-1.73-2.3 0-1.33.15-2.43 1.73-2.43a1.3 1.3 0 0 1 1.4 1.55zM77.74 37c-1 0-1.59-.43-1.57-1.48H77c0 .26 0 .87.76.87.44 0 .78-.22.78-.69 0-.81-2.27-.83-2.27-2.19 0-.48.29-1.24 1.57-1.24.81 0 1.5.39 1.44 1.29h-.82a.64.64 0 0 0-.71-.73.62.62 0 0 0-.7.61c0 .8 2.27.78 2.27 2.17 0 1.01-.68 1.39-1.58 1.39z"/></g><path fill="#fff" d="M1.38 11.38h3.45v-1.22H1.38V7.22H5.1V6.01H0v9.76h5.18v-1.22h-3.8v-3.17zM13.95 6.01H12.7v8.01L9.08 6.05l-.02-.04H7.21v9.76h1.24V7.65l3.68 8.07.02.05h1.8V6.01zM19 16a6 6 0 0 0 3-.73v-4.84h-3.13v1.21h1.77v2.76a3 3 0 0 1-1.64.39c-1 0-1.69-.43-1.69-2.56V9c0-1.74 1.06-2 1.69-2 1.13 0 1.63.51 1.63 1.67v.08h1.42v-.1a2.74 2.74 0 0 0-.6-2.1A3.24 3.24 0 0 0 19 5.81c-2 0-3.1 1.14-3.1 3.22v3.15c.01 2.62.96 3.82 3.1 3.82zM24.72 6.01h1.38v9.76h-1.38zM30.1 7.65l3.68 8.07.02.05h1.8V6.01h-1.24v8.01l-3.63-7.97-.02-.04h-1.85v9.76h1.24V7.65zM43.26 14.55h-3.81v-3.17h3.46v-1.22h-3.46V7.22h3.73V6.01h-5.1v9.76h5.18v-1.22zM50.4 14.55h-3.81v-3.17h3.46v-1.22h-3.46V7.22h3.73V6.01h-5.1v9.76h5.18v-1.22zM53.71 11.35h1.36a1.2 1.2 0 0 1 1.38 1.16c0 .37 0 .74.06 1.1a5.61 5.61 0 0 0 .32 2.13h1.42v-.1a14.46 14.46 0 0 1-.33-2.5c-.06-1.78-.42-2.28-1.35-2.49a2.16 2.16 0 0 0 1.53-2.2A2.24 2.24 0 0 0 55.72 6h-3.38v9.76h1.37zm0-4.12h1.77a1.24 1.24 0 0 1 1.22 1.38c0 .7-.32 1.52-1.23 1.52h-1.76zM60.41 6.01h1.38v9.76h-1.38zM71.28 6.01h-1.24v8.01l-3.62-7.97-.02-.04h-1.85v9.76h1.24V7.65l3.67 8.07.02.05h1.8V6.01zM76.46 5.81c-2 0-3.1 1.14-3.1 3.22v3.15c0 2.62 1 3.79 3.1 3.79a6 6 0 0 0 3-.73v-4.81h-3.13v1.21h1.77v2.76a3 3 0 0 1-1.64.39c-1 0-1.69-.43-1.69-2.56V9c0-1.74 1.06-2 1.69-2 1.13 0 1.63.51 1.63 1.67v.08h1.42v-.1a2.74 2.74 0 0 0-.6-2.1 3.24 3.24 0 0 0-2.45-.74zM90.3 0h.4v43.28h-.4zM115 15.15a.75.75 0 0 0-.54-.13h-.06a.68.68 0 0 1-.62-.23 3.23 3.23 0 0 1-.18-1.35V4.8v-.25a2.64 2.64 0 0 1 .13-1.2c.1-.14.36-.13.57-.12h.14c.52 0 .57-.33.57-.48a.38.38 0 0 0-.11-.29.57.57 0 0 0-.45-.08h-2.18a.56.56 0 0 0-.62.37l-3.69 9.52-3.26-9.16v-.15c-.08-.28-.16-.57-.56-.57h-2.34a.57.57 0 0 0-.45.08.38.38 0 0 0-.11.29c0 .14.06.48.57.48s.68 0 .79.14.12.4.08.95l-.57 9.22c-.06 1.1-.12 1.49-1 1.49-.53 0-.61.25-.61.4s.07.38.43.38h3.32c.28 0 .54 0 .54-.38a.36.36 0 0 0-.1-.26.8.8 0 0 0-.57-.14 1.06 1.06 0 0 1-.81-.28c-.35-.37-.34-1.09-.28-2l.52-8.22L107 14.82c0 .17.12.49.4.49s.32-.25.38-.41v-.06l4-10.55v9.18c0 .36 0 1-.24 1.27a1.3 1.3 0 0 1-.78.26h-.06a.75.75 0 0 0-.54.13.37.37 0 0 0-.11.27c0 .17.08.38.48.38h4c.3 0 .48-.21.48-.38a.37.37 0 0 0-.01-.25z"/><path d="M122.1 8.78c-.32 0-.53-.38-.8-.86-.38-.68-.86-1.53-1.76-1.53a3.08 3.08 0 0 0-1.89.85 4.8 4.8 0 0 0-1.37 3.41c0 2.08 1.35 4.33 3.53 4.33a2.87 2.87 0 0 0 2.15-.91c.12-.14.22-.26.35-.26a.29.29 0 0 1 .27.3c0 .12-.07.34-.63.87a4.31 4.31 0 0 1-2.92 1.1 4.81 4.81 0 0 1-4.5-5 5.35 5.35 0 0 1 5.2-5.35 4.53 4.53 0 0 1 2.48.74c.26.2.23.57.22.87v.29a1.56 1.56 0 0 1-.15 1 .3.3 0 0 1-.18.15zM137.07 15.15a.75.75 0 0 0-.54-.13h-.06a.68.68 0 0 1-.62-.23 3.23 3.23 0 0 1-.18-1.35V4.8v-.25a2.64 2.64 0 0 1 .13-1.2c.1-.14.36-.13.57-.12h.14c.52 0 .57-.33.57-.48a.38.38 0 0 0-.11-.29.57.57 0 0 0-.45-.08h-2.18a.56.56 0 0 0-.62.37L130 12.27l-3.26-9.16v-.15c-.08-.28-.16-.57-.56-.57h-2.26a.57.57 0 0 0-.45.08.38.38 0 0 0-.11.29c0 .14.06.48.57.48s.68 0 .79.14.12.4.08.95l-.57 9.22c-.06 1.1-.12 1.49-1 1.49-.53 0-.61.25-.61.4s.07.38.43.38h3.32c.28 0 .54 0 .54-.38a.36.36 0 0 0-.1-.26.8.8 0 0 0-.57-.14 1.06 1.06 0 0 1-.81-.28c-.35-.37-.34-1.09-.28-2l.52-8.22 3.55 10.28c0 .17.12.49.4.49s.32-.25.38-.41v-.06l4-10.55v9.18c0 .36 0 1-.24 1.27a1.3 1.3 0 0 1-.78.26h-.06a.75.75 0 0 0-.54.13.37.37 0 0 0-.11.27c0 .17.08.38.48.38h4c.3 0 .48-.21.48-.38a.37.37 0 0 0-.16-.25z" fill="#fff"/><path d="M141.52 10.3c.66-.34.66-.34.66-1.1v-1c0-1.13-.08-1.82-1.13-1.82s-1.64.5-2.15 1.74v.1a1.26 1.26 0 0 1-.57.75 2.33 2.33 0 0 1-.89.29.34.34 0 0 1-.38-.39 2.55 2.55 0 0 1 .85-1.63 5.32 5.32 0 0 1 3.6-1.54 2.54 2.54 0 0 1 1.88.61 1.74 1.74 0 0 1 .43 1.45v5.37c0 .35 0 1.16.29 1.46a.35.35 0 0 0 .26.11.8.8 0 0 0 .56-.33c.11-.11.2-.21.32-.21a.29.29 0 0 1 .27.3c0 .28-.32.59-.49.75a2.59 2.59 0 0 1-1.48.66c-.71 0-1-.7-1.18-1.17a1.39 1.39 0 0 0-.17-.35h.05a2.38 2.38 0 0 0-.26.22 4.66 4.66 0 0 1-2.99 1.49 1.86 1.86 0 0 1-2-1.84c0-1.56 1.7-2.47 2.83-3.08l.13-.07zm-1.3 1.44c-.76.43-1.47 1-1.47 1.92a1.12 1.12 0 0 0 1.25 1.15 2.42 2.42 0 0 0 1.74-.82 1.88 1.88 0 0 0 .46-1.54v-1.3-.06-.42H142.03zM145.87 13c0-.18.06-.56.38-.56s.43.42.52.9c.17.87.4 2.07 2.05 2.07a2.11 2.11 0 0 0 2.26-2c0-1.2-.93-1.64-1.8-2l-.18-.06c-1.23-.43-2.91-1-2.91-2.8a2.66 2.66 0 0 1 1.09-2.12 3.75 3.75 0 0 1 2.4-.73 6.68 6.68 0 0 1 2.07.37c.35.18.32.58.3.89V7.26c0 .39.05.81-.12 1a.28.28 0 0 1-.21.09c-.25 0-.35-.26-.48-.59a1.85 1.85 0 0 0-1.91-1.46 1.64 1.64 0 0 0-1.67 1.48c0 1.08 1 1.44 2.06 1.85 1.33.5 2.83 1.07 2.83 3.08 0 2.28-2.25 3.3-3.84 3.3a6.22 6.22 0 0 1-2.56-.67c-.35-.17-.34-.49-.34-.79v-.1zM158 14.51a.29.29 0 0 0-.27-.28c-.1 0-.18.08-.34.21a1.74 1.74 0 0 1-1.07.55.78.78 0 0 1-.58-.22 3.4 3.4 0 0 1-.45-2.15V7.06c0-.21 0-.29.07-.32s.17 0 .32 0h1.51c.17 0 .31 0 .41-.08a.53.53 0 0 0 .11-.4c0-.16 0-.43-.31-.43h-1.93c-.16 0-.19 0-.19-.31V4c0-.32-.16-.39-.29-.39s-.28.2-.31.27A4.7 4.7 0 0 1 152.9 6a.5.5 0 0 0-.23.38.27.27 0 0 0 .09.21.8.8 0 0 0 .59.1h.18a.55.55 0 0 1 .2 0v6.16a4.23 4.23 0 0 0 .46 2.47 1.86 1.86 0 0 0 1.51.72 2.71 2.71 0 0 0 1.9-.85 1.16 1.16 0 0 0 .4-.68zM166.2 13.44c-.12 0-.22.1-.41.29a3.32 3.32 0 0 1-2.48 1.13c-2.41 0-3.66-2.22-3.66-4.41 0-.26 0-.42.09-.48s.23-.07.48-.07h6c.11 0 .36 0 .36-.5a4.29 4.29 0 0 0-.71-2.26 3.56 3.56 0 0 0-2.87-1.4 5.09 5.09 0 0 0-3.61 1.48 4.76 4.76 0 0 0-1.43 3.71c0 2.87 2 5.12 4.57 5.12a4.32 4.32 0 0 0 3.18-1.25c.55-.52.79-.84.79-1.06a.29.29 0 0 0-.3-.3zm-5.93-5.66a2.92 2.92 0 0 1 2.43-1.39 2.08 2.08 0 0 1 1.6.62 2 2 0 0 1 .48 1.19.7.7 0 0 1-.63.74 11.21 11.21 0 0 1-2.23.17h-1.68c-.13 0-.33 0-.41-.06a.12.12 0 0 1 0-.09 2.88 2.88 0 0 1 .44-1.18zM172.17 5.85c-1 0-1.74 1-2.12 1.47l-.16.21a1.77 1.77 0 0 1 0-.2V6.17a.46.46 0 0 0-.09-.34.29.29 0 0 0-.21-.08.53.53 0 0 0-.39.26l-.06.08a4.2 4.2 0 0 1-1.56 1.08h-.08c-.17.06-.46.15-.46.46s.14.3.36.3h.25a.64.64 0 0 1 .47.13 2.94 2.94 0 0 1 .16 1.23V13.78c0 .82 0 1.21-.77 1.29h-.1c-.2 0-.56 0-.56.43 0 .22.15.35.4.35h3.73a.34.34 0 0 0 .36-.37c0-.36-.37-.39-.58-.41h-.09c-.77-.08-.79-.48-.77-1.29V9.93a3.23 3.23 0 0 1 .43-2c.21-.29.52-.73.89-.73.19 0 .3.13.46.33a1 1 0 0 0 .8.49.93.93 0 0 0 1-1 1.18 1.18 0 0 0-1.31-1.17zM106.88 20.16v-.06a3.61 3.61 0 0 0-.11-1.12c-.1-.21-.31-.22-.57-.22a.47.47 0 0 1-.34-.09.27.27 0 0 1-.08-.2.28.28 0 0 1 .08-.2.4.4 0 0 1 .29-.1h1.9c.33 0 .37.2.37.29s-.17.3-.49.3-.45.21-.46.73v4.15a2.53 2.53 0 0 1-.66 2.1 3.08 3.08 0 0 1-2.22.71 3.65 3.65 0 0 1-2.19-.61 2.33 2.33 0 0 1-.72-2.12v-4.2c0-.34 0-.56-.09-.65s-.23-.1-.52-.1-.41-.1-.41-.29a.3.3 0 0 1 .08-.22.33.33 0 0 1 .24-.08h2.56a.29.29 0 0 1 .32.3c0 .19-.14.29-.42.29s-.45 0-.52.1-.09.32-.09.65v3.84a4.35 4.35 0 0 0 .17 1.74c.38.7 1.42.76 1.73.76a2.36 2.36 0 0 0 1.74-.64 2.15 2.15 0 0 0 .38-1.55v-3.51zM114.37 25.77c-.39 0-.41-.21-.4-.7v-2.31a2.84 2.84 0 0 0-.36-1.72 1.67 1.67 0 0 0-1.44-.73 2.47 2.47 0 0 0-1.66.84l-.08.07v-.6a.33.33 0 0 0-.07-.25.22.22 0 0 0-.16-.06.35.35 0 0 0-.27.17 2.4 2.4 0 0 1-.88.61c-.11 0-.3.1-.3.32a.24.24 0 0 0 .27.23H109c.14 0 .21 0 .23.06s.08.19.08.68v2.63c0 .49 0 .66-.4.7h-.06c-.11 0-.38 0-.38.3a.26.26 0 0 0 .29.26h2.14a.25.25 0 0 0 .27-.27c0-.26-.27-.28-.39-.29-.39 0-.41-.21-.4-.7v-2.27a1.43 1.43 0 0 1 1.36-1.58 1.08 1.08 0 0 1 1 .51 2.48 2.48 0 0 1 .19 1.19v2.21c0 .49 0 .66-.4.7h-.06c-.11 0-.38 0-.38.3a.26.26 0 0 0 .29.26h2.14a.25.25 0 0 0 .27-.27c-.04-.26-.31-.28-.42-.29zM116 18.74a.7.7 0 0 1 .64-.76.68.68 0 0 1 .61.74c0 .46-.25.76-.63.76a.66.66 0 0 1-.62-.74zm1.14 6.12v.21c0 .49 0 .66.4.7.12 0 .39 0 .39.29a.25.25 0 0 1-.27.27h-2.14a.26.26 0 0 1-.29-.26c0-.28.27-.3.38-.3h.06c.39 0 .41-.21.4-.7v-2.62c0-.49 0-.64-.08-.68s-.1-.06-.23-.06h-.15a.24.24 0 0 1-.27-.23c0-.22.2-.29.3-.32a2.4 2.4 0 0 0 .88-.61.35.35 0 0 1 .27-.17.22.22 0 0 1 .16.06.33.33 0 0 1 .07.25v4.24zM124.07 20.52a.22.22 0 0 0-.18 0h-1.71c-.07 0-.3 0-.3.24s.33.27.44.27.31 0 .31.21a1.65 1.65 0 0 1-.11.41v.1l-1.21 3-1-2.86a2.32 2.32 0 0 1-.16-.55c0-.18.18-.23.29-.23a.46.46 0 0 0 .34-.08.22.22 0 0 0 .07-.17.26.26 0 0 0-.07-.19.33.33 0 0 0-.25-.07h-2.1a.28.28 0 0 0-.21.06.24.24 0 0 0-.06.18c0 .18.12.27.34.27s.41.16.56.57v.08l1.65 4.44.07.16a.25.25 0 0 0 .22.21c.16 0 .24-.19.29-.32l1.63-3.92.08-.33c.17-.44.36-.93.76-1 .1 0 .36 0 .36-.29a.23.23 0 0 0-.05-.19zM129 24.8c-.09 0-.16.07-.28.18a1.88 1.88 0 0 1-1.4.64 2.27 2.27 0 0 1-2.07-2.52v-.24a.58.58 0 0 1 .24 0h3.5c.06 0 .27 0 .27-.34a2.56 2.56 0 0 0-.42-1.35 2.12 2.12 0 0 0-1.74-.83 3 3 0 0 0-2.13.88 2.82 2.82 0 0 0-.86 2.2 2.86 2.86 0 0 0 2.72 3 2.57 2.57 0 0 0 1.89-.75c.42-.4.47-.56.47-.66a.22.22 0 0 0-.19-.21zm-3.4-3.22a1.64 1.64 0 0 1 1.4-.78 1.15 1.15 0 0 1 .89.34 1.1 1.1 0 0 1 .26.66c0 .21-.09.32-.32.38a6.45 6.45 0 0 1-1.28.1h-1.2a1.65 1.65 0 0 1 .3-.69zM133.11 20.39a1.72 1.72 0 0 0-1.27.87v-.63a.32.32 0 0 0-.07-.25.22.22 0 0 0-.16-.06.35.35 0 0 0-.27.17 2.4 2.4 0 0 1-.88.61c-.11 0-.3.1-.3.32a.24.24 0 0 0 .27.23h.15c.14 0 .21 0 .23.06s.08.19.08.68v2.63c0 .49 0 .66-.4.7h-.06c-.11 0-.38 0-.38.3a.26.26 0 0 0 .29.26h2.14a.25.25 0 0 0 .27-.27c0-.26-.27-.28-.39-.29-.39 0-.41-.21-.4-.7v-2.21a1.8 1.8 0 0 1 .24-1.13c.11-.16.29-.4.47-.4s.14.06.22.17a.63.63 0 0 0 .51.31.59.59 0 0 0 .61-.64.74.74 0 0 0-.9-.73zM134.36 24.61c0-.11 0-.38.27-.38s.3.28.35.57c.1.52.22 1.16 1.14 1.16a1.17 1.17 0 0 0 1.26-1.11c0-.6-.39-.86-1-1.09h-.1c-.73-.26-1.73-.61-1.73-1.68a1.61 1.61 0 0 1 .65-1.28 2.21 2.21 0 0 1 1.43-.44 3.87 3.87 0 0 1 1.23.22c.24.12.22.38.21.57s0 .08 0 .11v.05a.91.91 0 0 1-.09.62.22.22 0 0 1-.16.07c-.18 0-.25-.18-.33-.38a1 1 0 0 0-1.06-.81.9.9 0 0 0-.92.81c0 .59.54.79 1.16 1 .79.3 1.69.64 1.69 1.84a2.14 2.14 0 0 1-2.3 2 3.64 3.64 0 0 1-1.51-.4c-.23-.11-.23-.32-.22-.51v-.06zM140.53 19.47c.38 0 .63-.31.63-.76a.68.68 0 0 0-.61-.74.7.7 0 0 0-.64.76.66.66 0 0 0 .62.74zM141.5 25.77c-.39 0-.41-.21-.4-.7v-4.45a.33.33 0 0 0-.07-.25.22.22 0 0 0-.16-.06.35.35 0 0 0-.27.17 2.41 2.41 0 0 1-.88.61c-.11 0-.3.1-.3.32a.24.24 0 0 0 .27.23h.15c.14 0 .21 0 .23.06s.08.19.08.68v2.63c0 .49 0 .66-.4.7h-.06c-.11 0-.38 0-.38.3a.26.26 0 0 0 .29.26h2.14a.25.25 0 0 0 .27-.27c-.13-.2-.4-.22-.51-.23zM145.29 25.47a.22.22 0 0 0-.21-.22c-.08 0-.14.05-.23.14a1 1 0 0 1-.58.31.4.4 0 0 1-.3-.11c-.24-.24-.24-.83-.24-1.22v-3.24-.15a.47.47 0 0 1 .15 0h.88a.34.34 0 0 0 .28-.06.36.36 0 0 0 .08-.27c0-.08 0-.3-.23-.3h-1.17a.3.3 0 0 1 0-.11v-.9c0-.25-.15-.28-.22-.28s-.21.14-.23.19a2.68 2.68 0 0 1-1 1.23.34.34 0 0 0-.16.26.21.21 0 0 0 .07.16.51.51 0 0 0 .38.07h.18a.55.55 0 0 1 0 .1v3.44A2.52 2.52 0 0 0 143 26a1.13 1.13 0 0 0 .92.44 1.62 1.62 0 0 0 1.14-.51.72.72 0 0 0 .23-.46zM151.29 20.47h-1.81a.29.29 0 0 0-.29.29c0 .22.27.22.39.22.31 0 .47.11.47.33a1.62 1.62 0 0 1-.14.46l-1.15 3-1.15-3.07a1.47 1.47 0 0 1-.12-.45c0-.24.4-.25.45-.25.27 0 .4-.07.4-.22a.28.28 0 0 0-.29-.29h-2.19a.31.31 0 0 0-.35.29c0 .22.28.22.4.22.28 0 .4.27.54.68l.05.14 1.5 3.94.05.13a1.15 1.15 0 0 1 .1.37.72.72 0 0 1-.07.26v.07l-.39 1v.09c-.05.16-.1.26-.18.28a1.61 1.61 0 0 1-.38 0H147c-.49 0-.49.44-.49.62a.51.51 0 0 0 .14.38.83.83 0 0 0 .61.16c.49 0 .56-.14.67-.57l2.28-6a8.17 8.17 0 0 1 .61-1.32.68.68 0 0 1 .4-.24h.05c.12 0 .31 0 .31-.2a.29.29 0 0 0-.29-.32zM173 17.68h-18.86v14.28c.3 3.41 3.71 9.05 9.33 10.79H164.01c5.62-1.74 9-7.42 9.33-10.87v-14.2zm-.15.58v13.62c-.29 3.31-3.58 8.76-9 10.45h-.26c-5.44-1.68-8.74-7.13-9-10.41v-13.8h18.29z" fill="#fff"/><path d="M163.19 24.7c0 .05-.95.1-1.13.3a.48.48 0 0 0 0 .66.46.46 0 0 1 .42-.33 1.59 1.59 0 0 1 1 .69 6.66 6.66 0 0 1-1.6 0 .53.53 0 0 1-.22-.34s-.07.33.09.44a.41.41 0 0 0 .3.09h1.47c0 .09 0 .34-.28.36h-1s0 .26.37.15c.08 0 .35-.1.43 0s.24.42-.37.51c0 0 .89.06 1-.7 0 0 .07.57.24.57s.2-.6.2-.6a1.31 1.31 0 0 0 1.07.86c-.64-.44-.61-1.63-.6-1.72 0-.6.55-.54.59-.89s-.54-.38-.54-.38.25 0 .3.12c.11.28-.37.31-.37.31-.58.15-.79-.2-1-.23s-.33.08-.37.13zm.46.17v.16h-.16a.16.16 0 1 1-.3.09.24.24 0 0 1 0-.08h-.39l.72-.28zM163 36.7a1.92 1.92 0 0 0 .27-.54 1.38 1.38 0 0 1-1 0s0 .17-.54.4a1.43 1.43 0 0 0-.57 2.52s-.47-1.46.26-1.81c.05.05.69.67 1.58-.57zM159.45 27.51a2.17 2.17 0 0 0 .55.65 2.77 2.77 0 0 0-.74.51 1.6 1.6 0 0 0 .88.36 2.52 2.52 0 0 0-.68.61 1.31 1.31 0 0 0 .91.19s-.55.37-.59.79a1 1 0 0 0 1-.32s-.36.61-.14 1a1.2 1.2 0 0 0 .2.26c.35-.17.4-.19.43-.57v-.61-.64s-.74-.12-.56-1.41c0 0 1 .68 1.11-.25.13-1.12-1.57-.55-1.46-2.75 0 0-.79 1.46-.06 2a1.65 1.65 0 0 0-.85.18z" fill="#fff"/><path d="M160.42 32.45a2.08 2.08 0 0 1-1.42 1.76 2.68 2.68 0 0 0 2.76-1.83 1.75 1.75 0 0 1-.26-.5v-.1a3 3 0 0 1-.75.39 4.2 4.2 0 0 1-.42-.42 1.49 1.49 0 0 1-.26-.57 1.25 1.25 0 0 1-.76-.34 1.47 1.47 0 0 1 .13-.67 2.44 2.44 0 0 1-.57-.42 2.23 2.23 0 0 1 .31-.53c-.45-.35-.47-.56-.47-.56a1.72 1.72 0 0 1 .52-.6 3.45 3.45 0 0 1-.34-.7 1.74 1.74 0 0 1 .64-.42 1.63 1.63 0 0 1 0-.55s-2.68-1.4-3-2.3a6.77 6.77 0 0 0-.07 1.32c0 .46.76 1.21 2.49 2.37-1.06-.16-2.51-.73-2.83-1.3a4.64 4.64 0 0 0 .18 1.31c.15.4.9.68 2.59 1.51a2.9 2.9 0 0 1-2.74-.48 6.45 6.45 0 0 0 .51 1.16c.18.28.88.75 2.51.5a2.45 2.45 0 0 1-2.55 1s.08.72.56.92 1.1.25 2.29-.67a2 2 0 0 1-2.47 1.23 3 3 0 0 0 .87 1c.34.15 1.18-.02 2.55-1.51zM162.61 33.93a5.42 5.42 0 0 0-.6-1.06s0 .11-.26.48c-.62 1-1.18.91-1.18.91a1.72 1.72 0 0 0 1.31-.09l-.12.31a1.53 1.53 0 0 0 .1 1.1c-.16-.86.75-1.65.75-1.65zM162 32.86z" fill="#fff"/><path d="M161.06 36c-.06-.27-.27-.2-.42-.13a.39.39 0 0 1-.26 0c-.1-.05-.13-.17 0-.25a1.58 1.58 0 0 0 .85-.73 1.49 1.49 0 0 1-.63-.06s-.64.86-1.13.63a.55.55 0 0 1-.22-.45.26.26 0 0 0-.44-.21c-.15.17 0 .35.18.41s.23.15.17.24-.14.06-.21.06-.52-.14-.62.17.3.52.54.31.66-.22.76-.06.1.23-.26.5c-.11.08-.7.45-.29.84.14.13.53.08.62-.46s.2-.6.34-.67.31-.1.44 0l.12.09a.27.27 0 0 0 .46-.23zM158.58 34.75a.27.27 0 0 1 .15-.18c-.53-.19-.58.29-.58.29a.28.28 0 0 1 .43-.11zM158.17 36.09a.37.37 0 0 1-.06-.32.54.54 0 0 0-.05.85c-.21-.41.11-.53.11-.53zM158.93 37.47a.37.37 0 0 1-.17-.28.54.54 0 0 0 .24.81c-.33-.3-.07-.53-.07-.53zM161.28 36.23c.09 0 .16.12.13.35a.35.35 0 0 0-.12-.58.27.27 0 0 1 0 .23zM166.34 36a.35.35 0 0 0-.12.58c0-.23 0-.31.13-.35h.06a.27.27 0 0 1 0-.23zM165 27.83a1.39 1.39 0 0 1-.83-.32.63.63 0 0 1-.33.23.52.52 0 0 1-.31-.22 1.49 1.49 0 0 1-.84.33c-.53 1.4-1.7 2.26-.63 4.16s1.93 2.25.37 3.61c0 0 1 .28 1.23-.59 0 0 0 .94.19 1.19.23-.25.18-1.2.18-1.2.23.86 1.23.59 1.23.59-1.56-1.36-.75-1.63.37-3.61s-.1-2.76-.63-4.17zm.31 2.87a.54.54 0 0 1-.7.31.7.7 0 0 1-.2-.1h-.07v.65l.08-.06.1.13a.69.69 0 0 1 .1.2.54.54 0 0 1-.2.64l-.11.06a.65.65 0 0 1-.37.4h-.14a.65.65 0 0 1-.37-.4l-.11-.06a.54.54 0 0 1-.2-.64.7.7 0 0 1 .1-.2l.1-.14.08.06v-.65l-.07.05a.7.7 0 0 1-.2.1.54.54 0 0 1-.7-.31.65.65 0 0 1-.4-.37v-.14a.65.65 0 0 1 .4-.37.54.54 0 0 1 .7-.31l.16.07v-.07a.7.7 0 0 1-.1-.2.54.54 0 0 1 .2-.64l.11-.06a.65.65 0 0 1 .37-.4h.14a.65.65 0 0 1 .37.4l.11.06a.54.54 0 0 1 .2.64.69.69 0 0 1-.1.2v.06l.15-.07a.54.54 0 0 1 .7.31.65.65 0 0 1 .4.37v.14a.65.65 0 0 1-.54.35zM165.89 36.6c-.56-.23-.54-.4-.54-.4a1.38 1.38 0 0 1-1 0 1.92 1.92 0 0 0 .27.54c.92 1.24 1.56.61 1.56.61.74.34.26 1.81.26 1.81a1.43 1.43 0 0 0-.55-2.56zM167 28.35c.17 1.29-.56 1.41-.56 1.41v1.25c0 .38.08.4.43.57a1.2 1.2 0 0 0 .2-.26c.22-.41-.14-1-.14-1a1 1 0 0 0 1 .32c0-.41-.59-.79-.59-.79a1.31 1.31 0 0 0 .91-.19 2.52 2.52 0 0 0-.68-.61 1.6 1.6 0 0 0 .88-.36 2.77 2.77 0 0 0-.74-.51 2.17 2.17 0 0 0 .55-.65 1.65 1.65 0 0 0-.85-.17c.73-.54-.06-2-.06-2 .11 2.21-1.59 1.63-1.46 2.75.11.89 1.11.24 1.11.24z" fill="#fff"/><path d="M168.83 27.37a3.45 3.45 0 0 1-.34.7 1.72 1.72 0 0 1 .52.6s0 .21-.47.56a2.24 2.24 0 0 1 .31.53 2.44 2.44 0 0 1-.57.42 1.47 1.47 0 0 1 .13.67 1.25 1.25 0 0 1-.76.34 1.49 1.49 0 0 1-.26.57 4.19 4.19 0 0 1-.42.42 3 3 0 0 1-.75-.39v.1a1.74 1.74 0 0 1-.26.5 2.68 2.68 0 0 0 2.76 1.83 2.08 2.08 0 0 1-1.43-1.76c1.37 1.49 2.21 1.66 2.62 1.44a3 3 0 0 0 .87-1 2 2 0 0 1-2.47-1.23c1.19.92 1.93.82 2.29.67s.56-.92.56-.92a2.45 2.45 0 0 1-2.55-1c1.63.24 2.33-.23 2.51-.5a6.45 6.45 0 0 0 .51-1.16 2.9 2.9 0 0 1-2.74.48c1.69-.83 2.44-1.11 2.59-1.51a4.64 4.64 0 0 0 .18-1.31c-.32.57-1.77 1.14-2.83 1.3 1.73-1.16 2.44-1.91 2.49-2.37a6.77 6.77 0 0 0-.07-1.32c-.3.91-3 2.3-3 2.3a1.64 1.64 0 0 1 0 .55 1.74 1.74 0 0 1 .58.49zM167.09 34.26s-.56.07-1.18-.91c-.24-.38-.26-.46-.26-.48a5.41 5.41 0 0 0-.6 1.06s.91.79.75 1.65a1.53 1.53 0 0 0 .1-1.1l-.12-.31a1.72 1.72 0 0 0 1.31.09zM165.66 32.87z" fill="#fff"/><path d="M168.69 35.51c-.07 0-.15 0-.21-.06s.08-.21.17-.24.32-.24.18-.41a.26.26 0 0 0-.44.21.55.55 0 0 1-.22.45c-.49.23-1.13-.63-1.13-.63a1.49 1.49 0 0 1-.63.06 1.58 1.58 0 0 0 .85.73c.17.08.13.2 0 .25a.39.39 0 0 1-.26 0c-.15-.07-.36-.14-.42.13a.27.27 0 0 0 .42.26l.12-.09c.13-.11.37 0 .44 0s.27.27.34.67.48.59.62.46c.41-.39-.18-.76-.29-.84-.35-.27-.3-.43-.26-.5s.5-.17.76.06.66 0 .54-.31-.48-.19-.58-.2zM168.94 34.57a.27.27 0 0 1 .15.18.28.28 0 0 1 .43.11s-.06-.48-.58-.29zM169.5 36.09s.32.12.11.53a.54.54 0 0 0-.05-.85.37.37 0 0 1-.06.32zM168.74 37.47s.26.22-.09.53a.54.54 0 0 0 .25-.81.37.37 0 0 1-.16.28zM166 38a2.06 2.06 0 0 1-2-1.27.65.65 0 0 1-.23.14.65.65 0 0 1-.23-.14 2.06 2.06 0 0 1-2 1.27s.08.3.61.34c0 0-.92.42-.39.85.35.28.62-.51.62-.51s0 .72.66.73c0 0-.93-.54 0-1.81-.09.89.22 1.72.63 1.72s.73-.83.63-1.72c1 1.27 0 1.81 0 1.81.62 0 .66-.73.66-.73s.27.79.62.51c.53-.43-.39-.85-.39-.85.75-.01.81-.34.81-.34zM165 30.1a.21.21 0 0 0 0-.21.21.21 0 0 0-.25-.08.15.15 0 0 1 0 .08.17.17 0 0 1-.08.16.38.38 0 0 1-.18 0H164v-.69a.38.38 0 0 1 0-.18.17.17 0 0 1 .16-.08.15.15 0 0 1 .08 0 .21.21 0 0 0-.08-.25.21.21 0 0 0-.21 0 .36.36 0 0 0-.15-.34.36.36 0 0 0-.15.34.21.21 0 0 0-.21 0 .21.21 0 0 0-.08.25.15.15 0 0 1 .08 0 .17.17 0 0 1 .16.08.36.36 0 0 1 0 .17v.69h-.48a.38.38 0 0 1-.18 0 .17.17 0 0 1-.08-.16.16.16 0 0 1 0-.07.21.21 0 0 0-.25.08.21.21 0 0 0 0 .21.36.36 0 0 0-.34.15.36.36 0 0 0 .34.15.21.21 0 0 0 0 .21.21.21 0 0 0 .25.08.15.15 0 0 1 0-.08.17.17 0 0 1 .08-.16.36.36 0 0 1 .17 0h.49v1.25a.36.36 0 0 1 0 .17.17.17 0 0 1-.16.08.16.16 0 0 1-.08 0 .21.21 0 0 0 .08.25.21.21 0 0 0 .21 0 .36.36 0 0 0 .15.34.36.36 0 0 0 .15-.34.21.21 0 0 0 .21 0 .21.21 0 0 0 .08-.25.16.16 0 0 1-.08 0 .17.17 0 0 1-.16-.08.38.38 0 0 1 0-.18v-1.28h.47a.36.36 0 0 1 .17 0 .17.17 0 0 1 .08.16.16.16 0 0 1 0 .08.21.21 0 0 0 .25-.08.21.21 0 0 0 0-.21.36.36 0 0 0 .34-.15.36.36 0 0 0-.31-.11zM155 23.53h17.45v-5H155zm13.12-3.17l.49.11.09-.25.34.39-.09-.92.28.23.33-.65.33.65.28-.23-.09.92.34-.39.09.25.49-.11-.14.53.22.07-.79.75.15.24-.76-.06a1.62 1.62 0 0 0-.06.56.35.35 0 0 0 .19.31h-.52a.35.35 0 0 0 .19-.31 1.9 1.9 0 0 0-.06-.56l-.76.06.15-.24L168 21l.22-.07zm-7.41-.41h.51v-.44h.37a2.58 2.58 0 0 0 .82-.09c.28-.11 1-.37 1.35.13.34-.51 1.07-.25 1.35-.13a2.58 2.58 0 0 0 .82.09h.37v.44h.51v2.89h-2.5s-.19-.41-.56-.41-.55.41-.55.41h-2.5zm-4.31.41l.49.11.09-.25.34.39-.09-.92.28.23.33-.65.33.65.28-.23-.09.92.34-.39.09.25.49-.11-.14.53.22.07-.79.75.15.24-.76-.06a1.91 1.91 0 0 0-.06.56.35.35 0 0 0 .19.31h-.52a.35.35 0 0 0 .19-.31 1.62 1.62 0 0 0-.06-.56l-.76.06.15-.24-.79-.75.22-.07z" fill="#fff"/><path d="M163.56 19.69c-.2-.3-.68-.19-1 0a2.7 2.7 0 0 1-.92.11h-.12v.19h2.1v-.22z" fill="#fff"/><path d="M161.48 22.14h.64a2.4 2.4 0 0 0 .35-.12 2.37 2.37 0 0 1 1.11-.24v-1.83h-2.1zM166 19.76a2.73 2.73 0 0 1-.93-.11c-.36-.15-.84-.26-1 0v.21h2.11v-.19zM164 21.77a2.3 2.3 0 0 1 1.1.23 2.4 2.4 0 0 0 .35.12h.64v-2.17H164z" fill="#fff"/></svg>