<svg id="6e9fec81-021f-480b-92d5-97058ea67712" data-name="house" xmlns="http://www.w3.org/2000/svg" width="10.15" height="10.14" viewBox="0 0 10.15 10.14"><defs><style>.\33 5e89a31-0f73-4a3e-bc2e-74ecbc1348cc{fill:#fff}</style></defs><title>pencil</title><path class="35e89a31-0f73-4a3e-bc2e-74ecbc1348cc" d="M6.92 2.82L9.71 5.6l-5.58 5.57H1.35V8.39zm-3.14 7.5l.61-.61-1.58-1.58-.6.61v.72h.85v.86zm3.5-6.22a.13.13 0 0 0-.15-.1A.16.16 0 0 0 7 4L3.39 7.63a.16.16 0 0 0-.05.11.13.13 0 0 0 .15.15.15.15 0 0 0 .12 0l3.62-3.67a.15.15 0 0 0 .05-.12zm4.21-.64a.81.81 0 0 1-.24.6l-1.12 1.11-2.78-2.78 1.11-1.11a.79.79 0 0 1 .6-.28.82.82 0 0 1 .61.25l1.58 1.57a.87.87 0 0 1 .24.64z" transform="translate(-1.35 -1.03)"/></svg>