<svg id="66da12d9-81b8-42ed-8232-f1a1bc5cded2" data-name="Layer 1" xmlns="http://www.w3.org/2000/svg" width="37.14" height="37.14" viewBox="0 0 37.14 37.14"><title>search</title><path d="M38.57 35.71a2.89 2.89 0 0 1-2.86 2.86 2.65 2.65 0 0 1-2-.85L26 30.09a15.28 15.28 0 0 1-8.91 2.77A15.44 15.44 0 0 1 11 31.62a15.38 15.38 0 0 1-8.37-8.37A15.66 15.66 0 0 1 2.67 11 15.39 15.39 0 0 1 11 2.67a15.66 15.66 0 0 1 12.21 0A15.39 15.39 0 0 1 31.62 11a15.44 15.44 0 0 1 1.24 6.1 15.29 15.29 0 0 1-2.77 8.9l7.66 7.66a2.73 2.73 0 0 1 .82 2.05zm-14.36-11.5a9.63 9.63 0 0 0 2.93-7.06 9.63 9.63 0 0 0-2.93-7.06 9.63 9.63 0 0 0-7.07-2.94 9.63 9.63 0 0 0-7.06 2.94 9.63 9.63 0 0 0-2.94 7.06 9.63 9.63 0 0 0 2.94 7.06 9.63 9.63 0 0 0 7.06 2.94 9.63 9.63 0 0 0 7.07-2.94z" transform="translate(-1.43 -1.43)"/></svg>