<svg id="a60df292-84dc-41ae-97de-2842a7851a44" data-name="Layer 2" xmlns="http://www.w3.org/2000/svg" width="25.71" height="16.36" viewBox="0 0 25.71 16.36"><defs><style>.b73eed95-0a5d-45e3-a87c-c40ea3121108{fill:#fff}</style></defs><title>google-plus</title><path class="b73eed95-0a5d-45e3-a87c-c40ea3121108" d="M23.18 20.42a8.64 8.64 0 0 1-1 4.14 7 7 0 0 1-2.77 2.83 8.19 8.19 0 0 1-4.12 1 8 8 0 0 1-3.18-.65 8 8 0 0 1-4.35-4.35 8.14 8.14 0 0 1 0-6.36 8 8 0 0 1 4.35-4.35 8 8 0 0 1 3.21-.68 7.74 7.74 0 0 1 5.48 2.14l-2.22 2.13a4.5 4.5 0 0 0-3.26-1.26 4.89 4.89 0 0 0-2.54.69 5.22 5.22 0 0 0 0 9 4.89 4.89 0 0 0 2.54.69 5.4 5.4 0 0 0 1.7-.26 4.34 4.34 0 0 0 1.28-.64 4.65 4.65 0 0 0 .88-.88 4 4 0 0 0 .55-.93 4.09 4.09 0 0 0 .24-.83h-4.65v-2.79H23a7.31 7.31 0 0 1 .18 1.36zm9.68-1.36v2.34h-2.34v2.33h-2.34V21.4h-2.33v-2.34h2.33v-2.34h2.34v2.33z" transform="translate(-7.14 -12.05)" id="286dedef-afb8-4381-9da3-56a69336922f" data-name="Google+"/></svg>