<svg id="41530d4b-3857-4680-91a0-025e0a2abf46" data-name="Layer 2" xmlns="http://www.w3.org/2000/svg" width="17.14" height="17.14" viewBox="0 0 17.14 17.14"><defs><style>.\32 8a6b43e-47e3-4b41-8a35-3c243805bdc3{fill:#fff}</style></defs><title>instagram</title><path class="28a6b43e-47e3-4b41-8a35-3c243805bdc3" d="M28.57 20.23q0 2.56-.06 3.54a5.23 5.23 0 0 1-1.38 3.59 5.24 5.24 0 0 1-3.59 1.38q-1 .06-3.54.06t-3.54-.06a5.24 5.24 0 0 1-3.59-1.38 5.23 5.23 0 0 1-1.38-3.59q-.06-1-.06-3.54t.06-3.54a5.23 5.23 0 0 1 1.38-3.59 5.24 5.24 0 0 1 3.59-1.38q1-.06 3.54-.06t3.54.06a5.24 5.24 0 0 1 3.59 1.38 5.23 5.23 0 0 1 1.38 3.59q.06.98.06 3.54zm-7.72-7h-3.93a8.87 8.87 0 0 0-1.15.11 4.45 4.45 0 0 0-.8.21 2.92 2.92 0 0 0-1.63 1.63 4.45 4.45 0 0 0-.21.8 8.85 8.85 0 0 0-.13 1.14v6.22a8.85 8.85 0 0 0 .11 1.15 4.45 4.45 0 0 0 .21.8 2.92 2.92 0 0 0 1.63 1.63 4.52 4.52 0 0 0 .8.21 8.87 8.87 0 0 0 1.15.11h6.18a8.87 8.87 0 0 0 1.15-.11 4.52 4.52 0 0 0 .8-.21 2.92 2.92 0 0 0 1.63-1.63 4.45 4.45 0 0 0 .21-.8 9 9 0 0 0 .13-1.15v-1.08-1.18-.85-.85-1.18-1.08a9 9 0 0 0-.11-1.12 4.45 4.45 0 0 0-.21-.8 2.92 2.92 0 0 0-1.63-1.63 4.45 4.45 0 0 0-.8-.21 8.87 8.87 0 0 0-1.15-.11h-1.08zm2.26 3.92a4.42 4.42 0 0 1 0 6.23 4.42 4.42 0 0 1-6.23 0 4.42 4.42 0 0 1 0-6.23 4.42 4.42 0 0 1 6.23 0zM22 22.25a2.86 2.86 0 1 0-4-4 2.86 2.86 0 1 0 4 4zm3.28-7.32a1 1 0 1 1-.73-.3 1 1 0 0 1 .75.3z" transform="translate(-11.43 -11.66)"/></svg>