<svg id="b94d84e1-3d1b-4996-9c19-589a9e5888d7" data-name="Layer 2" xmlns="http://www.w3.org/2000/svg" width="17.14" height="16.38" viewBox="0 0 17.14 16.38"><defs><style>.\36 7979915-1568-4a0e-bf4d-360127445067{fill:#fff}</style></defs><title>linked-in</title><path class="67979915-1568-4a0e-bf4d-360127445067" d="M15.56 13.79a1.76 1.76 0 0 1-.56 1.36 2.1 2.1 0 0 1-1.51.55 2 2 0 0 1-1.49-.55 1.83 1.83 0 0 1-.56-1.36 1.8 1.8 0 0 1 .56-1.37 2.1 2.1 0 0 1 1.5-.54 2 2 0 0 1 1.48.54 1.86 1.86 0 0 1 .58 1.37zm-.23 3.42v11.05h-3.69V17.2zm13.25 4.72v6.34H24.9v-5.92a3.23 3.23 0 0 0-.45-1.84 1.59 1.59 0 0 0-1.45-.66 1.81 1.81 0 0 0-1.18.39 2.37 2.37 0 0 0-.71 1 2.69 2.69 0 0 0-.12.9v6.17h-3.63v-7.22V17.2H21v1.61a4.19 4.19 0 0 1 1.09-1.21 2.9 2.9 0 0 1 1-.49 4.43 4.43 0 0 1 1.28-.17 4 4 0 0 1 3.07 1.27 5.32 5.32 0 0 1 1.13 3.71z" transform="translate(-11.43 -11.88)"/></svg>