<svg id="bbe21dcb-ecfa-4115-b0e4-7c052abbbbc8" data-name="Layer 2" xmlns="http://www.w3.org/2000/svg" width="17.59" height="14.29" viewBox="0 0 17.59 14.29"><defs><style>.f486c2a8-68f5-4c7a-a3e7-2050f8047439{fill:#fff}</style></defs><title>twitter</title><path class="f486c2a8-68f5-4c7a-a3e7-2050f8047439" d="M28.79 14.78A7.52 7.52 0 0 1 27 16.65v.47a10.26 10.26 0 0 1-.42 2.9 10.5 10.5 0 0 1-1.29 2.77 10.89 10.89 0 0 1-2.06 2.35 9.16 9.16 0 0 1-2.88 1.63 10.52 10.52 0 0 1-3.61.61 10 10 0 0 1-5.54-1.62 7.6 7.6 0 0 0 .87 0 7.06 7.06 0 0 0 4.47-1.54 3.61 3.61 0 0 1-3.37-2.5 4.58 4.58 0 0 0 .68.06 3.72 3.72 0 0 0 .95-.12 3.54 3.54 0 0 1-2.07-1.24 3.48 3.48 0 0 1-.82-2.29 3.58 3.58 0 0 0 1.63.46 3.6 3.6 0 0 1-1.17-1.28 3.61 3.61 0 0 1 .06-3.54 10.23 10.23 0 0 0 3.29 2.66 10 10 0 0 0 4.15 1.11 4 4 0 0 1-.09-.83A3.61 3.61 0 0 1 26 14.22a7.07 7.07 0 0 0 2.29-.87 3.5 3.5 0 0 1-1.58 2 7.16 7.16 0 0 0 2.08-.57z" transform="translate(-11.21 -13.09)"/></svg>