<svg id="3f3da673-87aa-4fb9-9790-0322ef6a7719" data-name="Layer 2" xmlns="http://www.w3.org/2000/svg" width="20" height="14.06" viewBox="0 0 20 14.06"><defs><style>.\35 1d5e5b1-33b4-43d8-989b-82c83fa0ef0e{fill:#fff}</style></defs><title>youtube</title><path class="51d5e5b1-33b4-43d8-989b-82c83fa0ef0e" d="M20 13.2h3.62q1.74 0 2.56.11h1.27l.26.05a1.5 1.5 0 0 1 .32.09l.31.15a2.17 2.17 0 0 1 .35.22 2.68 2.68 0 0 1 .32.3l.17.21a3.74 3.74 0 0 1 .32.65 4.23 4.23 0 0 1 .3 1.13q.09.71.14 1.52T30 19v2a23.52 23.52 0 0 1-.2 3.24 4.45 4.45 0 0 1-.28 1.11 2.88 2.88 0 0 1-.36.69l-.16.19a2.68 2.68 0 0 1-.32.3 1.83 1.83 0 0 1-.35.21l-.31.14a1.5 1.5 0 0 1-.32.09l-.27.05h-.26L27 27q-2.8.21-7 .21-2.31 0-4-.07t-2.24-.08H12.81a5.51 5.51 0 0 1-.61-.11 3.42 3.42 0 0 1-.57-.23 2.24 2.24 0 0 1-.63-.46l-.18-.26a3.74 3.74 0 0 1-.32-.65 4.23 4.23 0 0 1-.3-1.13q-.09-.71-.14-1.52T10 21.43v-2a23.67 23.67 0 0 1 .2-3.24 4.45 4.45 0 0 1 .28-1.11 2.85 2.85 0 0 1 .36-.69l.16-.19a2.75 2.75 0 0 1 .32-.3 2.17 2.17 0 0 1 .35-.22l.31-.15a1.52 1.52 0 0 1 .32-.09l.26-.05h.45q2.79-.19 6.99-.19zm-2.06 9.62l5.4-2.82-5.4-2.82z" transform="translate(-10 -13.2)" id="d0883689-47dc-473f-9d6d-0ef27a00d81b" data-name="YouTube"/></svg>